<svg xmlns="http://www.w3.org/2000/svg" xmlns:xlink="http://www.w3.org/1999/xlink" version="1.1" width="1000" height="1000" viewBox="0 0 1000 1000" xml:space="preserve">
<desc>Created with Fabric.js 3.5.0</desc>
<defs>
</defs>
<rect x="0" y="0" width="100%" height="100%" fill="rgba(255,255,255,0)"/>
<g transform="matrix(0.8762 0 0 0.8762 499.6793 489.8408)" id="964478">
<g style="" vector-effect="non-scaling-stroke">
		<g transform="matrix(1 0 0 1 -32.3093 -26.8763)" id="b759170a-51c3-4e2f-999d-77dec9fd6d11">
<path style="stroke: none; stroke-width: 1; stroke-dasharray: none; stroke-linecap: butt; stroke-dashoffset: 0; stroke-linejoin: miter; stroke-miterlimit: 4; is-custom-font: none; font-file-url: none; fill: rgb(238,93,32); fill-rule: nonzero; opacity: 0.1;" transform=" translate(-567.6907, -423.1187)" d="M 38.48 470.82 c 20.16 -32.93 65.75 -27.19 98.08 -10 s 64.59 42.85 100.17 37.92 c 30 -4.16 54.6 -30.32 67.89 -60.5 s 17.19 -64.21 20.93 -97.54 Q 332.6 277.89 339.64 215 c 1.72 -15.33 3.75 -31.51 12.37 -43.64 c 11.39 -16 32.27 -20.92 50.13 -16.11 s 33.09 17.71 46.12 32.1 C 490 233.43 513.65 295.72 550.14 347 c 7.43 10.44 15.82 20.76 26.92 25.8 c 16 7.25 34.37 2.12 50 -5.95 c 51 -26.29 85.26 -79.94 118.93 -130 c 16.38 -24.33 36.35 -50.35 63.6 -53 C 838.26 181 863.15 205.43 880 231.3 c 54.08 83.24 65.67 196.88 131 269.48 c 8.11 9 17.06 17.32 27.37 22.91 a 70.65 70.65 0 0 0 10.6 4.65 c 57 19.73 76 98.93 33.84 145.89 c -0.91 1 -1.84 2 -2.78 3 c -6.26 6.61 -13.35 12.86 -21.81 14.83 c -7.87 1.82 -16 -0.28 -23.8 -2.55 c -49.86 -14.55 -99.12 -36.79 -150.67 -35.71 c -50.16 1 -97.74 24.17 -147.34 32.51 c -33.35 5.61 -67.28 4.49 -101 3.28 q -168.46 -6.06 -336.85 -14.1 c -55.72 -2.56 -111.46 -5 -167.17 -7.85 c -42.92 -2.23 -70.26 -7.14 -75.24 -56.95 C 51.79 567.07 12.63 513.06 38.48 470.82 Z" stroke-linecap="round"/>
</g>
		<g transform="matrix(1 0 0 1 219.62 355.905)" id="b759170a-51c3-4e2f-999d-77dec9fd6d11">
<ellipse style="stroke: none; stroke-width: 1; stroke-dasharray: none; stroke-linecap: butt; stroke-dashoffset: 0; stroke-linejoin: miter; stroke-miterlimit: 4; is-custom-font: none; font-file-url: none; fill: rgb(78,48,76); fill-rule: nonzero; opacity: 1;" cx="0" cy="0" rx="269.99" ry="37.73"/>
</g>
		<g transform="matrix(1 0 0 1 -410.615 196.861)" id="b759170a-51c3-4e2f-999d-77dec9fd6d11">
<path style="stroke: none; stroke-width: 1; stroke-dasharray: none; stroke-linecap: butt; stroke-dashoffset: 0; stroke-linejoin: miter; stroke-miterlimit: 4; is-custom-font: none; font-file-url: none; fill: rgb(238,93,32); fill-rule: nonzero; opacity: 1;" transform=" translate(-189.385, -646.856)" d="M 178.46 643.13 s 13.2 -3 21.85 5.87 c 0 0 -5.56 5 -18.64 -0.54 Z" stroke-linecap="round"/>
</g>
		<g transform="matrix(1 0 0 1 -423.3968 204.23)" id="b759170a-51c3-4e2f-999d-77dec9fd6d11">
<path style="stroke: none; stroke-width: 1; stroke-dasharray: none; stroke-linecap: butt; stroke-dashoffset: 0; stroke-linejoin: miter; stroke-miterlimit: 4; is-custom-font: none; font-file-url: none; fill: rgb(238,93,32); fill-rule: nonzero; opacity: 1;" transform=" translate(-176.6032, -654.225)" d="M 177 643 s -7.82 11.08 -2.86 22.45 c 0 0 6.76 -3.25 6.57 -17.45 Z" stroke-linecap="round"/>
</g>
		<g transform="matrix(1 0 0 1 -418.3 178.8344)" id="b759170a-51c3-4e2f-999d-77dec9fd6d11">
<path style="stroke: none; stroke-width: 1; stroke-dasharray: none; stroke-linecap: butt; stroke-dashoffset: 0; stroke-linejoin: miter; stroke-miterlimit: 4; is-custom-font: none; font-file-url: none; fill: rgb(238,93,32); fill-rule: nonzero; opacity: 1;" transform=" translate(-181.7, -628.8294)" d="M 168.2 626.3 s 4.69 -10.15 27 2.12 c 0 0 -2.4 6.78 -11.88 6.88 S 171 631.29 168.2 626.3 Z" stroke-linecap="round"/>
</g>
		<g transform="matrix(1 0 0 1 -436.7539 188.1632)" id="b759170a-51c3-4e2f-999d-77dec9fd6d11">
<path style="stroke: none; stroke-width: 1; stroke-dasharray: none; stroke-linecap: butt; stroke-dashoffset: 0; stroke-linejoin: miter; stroke-miterlimit: 4; is-custom-font: none; font-file-url: none; fill: rgb(238,93,32); fill-rule: nonzero; opacity: 1;" transform=" translate(-163.2461, -638.1582)" d="M 166.78 625.68 s -11.17 -0.52 -10.54 24.92 c 0 0 7.13 1 11.58 -7.38 S 169.91 630.51 166.78 625.68 Z" stroke-linecap="round"/>
</g>
		<g transform="matrix(1 0 0 1 -426.765 153.832)" id="b759170a-51c3-4e2f-999d-77dec9fd6d11">
<path style="stroke: none; stroke-width: 1; stroke-dasharray: none; stroke-linecap: butt; stroke-dashoffset: 0; stroke-linejoin: miter; stroke-miterlimit: 4; is-custom-font: none; font-file-url: none; fill: rgb(238,93,32); fill-rule: nonzero; opacity: 1;" transform=" translate(-173.235, -603.8271)" d="M 159 605.88 S 164 588.2 187.47 599 c 0 0 -4.1 16.19 -25.8 12.64 Z" stroke-linecap="round"/>
</g>
		<g transform="matrix(1 0 0 1 -433.465 129.9052)" id="b759170a-51c3-4e2f-999d-77dec9fd6d11">
<path style="stroke: none; stroke-width: 1; stroke-dasharray: none; stroke-linecap: butt; stroke-dashoffset: 0; stroke-linejoin: miter; stroke-miterlimit: 4; is-custom-font: none; font-file-url: none; fill: rgb(238,93,32); fill-rule: nonzero; opacity: 1;" transform=" translate(-166.535, -579.9002)" d="M 150.29 580.54 s 10.58 -18.24 32.49 -3.44 c 0 0 -6.19 16.87 -30.29 9.55 Z" stroke-linecap="round"/>
</g>
		<g transform="matrix(1 0 0 1 -436.67 105.3745)" id="b759170a-51c3-4e2f-999d-77dec9fd6d11">
<path style="stroke: none; stroke-width: 1; stroke-dasharray: none; stroke-linecap: butt; stroke-dashoffset: 0; stroke-linejoin: miter; stroke-miterlimit: 4; is-custom-font: none; font-file-url: none; fill: rgb(238,93,32); fill-rule: nonzero; opacity: 1;" transform=" translate(-163.33, -555.3695)" d="M 146.15 556.14 s 12.63 -16.95 34.36 -2.31 c 0 0 -12.06 14.94 -34.09 6.4 Z" stroke-linecap="round"/>
</g>
		<g transform="matrix(1 0 0 1 -440.795 81.2697)" id="b759170a-51c3-4e2f-999d-77dec9fd6d11">
<path style="stroke: none; stroke-width: 1; stroke-dasharray: none; stroke-linecap: butt; stroke-dashoffset: 0; stroke-linejoin: miter; stroke-miterlimit: 4; is-custom-font: none; font-file-url: none; fill: rgb(238,93,32); fill-rule: nonzero; opacity: 1;" transform=" translate(-159.205, -531.2647)" d="M 142.41 532.42 s 12.76 -17.66 33.59 -3.15 c 0 0 -14.68 15.83 -33.33 7.07 Z" stroke-linecap="round"/>
</g>
		<g transform="matrix(1 0 0 1 -441.445 57.1348)" id="b759170a-51c3-4e2f-999d-77dec9fd6d11">
<path style="stroke: none; stroke-width: 1; stroke-dasharray: none; stroke-linecap: butt; stroke-dashoffset: 0; stroke-linejoin: miter; stroke-miterlimit: 4; is-custom-font: none; font-file-url: none; fill: rgb(238,93,32); fill-rule: nonzero; opacity: 1;" transform=" translate(-158.555, -507.1298)" d="M 142.23 511.16 s 13.15 -22.53 32.65 -9.17 c 0 0 -14.42 19.57 -32.37 13.26 Z" stroke-linecap="round"/>
</g>
		<g transform="matrix(1 0 0 1 -439.455 33.0146)" id="b759170a-51c3-4e2f-999d-77dec9fd6d11">
<path style="stroke: none; stroke-width: 1; stroke-dasharray: none; stroke-linecap: butt; stroke-dashoffset: 0; stroke-linejoin: miter; stroke-miterlimit: 4; is-custom-font: none; font-file-url: none; fill: rgb(238,93,32); fill-rule: nonzero; opacity: 1;" transform=" translate(-160.545, -483.0095)" d="M 144 486.18 S 158 463.78 177.09 479 c 0 0 -17.1 19.75 -32.87 11.15 Z" stroke-linecap="round"/>
</g>
		<g transform="matrix(1 0 0 1 -435.82 8.6636)" id="b759170a-51c3-4e2f-999d-77dec9fd6d11">
<path style="stroke: none; stroke-width: 1; stroke-dasharray: none; stroke-linecap: butt; stroke-dashoffset: 0; stroke-linejoin: miter; stroke-miterlimit: 4; is-custom-font: none; font-file-url: none; fill: rgb(238,93,32); fill-rule: nonzero; opacity: 1;" transform=" translate(-164.18, -458.6586)" d="M 147.63 463.72 s 17 -21.31 33.55 -14.37 c 0 0 -17.68 22.6 -34 19.76 Z" stroke-linecap="round"/>
</g>
		<g transform="matrix(1 0 0 1 -431.79 -15.2794)" id="b759170a-51c3-4e2f-999d-77dec9fd6d11">
<path style="stroke: none; stroke-width: 1; stroke-dasharray: none; stroke-linecap: butt; stroke-dashoffset: 0; stroke-linejoin: miter; stroke-miterlimit: 4; is-custom-font: none; font-file-url: none; fill: rgb(238,93,32); fill-rule: nonzero; opacity: 1;" transform=" translate(-168.21, -434.7156)" d="M 152.63 442.32 s 19.54 -26 32.37 -18.62 c 0 0 -14.31 20.09 -33.58 23.35 Z" stroke-linecap="round"/>
</g>
		<g transform="matrix(1 0 0 1 -425.3 -38.2745)" id="b759170a-51c3-4e2f-999d-77dec9fd6d11">
<path style="stroke: none; stroke-width: 1; stroke-dasharray: none; stroke-linecap: butt; stroke-dashoffset: 0; stroke-linejoin: miter; stroke-miterlimit: 4; is-custom-font: none; font-file-url: none; fill: rgb(238,93,32); fill-rule: nonzero; opacity: 1;" transform=" translate(-174.7, -411.7206)" d="M 160.25 417.38 s 17.17 -21.32 31 -17.24 c 0 0 -14.45 21.89 -33.1 23.68 Z" stroke-linecap="round"/>
</g>
		<g transform="matrix(1 0 0 1 -419.05 -62.7982)" id="b759170a-51c3-4e2f-999d-77dec9fd6d11">
<path style="stroke: none; stroke-width: 1; stroke-dasharray: none; stroke-linecap: butt; stroke-dashoffset: 0; stroke-linejoin: miter; stroke-miterlimit: 4; is-custom-font: none; font-file-url: none; fill: rgb(238,93,32); fill-rule: nonzero; opacity: 1;" transform=" translate(-180.95, -387.1967)" d="M 167.1 394.07 s 19.18 -20.6 28.31 -17.82 c 0 0 -13.35 22.36 -28.92 22.15 Z" stroke-linecap="round"/>
</g>
		<g transform="matrix(1 0 0 1 -413.22 -87.8399)" id="b759170a-51c3-4e2f-999d-77dec9fd6d11">
<path style="stroke: none; stroke-width: 1; stroke-dasharray: none; stroke-linecap: butt; stroke-dashoffset: 0; stroke-linejoin: miter; stroke-miterlimit: 4; is-custom-font: none; font-file-url: none; fill: rgb(238,93,32); fill-rule: nonzero; opacity: 1;" transform=" translate(-186.78, -362.1551)" d="M 173.87 372.51 s 16.09 -24.15 25.82 -23 c 0 0 -9.31 21.19 -25.66 25.33 Z" stroke-linecap="round"/>
</g>
		<g transform="matrix(1 0 0 1 -407.865 -113.075)" id="b759170a-51c3-4e2f-999d-77dec9fd6d11">
<path style="stroke: none; stroke-width: 1; stroke-dasharray: none; stroke-linecap: butt; stroke-dashoffset: 0; stroke-linejoin: miter; stroke-miterlimit: 4; is-custom-font: none; font-file-url: none; fill: rgb(238,93,32); fill-rule: nonzero; opacity: 1;" transform=" translate(-192.135, -336.92)" d="M 180.86 343.6 s 14.39 -18.66 22.81 -19.18 c 0 0 -10.71 24.34 -23.07 25 Z" stroke-linecap="round"/>
</g>
		<g transform="matrix(1 0 0 1 -409.4579 -140.985)" id="b759170a-51c3-4e2f-999d-77dec9fd6d11">
<path style="stroke: none; stroke-width: 1; stroke-dasharray: none; stroke-linecap: butt; stroke-dashoffset: 0; stroke-linejoin: miter; stroke-miterlimit: 4; is-custom-font: none; font-file-url: none; fill: rgb(238,93,32); fill-rule: nonzero; opacity: 1;" transform=" translate(-190.5421, -309.01)" d="M 184.86 324.39 l 12.58 -37.69 s 3 33.1 -14 44.62 Z" stroke-linecap="round"/>
</g>
		<g transform="matrix(1 0 0 1 -409.9624 -176.28)" id="b759170a-51c3-4e2f-999d-77dec9fd6d11">
<path style="stroke: none; stroke-width: 1; stroke-dasharray: none; stroke-linecap: butt; stroke-dashoffset: 0; stroke-linejoin: miter; stroke-miterlimit: 4; is-custom-font: none; font-file-url: none; fill: rgb(238,93,32); fill-rule: nonzero; opacity: 1;" transform=" translate(-190.0376, -273.715)" d="M 188.25 283.53 s 0.44 -30.79 -1.33 -33.17 c 0 0 12.47 24.74 2.14 46.71 Z" stroke-linecap="round"/>
</g>
		<g transform="matrix(1 0 0 1 -452.91 163.585)" id="b759170a-51c3-4e2f-999d-77dec9fd6d11">
<path style="stroke: none; stroke-width: 1; stroke-dasharray: none; stroke-linecap: butt; stroke-dashoffset: 0; stroke-linejoin: miter; stroke-miterlimit: 4; is-custom-font: none; font-file-url: none; fill: rgb(238,93,32); fill-rule: nonzero; opacity: 1;" transform=" translate(-147.09, -613.58)" d="M 158.36 605.51 s -16.26 -8.62 -24.77 15.73 c 0 0 14.5 8.28 27 -9.81 Z" stroke-linecap="round"/>
</g>
		<g transform="matrix(1 0 0 1 -462.875 139.0206)" id="b759170a-51c3-4e2f-999d-77dec9fd6d11">
<path style="stroke: none; stroke-width: 1; stroke-dasharray: none; stroke-linecap: butt; stroke-dashoffset: 0; stroke-linejoin: miter; stroke-miterlimit: 4; is-custom-font: none; font-file-url: none; fill: rgb(238,93,32); fill-rule: nonzero; opacity: 1;" transform=" translate(-137.125, -589.0156)" d="M 149.72 579.59 s -19.72 -7.45 -27.35 17.88 c 0 0 15.47 9.15 29.51 -11.76 Z" stroke-linecap="round"/>
</g>
		<g transform="matrix(1 0 0 1 -471.685 109.0179)" id="b759170a-51c3-4e2f-999d-77dec9fd6d11">
<path style="stroke: none; stroke-width: 1; stroke-dasharray: none; stroke-linecap: butt; stroke-dashoffset: 0; stroke-linejoin: miter; stroke-miterlimit: 4; is-custom-font: none; font-file-url: none; fill: rgb(238,93,32); fill-rule: nonzero; opacity: 1;" transform=" translate(-128.315, -559.0129)" d="M 145.36 557.67 S 130.57 542.56 111 560 c 0 0 13.94 13.19 34.63 1.79 Z" stroke-linecap="round"/>
</g>
		<g transform="matrix(1 0 0 1 -474.77 83.2919)" id="b759170a-51c3-4e2f-999d-77dec9fd6d11">
<path style="stroke: none; stroke-width: 1; stroke-dasharray: none; stroke-linecap: butt; stroke-dashoffset: 0; stroke-linejoin: miter; stroke-miterlimit: 4; is-custom-font: none; font-file-url: none; fill: rgb(238,93,32); fill-rule: nonzero; opacity: 1;" transform=" translate(-125.23, -533.2869)" d="M 141.94 532.46 s -15 -15.81 -33.71 1.36 c 0 0 16.66 13.73 34 2.55 Z" stroke-linecap="round"/>
</g>
		<g transform="matrix(1 0 0 1 -473.645 56.6811)" id="b759170a-51c3-4e2f-999d-77dec9fd6d11">
<path style="stroke: none; stroke-width: 1; stroke-dasharray: none; stroke-linecap: butt; stroke-dashoffset: 0; stroke-linejoin: miter; stroke-miterlimit: 4; is-custom-font: none; font-file-url: none; fill: rgb(238,93,32); fill-rule: nonzero; opacity: 1;" transform=" translate(-126.355, -506.6761)" d="M 142.27 511.76 s -11.36 -23.47 -31.83 -11.67 c 0 0 12.86 20.63 31.24 15.74 Z" stroke-linecap="round"/>
</g>
		<g transform="matrix(1 0 0 1 -470.86 31.1482)" id="b759170a-51c3-4e2f-999d-77dec9fd6d11">
<path style="stroke: none; stroke-width: 1; stroke-dasharray: none; stroke-linecap: butt; stroke-dashoffset: 0; stroke-linejoin: miter; stroke-miterlimit: 4; is-custom-font: none; font-file-url: none; fill: rgb(238,93,32); fill-rule: nonzero; opacity: 1;" transform=" translate(-129.14, -481.1431)" d="M 145.17 486 s -11.33 -23.9 -32.06 -11.07 c 0 0 14.66 21.61 31.34 14.93 Z" stroke-linecap="round"/>
</g>
		<g transform="matrix(1 0 0 1 -462.075 2.275)" id="b759170a-51c3-4e2f-999d-77dec9fd6d11">
<path style="stroke: none; stroke-width: 1; stroke-dasharray: none; stroke-linecap: butt; stroke-dashoffset: 0; stroke-linejoin: miter; stroke-miterlimit: 4; is-custom-font: none; font-file-url: none; fill: rgb(238,93,32); fill-rule: nonzero; opacity: 1;" transform=" translate(-137.925, -452.27)" d="M 149.7 463.7 s -5.64 -26.65 -23.55 -27.87 c 0 0 5.68 28.13 21.51 32.88 Z" stroke-linecap="round"/>
</g>
		<g transform="matrix(1 0 0 1 -456.14 -21.54)" id="b759170a-51c3-4e2f-999d-77dec9fd6d11">
<path style="stroke: none; stroke-width: 1; stroke-dasharray: none; stroke-linecap: butt; stroke-dashoffset: 0; stroke-linejoin: miter; stroke-miterlimit: 4; is-custom-font: none; font-file-url: none; fill: rgb(238,93,32); fill-rule: nonzero; opacity: 1;" transform=" translate(-143.86, -428.455)" d="M 153.09 442.34 s -3.67 -32.31 -18.46 -32.46 c 0 0 2.15 24.57 17.11 37.15 Z" stroke-linecap="round"/>
</g>
		<g transform="matrix(1 0 0 1 -448.515 -44.785)" id="b759170a-51c3-4e2f-999d-77dec9fd6d11">
<path style="stroke: none; stroke-width: 1; stroke-dasharray: none; stroke-linecap: butt; stroke-dashoffset: 0; stroke-linejoin: miter; stroke-miterlimit: 4; is-custom-font: none; font-file-url: none; fill: rgb(238,93,32); fill-rule: nonzero; opacity: 1;" transform=" translate(-151.485, -405.21)" d="M 161.72 416.35 s -6.21 -26.66 -20.47 -29 c 0 0 3.5 26 19.53 35.72 Z" stroke-linecap="round"/>
</g>
		<g transform="matrix(1 0 0 1 -436.9179 -69.775)" id="b759170a-51c3-4e2f-999d-77dec9fd6d11">
<path style="stroke: none; stroke-width: 1; stroke-dasharray: none; stroke-linecap: butt; stroke-dashoffset: 0; stroke-linejoin: miter; stroke-miterlimit: 4; is-custom-font: none; font-file-url: none; fill: rgb(238,93,32); fill-rule: nonzero; opacity: 1;" transform=" translate(-163.082, -380.22)" d="M 168.78 394.15 s -2 -28.07 -10.9 -31.62 c 0 0 -3.61 25.78 8.65 35.38 Z" stroke-linecap="round"/>
</g>
		<g transform="matrix(1 0 0 1 -431.6728 -93.005)" id="b759170a-51c3-4e2f-999d-77dec9fd6d11">
<path style="stroke: none; stroke-width: 1; stroke-dasharray: none; stroke-linecap: butt; stroke-dashoffset: 0; stroke-linejoin: miter; stroke-miterlimit: 4; is-custom-font: none; font-file-url: none; fill: rgb(238,93,32); fill-rule: nonzero; opacity: 1;" transform=" translate(-168.3273, -356.99)" d="M 174.51 372.16 s -3.15 -28.85 -12.31 -32.32 c 0 0 -1.5 23.09 11.1 34.3 Z" stroke-linecap="round"/>
</g>
		<g transform="matrix(1 0 0 1 -422.4423 -116.005)" id="b759170a-51c3-4e2f-999d-77dec9fd6d11">
<path style="stroke: none; stroke-width: 1; stroke-dasharray: none; stroke-linecap: butt; stroke-dashoffset: 0; stroke-linejoin: miter; stroke-miterlimit: 4; is-custom-font: none; font-file-url: none; fill: rgb(238,93,32); fill-rule: nonzero; opacity: 1;" transform=" translate(-177.5578, -333.99)" d="M 182.26 345.82 s -1.64 -23.51 -8.35 -28.61 c 0 0 -4.58 26.19 5.35 33.56 Z" stroke-linecap="round"/>
</g>
		<g transform="matrix(1 0 0 1 -420.6206 -142.565)" id="b759170a-51c3-4e2f-999d-77dec9fd6d11">
<path style="stroke: none; stroke-width: 1; stroke-dasharray: none; stroke-linecap: butt; stroke-dashoffset: 0; stroke-linejoin: miter; stroke-miterlimit: 4; is-custom-font: none; font-file-url: none; fill: rgb(238,93,32); fill-rule: nonzero; opacity: 1;" transform=" translate(-179.3795, -307.43)" d="M 184 323.28 l -8.8 -38.74 s -6.23 32.64 9.57 45.78 Z" stroke-linecap="round"/>
</g>
		<g transform="matrix(1 0 0 1 -422.6554 -173.99)" id="b759170a-51c3-4e2f-999d-77dec9fd6d11">
<path style="stroke: none; stroke-width: 1; stroke-dasharray: none; stroke-linecap: butt; stroke-dashoffset: 0; stroke-linejoin: miter; stroke-miterlimit: 4; is-custom-font: none; font-file-url: none; fill: rgb(238,93,32); fill-rule: nonzero; opacity: 1;" transform=" translate(-177.3446, -276.005)" d="M 182.63 284.28 S 165 259 165.14 256.06 c 0 0 3.54 27.48 24.41 39.89 Z" stroke-linecap="round"/>
</g>
		<g transform="matrix(1 0 0 1 -427.625 -193.105)" id="b759170a-51c3-4e2f-999d-77dec9fd6d11">
<path style="stroke: none; stroke-width: 1; stroke-dasharray: none; stroke-linecap: butt; stroke-dashoffset: 0; stroke-linejoin: miter; stroke-miterlimit: 4; is-custom-font: none; font-file-url: none; fill: rgb(238,93,32); fill-rule: nonzero; opacity: 1;" transform=" translate(-172.375, -256.89)" d="M 184 276.39 s -17.46 -36.39 -24.43 -39 c 0 0 22.09 9.43 25.61 37.8 Z" stroke-linecap="round"/>
</g>
		<g transform="matrix(1 0 0 1 -415.6595 -138.2)" id="b759170a-51c3-4e2f-999d-77dec9fd6d11">
<path style="stroke: none; stroke-width: 1; stroke-dasharray: none; stroke-linecap: butt; stroke-dashoffset: 0; stroke-linejoin: miter; stroke-miterlimit: 4; is-custom-font: none; font-file-url: none; fill: rgb(83,64,64); fill-rule: nonzero; opacity: 1;" transform=" translate(-184.3405, -311.795)" d="M 180.54 349.61 l -1 -0.25 c 9.85 -42 11.24 -68.48 3.9 -74.56 l 0.68 -0.82 C 191.86 280.42 190.64 306.58 180.54 349.61 Z" stroke-linecap="round"/>
</g>
		<g transform="matrix(1 0 0 1 -434.015 -52.615)" id="b759170a-51c3-4e2f-999d-77dec9fd6d11">
<path style="stroke: none; stroke-width: 1; stroke-dasharray: none; stroke-linecap: butt; stroke-dashoffset: 0; stroke-linejoin: miter; stroke-miterlimit: 4; is-custom-font: none; font-file-url: none; fill: rgb(83,64,64); fill-rule: nonzero; opacity: 1;" transform=" translate(-165.985, -397.38)" d="M 152.26 448.27 l -1.55 -0.43 c 1.09 -3.86 2.27 -7.79 3.53 -11.66 c 11 -33.72 20.14 -65 25.75 -88.94 l 1.27 -0.75 c -5.62 24 -14.51 56.43 -25.49 90.18 C 154.52 440.53 153.34 444.43 152.26 448.27 Z" stroke-linecap="round"/>
</g>
		<g transform="matrix(1 0 0 1 -429.3018 108.72)" id="b759170a-51c3-4e2f-999d-77dec9fd6d11">
<path style="stroke: none; stroke-width: 1; stroke-dasharray: none; stroke-linecap: butt; stroke-dashoffset: 0; stroke-linejoin: miter; stroke-miterlimit: 4; is-custom-font: none; font-file-url: none; fill: rgb(83,64,64); fill-rule: nonzero; opacity: 1;" transform=" translate(-170.6982, -558.715)" d="M 199.31 672.67 c -0.22 -0.21 -22.22 -21.87 -39.12 -60.24 a 232.37 232.37 0 0 1 -18.61 -70.77 c -3 -30.53 1.1 -65.13 10 -96.9 l 1.28 1.32 c -20 71.31 -6.19 130.34 9.23 165.4 c 16.73 38 38.48 59.45 38.7 59.66 Z" stroke-linecap="round"/>
</g>
		<g transform="matrix(1 0 0 1 -369.86 110.7103)" id="b759170a-51c3-4e2f-999d-77dec9fd6d11">
<path style="stroke: none; stroke-width: 1; stroke-dasharray: none; stroke-linecap: butt; stroke-dashoffset: 0; stroke-linejoin: miter; stroke-miterlimit: 4; is-custom-font: none; font-file-url: none; fill: rgb(238,93,32); fill-rule: nonzero; opacity: 1;" transform=" translate(-230.14, -560.7054)" d="M 223.53 558.46 s 8 -1.83 13.22 3.55 c 0 0 -3.37 3 -11.27 -0.33 Z" stroke-linecap="round"/>
</g>
		<g transform="matrix(1 0 0 1 -377.5584 115.18)" id="b759170a-51c3-4e2f-999d-77dec9fd6d11">
<path style="stroke: none; stroke-width: 1; stroke-dasharray: none; stroke-linecap: butt; stroke-dashoffset: 0; stroke-linejoin: miter; stroke-miterlimit: 4; is-custom-font: none; font-file-url: none; fill: rgb(238,93,32); fill-rule: nonzero; opacity: 1;" transform=" translate(-222.4416, -565.175)" d="M 222.66 558.39 s -4.72 6.7 -1.72 13.57 c 0 0 4.08 -2 4 -10.55 Z" stroke-linecap="round"/>
</g>
		<g transform="matrix(1 0 0 1 -374.51 99.816)" id="b759170a-51c3-4e2f-999d-77dec9fd6d11">
<path style="stroke: none; stroke-width: 1; stroke-dasharray: none; stroke-linecap: butt; stroke-dashoffset: 0; stroke-linejoin: miter; stroke-miterlimit: 4; is-custom-font: none; font-file-url: none; fill: rgb(238,93,32); fill-rule: nonzero; opacity: 1;" transform=" translate(-225.49, -549.811)" d="M 217.34 548.28 s 2.83 -6.13 16.3 1.29 c 0 0 -1.45 4.09 -7.18 4.15 S 219.05 551.3 217.34 548.28 Z" stroke-linecap="round"/>
</g>
		<g transform="matrix(1 0 0 1 -385.6636 105.4558)" id="b759170a-51c3-4e2f-999d-77dec9fd6d11">
<path style="stroke: none; stroke-width: 1; stroke-dasharray: none; stroke-linecap: butt; stroke-dashoffset: 0; stroke-linejoin: miter; stroke-miterlimit: 4; is-custom-font: none; font-file-url: none; fill: rgb(238,93,32); fill-rule: nonzero; opacity: 1;" transform=" translate(-214.3364, -555.4508)" d="M 216.48 547.91 s -6.76 -0.31 -6.38 15.06 c 0 0 4.31 0.6 7 -4.46 S 218.37 550.83 216.48 547.91 Z" stroke-linecap="round"/>
</g>
		<g transform="matrix(1 0 0 1 -379.635 84.6883)" id="b759170a-51c3-4e2f-999d-77dec9fd6d11">
<path style="stroke: none; stroke-width: 1; stroke-dasharray: none; stroke-linecap: butt; stroke-dashoffset: 0; stroke-linejoin: miter; stroke-miterlimit: 4; is-custom-font: none; font-file-url: none; fill: rgb(238,93,32); fill-rule: nonzero; opacity: 1;" transform=" translate(-220.365, -534.6833)" d="M 211.75 535.94 s 3.07 -10.69 17.23 -4.18 c 0 0 -2.47 9.79 -15.59 7.64 Z" stroke-linecap="round"/>
</g>
		<g transform="matrix(1 0 0 1 -383.67 70.2431)" id="b759170a-51c3-4e2f-999d-77dec9fd6d11">
<path style="stroke: none; stroke-width: 1; stroke-dasharray: none; stroke-linecap: butt; stroke-dashoffset: 0; stroke-linejoin: miter; stroke-miterlimit: 4; is-custom-font: none; font-file-url: none; fill: rgb(238,93,32); fill-rule: nonzero; opacity: 1;" transform=" translate(-216.33, -520.2381)" d="M 206.51 520.62 s 6.39 -11 19.64 -2.08 c 0 0 -3.75 10.2 -18.31 5.77 Z" stroke-linecap="round"/>
</g>
		<g transform="matrix(1 0 0 1 -385.615 55.4)" id="b759170a-51c3-4e2f-999d-77dec9fd6d11">
<path style="stroke: none; stroke-width: 1; stroke-dasharray: none; stroke-linecap: butt; stroke-dashoffset: 0; stroke-linejoin: miter; stroke-miterlimit: 4; is-custom-font: none; font-file-url: none; fill: rgb(238,93,32); fill-rule: nonzero; opacity: 1;" transform=" translate(-214.385, -505.395)" d="M 204 505.87 s 7.64 -10.25 20.77 -1.4 c 0 0 -7.28 9 -20.6 3.87 Z" stroke-linecap="round"/>
</g>
		<g transform="matrix(1 0 0 1 -388.105 40.8377)" id="b759170a-51c3-4e2f-999d-77dec9fd6d11">
<path style="stroke: none; stroke-width: 1; stroke-dasharray: none; stroke-linecap: butt; stroke-dashoffset: 0; stroke-linejoin: miter; stroke-miterlimit: 4; is-custom-font: none; font-file-url: none; fill: rgb(238,93,32); fill-rule: nonzero; opacity: 1;" transform=" translate(-211.895, -490.8327)" d="M 201.74 491.53 s 7.72 -10.68 20.31 -1.9 c 0 0 -8.87 9.57 -20.15 4.27 Z" stroke-linecap="round"/>
</g>
		<g transform="matrix(1 0 0 1 -388.495 26.2381)" id="b759170a-51c3-4e2f-999d-77dec9fd6d11">
<path style="stroke: none; stroke-width: 1; stroke-dasharray: none; stroke-linecap: butt; stroke-dashoffset: 0; stroke-linejoin: miter; stroke-miterlimit: 4; is-custom-font: none; font-file-url: none; fill: rgb(238,93,32); fill-rule: nonzero; opacity: 1;" transform=" translate(-211.505, -476.2331)" d="M 201.64 478.67 s 8 -13.61 19.73 -5.54 c 0 0 -8.72 11.83 -19.57 8 Z" stroke-linecap="round"/>
</g>
		<g transform="matrix(1 0 0 1 -387.32 11.6386)" id="b759170a-51c3-4e2f-999d-77dec9fd6d11">
<path style="stroke: none; stroke-width: 1; stroke-dasharray: none; stroke-linecap: butt; stroke-dashoffset: 0; stroke-linejoin: miter; stroke-miterlimit: 4; is-custom-font: none; font-file-url: none; fill: rgb(238,93,32); fill-rule: nonzero; opacity: 1;" transform=" translate(-212.68, -461.6335)" d="M 202.68 463.58 s 8.49 -13.55 20 -4.38 c 0 0 -10.34 11.94 -19.88 6.74 Z" stroke-linecap="round"/>
</g>
		<g transform="matrix(1 0 0 1 -385.085 -3.051)" id="b759170a-51c3-4e2f-999d-77dec9fd6d11">
<path style="stroke: none; stroke-width: 1; stroke-dasharray: none; stroke-linecap: butt; stroke-dashoffset: 0; stroke-linejoin: miter; stroke-miterlimit: 4; is-custom-font: none; font-file-url: none; fill: rgb(238,93,32); fill-rule: nonzero; opacity: 1;" transform=" translate(-214.915, -446.9439)" d="M 204.9 450 s 10.27 -12.88 20.28 -8.68 c 0 0 -10.69 13.66 -20.53 11.94 Z" stroke-linecap="round"/>
</g>
		<g transform="matrix(1 0 0 1 -382.66 -17.532)" id="b759170a-51c3-4e2f-999d-77dec9fd6d11">
<path style="stroke: none; stroke-width: 1; stroke-dasharray: none; stroke-linecap: butt; stroke-dashoffset: 0; stroke-linejoin: miter; stroke-miterlimit: 4; is-custom-font: none; font-file-url: none; fill: rgb(238,93,32); fill-rule: nonzero; opacity: 1;" transform=" translate(-217.34, -432.4631)" d="M 207.92 437.06 s 11.81 -15.71 19.57 -11.26 c 0 0 -8.65 12.15 -20.3 14.12 Z" stroke-linecap="round"/>
</g>
		<g transform="matrix(1 0 0 1 -378.71 -31.4172)" id="b759170a-51c3-4e2f-999d-77dec9fd6d11">
<path style="stroke: none; stroke-width: 1; stroke-dasharray: none; stroke-linecap: butt; stroke-dashoffset: 0; stroke-linejoin: miter; stroke-miterlimit: 4; is-custom-font: none; font-file-url: none; fill: rgb(238,93,32); fill-rule: nonzero; opacity: 1;" transform=" translate(-221.29, -418.5777)" d="M 212.53 422 s 10.38 -12.89 18.76 -10.42 c 0 0 -8.73 13.23 -20 14.31 Z" stroke-linecap="round"/>
</g>
		<g transform="matrix(1 0 0 1 -374.96 -46.2575)" id="b759170a-51c3-4e2f-999d-77dec9fd6d11">
<path style="stroke: none; stroke-width: 1; stroke-dasharray: none; stroke-linecap: butt; stroke-dashoffset: 0; stroke-linejoin: miter; stroke-miterlimit: 4; is-custom-font: none; font-file-url: none; fill: rgb(238,93,32); fill-rule: nonzero; opacity: 1;" transform=" translate(-225.04, -403.7374)" d="M 216.67 407.89 s 11.59 -12.45 17.11 -10.77 c 0 0 -8.06 13.51 -17.48 13.39 Z" stroke-linecap="round"/>
</g>
		<g transform="matrix(1 0 0 1 -371.435 -61.4065)" id="b759170a-51c3-4e2f-999d-77dec9fd6d11">
<path style="stroke: none; stroke-width: 1; stroke-dasharray: none; stroke-linecap: butt; stroke-dashoffset: 0; stroke-linejoin: miter; stroke-miterlimit: 4; is-custom-font: none; font-file-url: none; fill: rgb(238,93,32); fill-rule: nonzero; opacity: 1;" transform=" translate(-228.565, -388.5885)" d="M 220.76 394.86 s 9.73 -14.6 15.61 -13.92 c 0 0 -5.62 12.81 -15.51 15.32 Z" stroke-linecap="round"/>
</g>
		<g transform="matrix(1 0 0 1 -368.185 -76.67)" id="b759170a-51c3-4e2f-999d-77dec9fd6d11">
<path style="stroke: none; stroke-width: 1; stroke-dasharray: none; stroke-linecap: butt; stroke-dashoffset: 0; stroke-linejoin: miter; stroke-miterlimit: 4; is-custom-font: none; font-file-url: none; fill: rgb(238,93,32); fill-rule: nonzero; opacity: 1;" transform=" translate(-231.815, -373.325)" d="M 225 377.38 s 8.7 -11.28 13.79 -11.6 c 0 0 -6.48 14.72 -13.95 15.09 Z" stroke-linecap="round"/>
</g>
		<g transform="matrix(1 0 0 1 -369.1845 -93.495)" id="b759170a-51c3-4e2f-999d-77dec9fd6d11">
<path style="stroke: none; stroke-width: 1; stroke-dasharray: none; stroke-linecap: butt; stroke-dashoffset: 0; stroke-linejoin: miter; stroke-miterlimit: 4; is-custom-font: none; font-file-url: none; fill: rgb(238,93,32); fill-rule: nonzero; opacity: 1;" transform=" translate(-230.8155, -356.5)" d="M 227.41 365.76 L 235 343 s 1.8 20 -8.49 27 Z" stroke-linecap="round"/>
</g>
		<g transform="matrix(1 0 0 1 -369.4656 -114.865)" id="b759170a-51c3-4e2f-999d-77dec9fd6d11">
<path style="stroke: none; stroke-width: 1; stroke-dasharray: none; stroke-linecap: butt; stroke-dashoffset: 0; stroke-linejoin: miter; stroke-miterlimit: 4; is-custom-font: none; font-file-url: none; fill: rgb(238,93,32); fill-rule: nonzero; opacity: 1;" transform=" translate(-230.5344, -335.13)" d="M 229.46 341.06 s 0.26 -18.61 -0.81 -20.05 c 0 0 7.54 14.95 1.29 28.24 Z" stroke-linecap="round"/>
</g>
		<g transform="matrix(1 0 0 1 -395.455 90.5968)" id="b759170a-51c3-4e2f-999d-77dec9fd6d11">
<path style="stroke: none; stroke-width: 1; stroke-dasharray: none; stroke-linecap: butt; stroke-dashoffset: 0; stroke-linejoin: miter; stroke-miterlimit: 4; is-custom-font: none; font-file-url: none; fill: rgb(238,93,32); fill-rule: nonzero; opacity: 1;" transform=" translate(-204.545, -540.5919)" d="M 211.38 535.72 s -9.82 -5.22 -15 9.5 c 0 0 8.77 5 16.33 -5.92 Z" stroke-linecap="round"/>
</g>
		<g transform="matrix(1 0 0 1 -401.45 75.7043)" id="b759170a-51c3-4e2f-999d-77dec9fd6d11">
<path style="stroke: none; stroke-width: 1; stroke-dasharray: none; stroke-linecap: butt; stroke-dashoffset: 0; stroke-linejoin: miter; stroke-miterlimit: 4; is-custom-font: none; font-file-url: none; fill: rgb(238,93,32); fill-rule: nonzero; opacity: 1;" transform=" translate(-198.55, -525.6993)" d="M 206.17 520 s -11.93 -4.5 -16.54 10.81 c 0 0 9.35 5.53 17.84 -7.1 Z" stroke-linecap="round"/>
</g>
		<g transform="matrix(1 0 0 1 -406.78 57.6079)" id="b759170a-51c3-4e2f-999d-77dec9fd6d11">
<path style="stroke: none; stroke-width: 1; stroke-dasharray: none; stroke-linecap: butt; stroke-dashoffset: 0; stroke-linejoin: miter; stroke-miterlimit: 4; is-custom-font: none; font-file-url: none; fill: rgb(238,93,32); fill-rule: nonzero; opacity: 1;" transform=" translate(-193.22, -507.6029)" d="M 203.52 506.79 s -8.93 -9.13 -20.77 1.4 c 0 0 8.43 8 20.94 1.08 Z" stroke-linecap="round"/>
</g>
		<g transform="matrix(1 0 0 1 -408.65 42.0591)" id="b759170a-51c3-4e2f-999d-77dec9fd6d11">
<path style="stroke: none; stroke-width: 1; stroke-dasharray: none; stroke-linecap: butt; stroke-dashoffset: 0; stroke-linejoin: miter; stroke-miterlimit: 4; is-custom-font: none; font-file-url: none; fill: rgb(238,93,32); fill-rule: nonzero; opacity: 1;" transform=" translate(-191.35, -492.0541)" d="M 201.46 491.55 s -9.07 -9.55 -20.38 0.83 c 0 0 10.07 8.29 20.54 1.54 Z" stroke-linecap="round"/>
</g>
		<g transform="matrix(1 0 0 1 -407.965 25.9289)" id="b759170a-51c3-4e2f-999d-77dec9fd6d11">
<path style="stroke: none; stroke-width: 1; stroke-dasharray: none; stroke-linecap: butt; stroke-dashoffset: 0; stroke-linejoin: miter; stroke-miterlimit: 4; is-custom-font: none; font-file-url: none; fill: rgb(238,93,32); fill-rule: nonzero; opacity: 1;" transform=" translate(-192.035, -475.9239)" d="M 201.66 479 s -6.87 -14.19 -19.25 -7.06 c 0 0 7.78 12.47 18.89 9.52 Z" stroke-linecap="round"/>
</g>
		<g transform="matrix(1 0 0 1 -406.295 10.5128)" id="b759170a-51c3-4e2f-999d-77dec9fd6d11">
<path style="stroke: none; stroke-width: 1; stroke-dasharray: none; stroke-linecap: butt; stroke-dashoffset: 0; stroke-linejoin: miter; stroke-miterlimit: 4; is-custom-font: none; font-file-url: none; fill: rgb(238,93,32); fill-rule: nonzero; opacity: 1;" transform=" translate(-193.705, -460.5078)" d="M 203.41 463.45 S 196.56 449 184 456.76 c 0 0 8.86 13.07 18.95 9 Z" stroke-linecap="round"/>
</g>
		<g transform="matrix(1 0 0 1 -400.97 -6.91)" id="b759170a-51c3-4e2f-999d-77dec9fd6d11">
<path style="stroke: none; stroke-width: 1; stroke-dasharray: none; stroke-linecap: butt; stroke-dashoffset: 0; stroke-linejoin: miter; stroke-miterlimit: 4; is-custom-font: none; font-file-url: none; fill: rgb(238,93,32); fill-rule: nonzero; opacity: 1;" transform=" translate(-199.03, -443.085)" d="M 206.15 450 s -3.41 -16.12 -14.24 -16.85 c 0 0 3.43 17 13 19.87 Z" stroke-linecap="round"/>
</g>
		<g transform="matrix(1 0 0 1 -397.4 -21.32)" id="b759170a-51c3-4e2f-999d-77dec9fd6d11">
<path style="stroke: none; stroke-width: 1; stroke-dasharray: none; stroke-linecap: butt; stroke-dashoffset: 0; stroke-linejoin: miter; stroke-miterlimit: 4; is-custom-font: none; font-file-url: none; fill: rgb(238,93,32); fill-rule: nonzero; opacity: 1;" transform=" translate(-202.6, -428.675)" d="M 208.2 437.07 S 206 417.54 197 417.44 c 0 0 1.3 14.86 10.34 22.47 Z" stroke-linecap="round"/>
</g>
		<g transform="matrix(1 0 0 1 -392.775 -35.38)" id="b759170a-51c3-4e2f-999d-77dec9fd6d11">
<path style="stroke: none; stroke-width: 1; stroke-dasharray: none; stroke-linecap: butt; stroke-dashoffset: 0; stroke-linejoin: miter; stroke-miterlimit: 4; is-custom-font: none; font-file-url: none; fill: rgb(238,93,32); fill-rule: nonzero; opacity: 1;" transform=" translate(-207.225, -414.615)" d="M 213.41 421.36 s -3.75 -16.12 -12.37 -17.54 c 0 0 2.12 15.71 11.81 21.59 Z" stroke-linecap="round"/>
</g>
		<g transform="matrix(1 0 0 1 -385.7611 -50.48)" id="b759170a-51c3-4e2f-999d-77dec9fd6d11">
<path style="stroke: none; stroke-width: 1; stroke-dasharray: none; stroke-linecap: butt; stroke-dashoffset: 0; stroke-linejoin: miter; stroke-miterlimit: 4; is-custom-font: none; font-file-url: none; fill: rgb(238,93,32); fill-rule: nonzero; opacity: 1;" transform=" translate(-214.2389, -399.515)" d="M 217.68 407.94 s -1.23 -17 -6.58 -19.12 c 0 0 -2.19 15.59 5.22 21.39 Z" stroke-linecap="round"/>
</g>
		<g transform="matrix(1 0 0 1 -382.5869 -64.525)" id="b759170a-51c3-4e2f-999d-77dec9fd6d11">
<path style="stroke: none; stroke-width: 1; stroke-dasharray: none; stroke-linecap: butt; stroke-dashoffset: 0; stroke-linejoin: miter; stroke-miterlimit: 4; is-custom-font: none; font-file-url: none; fill: rgb(238,93,32); fill-rule: nonzero; opacity: 1;" transform=" translate(-217.4131, -385.47)" d="M 221.15 394.64 s -1.9 -17.44 -7.44 -19.54 c 0 0 -0.91 14 6.71 20.74 Z" stroke-linecap="round"/>
</g>
		<g transform="matrix(1 0 0 1 -376.9892 -78.43)" id="b759170a-51c3-4e2f-999d-77dec9fd6d11">
<path style="stroke: none; stroke-width: 1; stroke-dasharray: none; stroke-linecap: butt; stroke-dashoffset: 0; stroke-linejoin: miter; stroke-miterlimit: 4; is-custom-font: none; font-file-url: none; fill: rgb(238,93,32); fill-rule: nonzero; opacity: 1;" transform=" translate(-223.0108, -371.565)" d="M 225.83 378.72 s -1 -14.21 -5 -17.3 c 0 0 -2.77 15.84 3.23 20.29 Z" stroke-linecap="round"/>
</g>
		<g transform="matrix(1 0 0 1 -375.8869 -94.485)" id="b759170a-51c3-4e2f-999d-77dec9fd6d11">
<path style="stroke: none; stroke-width: 1; stroke-dasharray: none; stroke-linecap: butt; stroke-dashoffset: 0; stroke-linejoin: miter; stroke-miterlimit: 4; is-custom-font: none; font-file-url: none; fill: rgb(238,93,32); fill-rule: nonzero; opacity: 1;" transform=" translate(-224.1131, -355.51)" d="M 226.91 365.09 l -5.32 -23.42 s -3.77 19.74 5.78 27.68 Z" stroke-linecap="round"/>
</g>
		<g transform="matrix(1 0 0 1 -377.1352 -113.48)" id="b759170a-51c3-4e2f-999d-77dec9fd6d11">
<path style="stroke: none; stroke-width: 1; stroke-dasharray: none; stroke-linecap: butt; stroke-dashoffset: 0; stroke-linejoin: miter; stroke-miterlimit: 4; is-custom-font: none; font-file-url: none; fill: rgb(238,93,32); fill-rule: nonzero; opacity: 1;" transform=" translate(-222.8648, -336.515)" d="M 226.06 341.52 s -10.65 -15.27 -10.57 -17.06 c 0 0 2.13 16.61 14.75 24.11 Z" stroke-linecap="round"/>
</g>
		<g transform="matrix(1 0 0 1 -380.17 -125.03)" id="b759170a-51c3-4e2f-999d-77dec9fd6d11">
<path style="stroke: none; stroke-width: 1; stroke-dasharray: none; stroke-linecap: butt; stroke-dashoffset: 0; stroke-linejoin: miter; stroke-miterlimit: 4; is-custom-font: none; font-file-url: none; fill: rgb(238,93,32); fill-rule: nonzero; opacity: 1;" transform=" translate(-219.83, -324.965)" d="M 226.86 336.74 s -10.56 -22 -14.77 -23.55 c 0 0 13.36 5.7 15.48 22.86 Z" stroke-linecap="round"/>
</g>
		<g transform="matrix(1 0 0 1 -372.9253 -91.855)" id="b759170a-51c3-4e2f-999d-77dec9fd6d11">
<path style="stroke: none; stroke-width: 1; stroke-dasharray: none; stroke-linecap: butt; stroke-dashoffset: 0; stroke-linejoin: miter; stroke-miterlimit: 4; is-custom-font: none; font-file-url: none; fill: rgb(83,64,64); fill-rule: nonzero; opacity: 1;" transform=" translate(-227.0747, -358.14)" d="M 224.79 381 l -0.63 -0.15 c 6 -25.39 6.8 -41.4 2.36 -45.07 l 0.41 -0.5 C 231.64 339.18 230.9 355 224.79 381 Z" stroke-linecap="round"/>
</g>
		<g transform="matrix(1 0 0 1 -384.005 -40.085)" id="b759170a-51c3-4e2f-999d-77dec9fd6d11">
<path style="stroke: none; stroke-width: 1; stroke-dasharray: none; stroke-linecap: butt; stroke-dashoffset: 0; stroke-linejoin: miter; stroke-miterlimit: 4; is-custom-font: none; font-file-url: none; fill: rgb(83,64,64); fill-rule: nonzero; opacity: 1;" transform=" translate(-215.995, -409.91)" d="M 207.7 440.66 l -0.94 -0.27 c 0.66 -2.33 1.38 -4.7 2.14 -7 c 6.63 -20.39 12.17 -39.3 15.56 -53.77 l 0.77 -0.46 c -3.4 14.5 -8.77 34.12 -15.41 54.53 C 209.06 436 208.35 438.33 207.7 440.66 Z" stroke-linecap="round"/>
</g>
		<g transform="matrix(1 0 0 1 -381.1522 57.43)" id="b759170a-51c3-4e2f-999d-77dec9fd6d11">
<path style="stroke: none; stroke-width: 1; stroke-dasharray: none; stroke-linecap: butt; stroke-dashoffset: 0; stroke-linejoin: miter; stroke-miterlimit: 4; is-custom-font: none; font-file-url: none; fill: rgb(83,64,64); fill-rule: nonzero; opacity: 1;" transform=" translate(-218.8478, -507.425)" d="M 236.14 576.32 c -0.13 -0.13 -13.43 -13.22 -23.65 -36.42 a 140.72 140.72 0 0 1 -11.25 -42.78 c -1.83 -18.46 0.67 -39.38 6.06 -58.59 l 0.77 0.8 c -12.09 43.11 -3.74 78.8 5.58 100 c 10.12 23 23.26 35.93 23.4 36.06 Z" stroke-linecap="round"/>
</g>
		<g transform="matrix(1 0 0 1 -376.8802 186.22)" id="b759170a-51c3-4e2f-999d-77dec9fd6d11">
<path style="stroke: none; stroke-width: 1; stroke-dasharray: none; stroke-linecap: butt; stroke-dashoffset: 0; stroke-linejoin: miter; stroke-miterlimit: 4; is-custom-font: none; font-file-url: none; fill: rgb(235,192,192); fill-rule: nonzero; opacity: 1;" transform=" translate(-223.1198, -636.215)" d="M 266.22 626.32 a 38.24 38.24 0 0 0 -7.5 2.14 C 204.78 650 205.68 791 205.68 791 H 189.8 s -5 -60.51 -26.79 -146.84 c -19.63 -77.67 60.88 -147.28 77.23 -160.48 c 1.84 -1.47 2.86 -2.25 2.86 -2.25 C 324.19 511.23 266.22 626.32 266.22 626.32 Z" stroke-linecap="round"/>
</g>
		<g transform="matrix(1 0 0 1 -395.5016 186.23)" id="b759170a-51c3-4e2f-999d-77dec9fd6d11">
<path style="stroke: none; stroke-width: 1; stroke-dasharray: none; stroke-linecap: butt; stroke-dashoffset: 0; stroke-linejoin: miter; stroke-miterlimit: 4; is-custom-font: none; font-file-url: none; fill: rgb(255,255,255); fill-rule: nonzero; opacity: 0.2;" transform=" translate(-204.4985, -636.225)" d="M 249 483.88 c -1.87 -0.86 -3.8 -1.68 -5.85 -2.43 c 0 0 -1 0.78 -2.86 2.25 c -16.35 13.2 -96.86 82.81 -77.23 160.48 C 184.85 730.51 189.8 791 189.8 791 h 8.93 s -4.95 -60.51 -26.79 -146.84 C 152.39 566.85 232.12 497.5 249 483.88 Z" stroke-linecap="round"/>
</g>
		<g transform="matrix(1 0 0 1 -126.3572 186.22)" id="b759170a-51c3-4e2f-999d-77dec9fd6d11">
<path style="stroke: none; stroke-width: 1; stroke-dasharray: none; stroke-linecap: butt; stroke-dashoffset: 0; stroke-linejoin: miter; stroke-miterlimit: 4; is-custom-font: none; font-file-url: none; fill: rgb(235,192,192); fill-rule: nonzero; opacity: 1;" transform=" translate(-473.6428, -636.215)" d="M 533.76 644.18 C 511.92 730.51 507 791 507 791 H 491.09 s 1 -147.36 -56.73 -163.81 a 31.53 31.53 0 0 0 -3.81 -0.89 s -58 -115.09 23.12 -144.87 c 0 0 0.82 0.61 2.3 1.8 C 471 495.26 553.61 565.61 533.76 644.18 Z" stroke-linecap="round"/>
</g>
		<g transform="matrix(1 0 0 1 -336.7337 104.96)" id="b759170a-51c3-4e2f-999d-77dec9fd6d11">
<path style="stroke: none; stroke-width: 1; stroke-dasharray: none; stroke-linecap: butt; stroke-dashoffset: 0; stroke-linejoin: miter; stroke-miterlimit: 4; is-custom-font: none; font-file-url: none; fill: rgb(0,0,0); fill-rule: nonzero; opacity: 0.1;" transform=" translate(-263.2663, -554.955)" d="M 266.22 626.32 a 38.24 38.24 0 0 0 -7.5 2.14 A 979.21 979.21 0 0 1 240.24 483.7 c 1.84 -1.47 2.86 -2.25 2.86 -2.25 C 324.19 511.23 266.22 626.32 266.22 626.32 Z" stroke-linecap="round"/>
</g>
		<g transform="matrix(1 0 0 1 -166.7528 104.3741)" id="b759170a-51c3-4e2f-999d-77dec9fd6d11">
<path style="stroke: none; stroke-width: 1; stroke-dasharray: none; stroke-linecap: butt; stroke-dashoffset: 0; stroke-linejoin: miter; stroke-miterlimit: 4; is-custom-font: none; font-file-url: none; fill: rgb(0,0,0); fill-rule: nonzero; opacity: 0.1;" transform=" translate(-433.2473, -554.3691)" d="M 456 483.25 a 901 901 0 0 1 -21.61 144 a 31.53 31.53 0 0 0 -3.81 -0.89 s -58 -115.09 23.12 -144.87 C 453.67 481.45 454.49 482.06 456 483.25 Z" stroke-linecap="round"/>
</g>
		<g transform="matrix(1 0 0 1 -251.586 -55.4761)" id="b759170a-51c3-4e2f-999d-77dec9fd6d11">
<path style="stroke: none; stroke-width: 1; stroke-dasharray: none; stroke-linecap: butt; stroke-dashoffset: 0; stroke-linejoin: miter; stroke-miterlimit: 4; is-custom-font: none; font-file-url: none; fill: rgb(227,232,244); fill-rule: nonzero; opacity: 1;" transform=" translate(-348.414, -394.5189)" d="M 426.31 648.14 q -8.4 33.14 -19.69 68 s -35.72 37.21 -122 0 c 0 0 -8.62 -24.3 -18.1 -65.61 c -20.87 -90.83 -45.9 -263.92 7.43 -441.71 A 661.75 661.75 0 0 1 341.13 56.36 s 45.56 52.31 79 152.43 S 474.85 456.86 426.31 648.14 Z" stroke-linecap="round"/>
</g>
		<g transform="matrix(1 0 0 1 -251.62 -100.035)" id="b759170a-51c3-4e2f-999d-77dec9fd6d11">
<circle style="stroke: none; stroke-width: 1; stroke-dasharray: none; stroke-linecap: butt; stroke-dashoffset: 0; stroke-linejoin: miter; stroke-miterlimit: 4; is-custom-font: none; font-file-url: none; fill: rgb(235,192,192); fill-rule: nonzero; opacity: 1;" cx="0" cy="0" r="71.63"/>
</g>
		<g transform="matrix(1 0 0 1 -251.615 -99.9903)" id="b759170a-51c3-4e2f-999d-77dec9fd6d11">
<path style="stroke: none; stroke-width: 1; stroke-dasharray: none; stroke-linecap: butt; stroke-dashoffset: 0; stroke-linejoin: miter; stroke-miterlimit: 4; is-custom-font: none; font-file-url: none; fill: rgb(238,93,32); fill-rule: nonzero; opacity: 1;" transform=" translate(-348.385, -350.0047)" d="M 399.18 350 a 50.8 50.8 0 0 1 -83 39.29 a 51.33 51.33 0 0 1 -9.52 -10.33 a 50 50 0 0 1 -3.28 -5.39 A 50.7 50.7 0 0 1 297.59 350 c 0 -0.41 0 -0.81 0 -1.21 a 50.86 50.86 0 0 1 37 -47.72 a 52.53 52.53 0 0 1 12.24 -1.86 h 1.52 A 50.8 50.8 0 0 1 399.18 350 Z" stroke-linecap="round"/>
</g>
		<g transform="matrix(1 0 0 1 -252.99 -308.7733)" id="b759170a-51c3-4e2f-999d-77dec9fd6d11">
<path style="stroke: none; stroke-width: 1; stroke-dasharray: none; stroke-linecap: butt; stroke-dashoffset: 0; stroke-linejoin: miter; stroke-miterlimit: 4; is-custom-font: none; font-file-url: none; fill: rgb(235,192,192); fill-rule: nonzero; opacity: 1;" transform=" translate(-347.01, -141.2217)" d="M 420.12 208.79 c -81.27 38.91 -146.22 0 -146.22 0 A 661.75 661.75 0 0 1 341.13 56.36 S 386.69 108.67 420.12 208.79 Z" stroke-linecap="round"/>
</g>
		<g transform="matrix(1 0 0 1 -253.605 240.3989)" id="b759170a-51c3-4e2f-999d-77dec9fd6d11">
<path style="stroke: none; stroke-width: 1; stroke-dasharray: none; stroke-linecap: butt; stroke-dashoffset: 0; stroke-linejoin: miter; stroke-miterlimit: 4; is-custom-font: none; font-file-url: none; fill: rgb(235,192,192); fill-rule: nonzero; opacity: 1;" transform=" translate(-346.395, -690.3939)" d="M 426.31 648.14 q -5.7 22.44 -12.7 45.65 q -3.32 11.07 -7 22.32 s -35.72 37.21 -122 0 c 0 0 -2.8 -7.89 -7 -22.32 c -3.14 -10.9 -7.05 -25.51 -11.13 -43.29 c 0 0 32.12 13.71 77.71 13.71 A 214.11 214.11 0 0 0 426.31 648.14 Z" stroke-linecap="round"/>
</g>
		<g transform="matrix(1 0 0 1 -254.39 263.2239)" id="b759170a-51c3-4e2f-999d-77dec9fd6d11">
<path style="stroke: none; stroke-width: 1; stroke-dasharray: none; stroke-linecap: butt; stroke-dashoffset: 0; stroke-linejoin: miter; stroke-miterlimit: 4; is-custom-font: none; font-file-url: none; fill: rgb(227,232,244); fill-rule: nonzero; opacity: 1;" transform=" translate(-345.61, -713.2189)" d="M 413.61 693.79 q -3.32 11.07 -7 22.32 s -35.72 37.21 -122 0 c 0 0 -2.8 -7.89 -7 -22.32 C 277.6 693.79 365.54 719.09 413.61 693.79 Z" stroke-linecap="round"/>
</g>
		<g transform="matrix(1 0 0 1 -277.755 -113.675)" id="b759170a-51c3-4e2f-999d-77dec9fd6d11">
<path style="stroke: none; stroke-width: 1; stroke-dasharray: none; stroke-linecap: butt; stroke-dashoffset: 0; stroke-linejoin: miter; stroke-miterlimit: 4; is-custom-font: none; font-file-url: none; fill: rgb(255,255,255); fill-rule: nonzero; opacity: 0.2;" transform=" translate(-322.245, -336.32)" d="M 334.62 301 l -0.11 0.08 l -36.9 47.64 c 0 0.4 0 0.8 0 1.21 a 50.7 50.7 0 0 0 5.79 23.57 l 43.48 -74.36 Z" stroke-linecap="round"/>
</g>
		<g transform="matrix(1 0 0 1 -273.47 -85.23)" id="b759170a-51c3-4e2f-999d-77dec9fd6d11">
<path style="stroke: none; stroke-width: 1; stroke-dasharray: none; stroke-linecap: butt; stroke-dashoffset: 0; stroke-linejoin: miter; stroke-miterlimit: 4; is-custom-font: none; font-file-url: none; fill: rgb(255,255,255); fill-rule: nonzero; opacity: 0.2;" transform=" translate(-326.53, -364.765)" d="M 346.4 344 l -30.22 45.25 a 51.33 51.33 0 0 1 -9.52 -10.33 l 36 -38.64 Z" stroke-linecap="round"/>
</g>
		<g transform="matrix(1 0 0 1 -296.9729 -55.4866)" id="b759170a-51c3-4e2f-999d-77dec9fd6d11">
<path style="stroke: none; stroke-width: 1; stroke-dasharray: none; stroke-linecap: butt; stroke-dashoffset: 0; stroke-linejoin: miter; stroke-miterlimit: 4; is-custom-font: none; font-file-url: none; fill: rgb(255,255,255); fill-rule: nonzero; opacity: 0.2;" transform=" translate(-303.0272, -394.5084)" d="M 303.92 716.12 s -8.62 -24.31 -18.1 -65.61 c -20.87 -90.84 -45.9 -263.93 7.43 -441.72 A 664.18 664.18 0 0 1 352.1 70.7 c -6.77 -9.49 -11 -14.33 -11 -14.33 A 661.68 661.68 0 0 0 273.9 208.79 c -53.33 177.79 -28.3 350.88 -7.43 441.72 c 9.48 41.3 18.1 65.61 18.1 65.61 c 34.09 14.69 60.28 17.77 79.5 16.13 C 347.65 731 327.71 726.37 303.92 716.12 Z" stroke-linecap="round"/>
</g>
		<g transform="matrix(1 0 0 1 408.79 229.06)" id="b759170a-51c3-4e2f-999d-77dec9fd6d11">
<path style="stroke: rgb(83,84,97); stroke-width: 2; stroke-dasharray: none; stroke-linecap: butt; stroke-dashoffset: 0; stroke-linejoin: miter; stroke-miterlimit: 10; is-custom-font: none; font-file-url: none; fill: none; fill-rule: nonzero; opacity: 1;" transform=" translate(-1008.79, -679.055)" d="M 966.7 785.29 s 46.74 -58.16 43.64 -116.41 a 113.05 113.05 0 0 1 18.54 -69.06 a 190.19 190.19 0 0 1 22 -27" stroke-linecap="round"/>
</g>
		<g transform="matrix(1 0 0 1 463.82 100.0652)" id="b759170a-51c3-4e2f-999d-77dec9fd6d11">
<path style="stroke: none; stroke-width: 1; stroke-dasharray: none; stroke-linecap: butt; stroke-dashoffset: 0; stroke-linejoin: miter; stroke-miterlimit: 4; is-custom-font: none; font-file-url: none; fill: rgb(238,93,32); fill-rule: nonzero; opacity: 1;" transform=" translate(-1063.82, -550.0601)" d="M 1049.11 536.14 c -3.34 8.11 1.66 37.68 1.66 37.68 s 24.37 -17.48 27.71 -25.59 a 15.88 15.88 0 0 0 -29.37 -12.09 Z" stroke-linecap="round"/>
</g>
		<g transform="matrix(1 0 0 1 421.8935 127.0466)" id="b759170a-51c3-4e2f-999d-77dec9fd6d11">
<path style="stroke: none; stroke-width: 1; stroke-dasharray: none; stroke-linecap: butt; stroke-dashoffset: 0; stroke-linejoin: miter; stroke-miterlimit: 4; is-custom-font: none; font-file-url: none; fill: rgb(238,93,32); fill-rule: nonzero; opacity: 1;" transform=" translate(-1021.8935, -577.0417)" d="M 1006.33 571.08 c 1.61 8.62 21.88 30.72 21.88 30.72 s 11 -27.91 9.35 -36.54 a 15.88 15.88 0 0 0 -31.23 5.82 Z" stroke-linecap="round"/>
</g>
		<g transform="matrix(1 0 0 1 391.1725 193.0375)" id="b759170a-51c3-4e2f-999d-77dec9fd6d11">
<path style="stroke: none; stroke-width: 1; stroke-dasharray: none; stroke-linecap: butt; stroke-dashoffset: 0; stroke-linejoin: miter; stroke-miterlimit: 4; is-custom-font: none; font-file-url: none; fill: rgb(238,93,32); fill-rule: nonzero; opacity: 1;" transform=" translate(-991.1725, -643.0324)" d="M 975.79 648.3 c 5.74 6.63 34.4 15.48 34.4 15.48 s -4.64 -29.63 -10.38 -36.27 a 15.88 15.88 0 0 0 -24 20.79 Z" stroke-linecap="round"/>
</g>
		<g transform="matrix(1 0 0 1 380.34 260.4192)" id="b759170a-51c3-4e2f-999d-77dec9fd6d11">
<path style="stroke: none; stroke-width: 1; stroke-dasharray: none; stroke-linecap: butt; stroke-dashoffset: 0; stroke-linejoin: miter; stroke-miterlimit: 4; is-custom-font: none; font-file-url: none; fill: rgb(238,93,32); fill-rule: nonzero; opacity: 1;" transform=" translate(-980.34, -710.4142)" d="M 965.84 711.93 c 4.53 7.51 31.28 21.07 31.28 21.07 s 0.44 -30 -4.09 -37.5 a 15.88 15.88 0 1 0 -27.19 16.43 Z" stroke-linecap="round"/>
</g>
		<g transform="matrix(1 0 0 1 444.5668 151.2829)" id="b759170a-51c3-4e2f-999d-77dec9fd6d11">
<path style="stroke: none; stroke-width: 1; stroke-dasharray: none; stroke-linecap: butt; stroke-dashoffset: 0; stroke-linejoin: miter; stroke-miterlimit: 4; is-custom-font: none; font-file-url: none; fill: rgb(238,93,32); fill-rule: nonzero; opacity: 1;" transform=" translate(-1044.5668, -601.2779)" d="M 1058.4 616.07 c -8.14 3.25 -37.66 -2.05 -37.66 -2.05 s 17.72 -24.19 25.87 -27.45 a 15.88 15.88 0 0 1 11.79 29.5 Z" stroke-linecap="round"/>
</g>
		<g transform="matrix(1 0 0 1 435.3323 224.5043)" id="b759170a-51c3-4e2f-999d-77dec9fd6d11">
<path style="stroke: none; stroke-width: 1; stroke-dasharray: none; stroke-linecap: butt; stroke-dashoffset: 0; stroke-linejoin: miter; stroke-miterlimit: 4; is-custom-font: none; font-file-url: none; fill: rgb(238,93,32); fill-rule: nonzero; opacity: 1;" transform=" translate(-1035.3323, -674.4992)" d="M 1045.82 690.34 c -8.74 0.67 -35.32 -13.22 -35.32 -13.22 s 24.14 -17.79 32.89 -18.46 a 15.89 15.89 0 0 1 2.43 31.68 Z" stroke-linecap="round"/>
</g>
		<g transform="matrix(1 0 0 1 411.1694 295.3645)" id="b759170a-51c3-4e2f-999d-77dec9fd6d11">
<path style="stroke: none; stroke-width: 1; stroke-dasharray: none; stroke-linecap: butt; stroke-dashoffset: 0; stroke-linejoin: miter; stroke-miterlimit: 4; is-custom-font: none; font-file-url: none; fill: rgb(238,93,32); fill-rule: nonzero; opacity: 1;" transform=" translate(-1011.1694, -745.3595)" d="M 1023.69 760.84 c -8.51 2.14 -37.05 -7.06 -37.05 -7.06 s 20.79 -21.61 29.3 -23.74 a 15.88 15.88 0 1 1 7.75 30.8 Z" stroke-linecap="round"/>
</g>
		<g transform="matrix(1 0 0 1 463.82 100.0652)" id="b759170a-51c3-4e2f-999d-77dec9fd6d11">
<path style="stroke: none; stroke-width: 1; stroke-dasharray: none; stroke-linecap: butt; stroke-dashoffset: 0; stroke-linejoin: miter; stroke-miterlimit: 4; is-custom-font: none; font-file-url: none; fill: rgb(0,0,0); fill-rule: nonzero; opacity: 0.25;" transform=" translate(-1063.82, -550.0601)" d="M 1049.11 536.14 c -3.34 8.11 1.66 37.68 1.66 37.68 s 24.37 -17.48 27.71 -25.59 a 15.88 15.88 0 0 0 -29.37 -12.09 Z" stroke-linecap="round"/>
</g>
		<g transform="matrix(1 0 0 1 421.8935 127.0466)" id="b759170a-51c3-4e2f-999d-77dec9fd6d11">
<path style="stroke: none; stroke-width: 1; stroke-dasharray: none; stroke-linecap: butt; stroke-dashoffset: 0; stroke-linejoin: miter; stroke-miterlimit: 4; is-custom-font: none; font-file-url: none; fill: rgb(0,0,0); fill-rule: nonzero; opacity: 0.25;" transform=" translate(-1021.8935, -577.0417)" d="M 1006.33 571.08 c 1.61 8.62 21.88 30.72 21.88 30.72 s 11 -27.91 9.35 -36.54 a 15.88 15.88 0 0 0 -31.23 5.82 Z" stroke-linecap="round"/>
</g>
		<g transform="matrix(1 0 0 1 391.1725 193.0375)" id="b759170a-51c3-4e2f-999d-77dec9fd6d11">
<path style="stroke: none; stroke-width: 1; stroke-dasharray: none; stroke-linecap: butt; stroke-dashoffset: 0; stroke-linejoin: miter; stroke-miterlimit: 4; is-custom-font: none; font-file-url: none; fill: rgb(0,0,0); fill-rule: nonzero; opacity: 0.25;" transform=" translate(-991.1725, -643.0324)" d="M 975.79 648.3 c 5.74 6.63 34.4 15.48 34.4 15.48 s -4.64 -29.63 -10.38 -36.27 a 15.88 15.88 0 0 0 -24 20.79 Z" stroke-linecap="round"/>
</g>
		<g transform="matrix(1 0 0 1 380.34 260.4192)" id="b759170a-51c3-4e2f-999d-77dec9fd6d11">
<path style="stroke: none; stroke-width: 1; stroke-dasharray: none; stroke-linecap: butt; stroke-dashoffset: 0; stroke-linejoin: miter; stroke-miterlimit: 4; is-custom-font: none; font-file-url: none; fill: rgb(0,0,0); fill-rule: nonzero; opacity: 0.25;" transform=" translate(-980.34, -710.4142)" d="M 965.84 711.93 c 4.53 7.51 31.28 21.07 31.28 21.07 s 0.44 -30 -4.09 -37.5 a 15.88 15.88 0 1 0 -27.19 16.43 Z" stroke-linecap="round"/>
</g>
		<g transform="matrix(1 0 0 1 444.5668 151.2829)" id="b759170a-51c3-4e2f-999d-77dec9fd6d11">
<path style="stroke: none; stroke-width: 1; stroke-dasharray: none; stroke-linecap: butt; stroke-dashoffset: 0; stroke-linejoin: miter; stroke-miterlimit: 4; is-custom-font: none; font-file-url: none; fill: rgb(0,0,0); fill-rule: nonzero; opacity: 0.25;" transform=" translate(-1044.5668, -601.2779)" d="M 1058.4 616.07 c -8.14 3.25 -37.66 -2.05 -37.66 -2.05 s 17.72 -24.19 25.87 -27.45 a 15.88 15.88 0 0 1 11.79 29.5 Z" stroke-linecap="round"/>
</g>
		<g transform="matrix(1 0 0 1 435.3323 224.5043)" id="b759170a-51c3-4e2f-999d-77dec9fd6d11">
<path style="stroke: none; stroke-width: 1; stroke-dasharray: none; stroke-linecap: butt; stroke-dashoffset: 0; stroke-linejoin: miter; stroke-miterlimit: 4; is-custom-font: none; font-file-url: none; fill: rgb(0,0,0); fill-rule: nonzero; opacity: 0.25;" transform=" translate(-1035.3323, -674.4992)" d="M 1045.82 690.34 c -8.74 0.67 -35.32 -13.22 -35.32 -13.22 s 24.14 -17.79 32.89 -18.46 a 15.89 15.89 0 0 1 2.43 31.68 Z" stroke-linecap="round"/>
</g>
		<g transform="matrix(1 0 0 1 411.1694 295.3645)" id="b759170a-51c3-4e2f-999d-77dec9fd6d11">
<path style="stroke: none; stroke-width: 1; stroke-dasharray: none; stroke-linecap: butt; stroke-dashoffset: 0; stroke-linejoin: miter; stroke-miterlimit: 4; is-custom-font: none; font-file-url: none; fill: rgb(0,0,0); fill-rule: nonzero; opacity: 0.25;" transform=" translate(-1011.1694, -745.3595)" d="M 1023.69 760.84 c -8.51 2.14 -37.05 -7.06 -37.05 -7.06 s 20.79 -21.61 29.3 -23.74 a 15.88 15.88 0 1 1 7.75 30.8 Z" stroke-linecap="round"/>
</g>
		<g transform="matrix(1 0 0 1 448.625 252.8)" id="b759170a-51c3-4e2f-999d-77dec9fd6d11">
<path style="stroke: rgb(83,84,97); stroke-width: 2; stroke-dasharray: none; stroke-linecap: butt; stroke-dashoffset: 0; stroke-linejoin: miter; stroke-miterlimit: 10; is-custom-font: none; font-file-url: none; fill: none; fill-rule: nonzero; opacity: 1;" transform=" translate(-1048.625, -702.795)" d="M 967.12 782.86 s 66.3 -34.24 87.07 -88.74 a 113 113 0 0 1 44.94 -55.63 a 189.91 189.91 0 0 1 31 -15.76" stroke-linecap="round"/>
</g>
		<g transform="matrix(1 0 0 1 549.9808 153.8117)" id="b759170a-51c3-4e2f-999d-77dec9fd6d11">
<path style="stroke: none; stroke-width: 1; stroke-dasharray: none; stroke-linecap: butt; stroke-dashoffset: 0; stroke-linejoin: miter; stroke-miterlimit: 4; is-custom-font: none; font-file-url: none; fill: rgb(238,93,32); fill-rule: nonzero; opacity: 1;" transform=" translate(-1149.9808, -603.8067)" d="M 1143.42 588.46 c -6.34 6.07 -13.75 35.13 -13.75 35.13 s 29.36 -6.11 35.7 -12.17 a 15.88 15.88 0 0 0 -21.95 -23 Z" stroke-linecap="round"/>
</g>
		<g transform="matrix(1 0 0 1 505.6827 165.4948)" id="b759170a-51c3-4e2f-999d-77dec9fd6d11">
<path style="stroke: none; stroke-width: 1; stroke-dasharray: none; stroke-linecap: butt; stroke-dashoffset: 0; stroke-linejoin: miter; stroke-miterlimit: 4; is-custom-font: none; font-file-url: none; fill: rgb(238,93,32); fill-rule: nonzero; opacity: 1;" transform=" translate(-1105.6827, -615.4899)" d="M 1090.16 603.07 c -2 8.54 7.55 37 7.55 37 S 1119 619 1121.06 610.41 a 15.88 15.88 0 0 0 -30.9 -7.34 Z" stroke-linecap="round"/>
</g>
		<g transform="matrix(1 0 0 1 446.0468 215.0806)" id="b759170a-51c3-4e2f-999d-77dec9fd6d11">
<path style="stroke: none; stroke-width: 1; stroke-dasharray: none; stroke-linecap: butt; stroke-dashoffset: 0; stroke-linejoin: miter; stroke-miterlimit: 4; is-custom-font: none; font-file-url: none; fill: rgb(238,93,32); fill-rule: nonzero; opacity: 1;" transform=" translate(-1046.0468, -665.0755)" d="M 1030.94 661.29 c 2.56 8.39 25.18 28.09 25.18 28.09 s 7.77 -29 5.21 -37.35 a 15.88 15.88 0 0 0 -30.39 9.26 Z" stroke-linecap="round"/>
</g>
		<g transform="matrix(1 0 0 1 411.7857 272.4635)" id="b759170a-51c3-4e2f-999d-77dec9fd6d11">
<path style="stroke: none; stroke-width: 1; stroke-dasharray: none; stroke-linecap: butt; stroke-dashoffset: 0; stroke-linejoin: miter; stroke-miterlimit: 4; is-custom-font: none; font-file-url: none; fill: rgb(238,93,32); fill-rule: nonzero; opacity: 1;" transform=" translate(-1011.7857, -722.4584)" d="M 996.06 715.43 c 1.1 8.71 20.06 31.94 20.06 31.94 s 12.56 -27.23 11.45 -35.94 a 15.88 15.88 0 0 0 -31.51 4 Z" stroke-linecap="round"/>
</g>
		<g transform="matrix(1 0 0 1 510.963 199.4379)" id="b759170a-51c3-4e2f-999d-77dec9fd6d11">
<path style="stroke: none; stroke-width: 1; stroke-dasharray: none; stroke-linecap: butt; stroke-dashoffset: 0; stroke-linejoin: miter; stroke-miterlimit: 4; is-custom-font: none; font-file-url: none; fill: rgb(238,93,32); fill-rule: nonzero; opacity: 1;" transform=" translate(-1110.963, -649.433)" d="M 1119.53 665.3 c -8.77 -0.32 -33.6 -17.13 -33.6 -17.13 s 26 -14.93 34.77 -14.61 a 15.88 15.88 0 1 1 -1.17 31.74 Z" stroke-linecap="round"/>
</g>
		<g transform="matrix(1 0 0 1 475.0558 263.2125)" id="b759170a-51c3-4e2f-999d-77dec9fd6d11">
<path style="stroke: none; stroke-width: 1; stroke-dasharray: none; stroke-linecap: butt; stroke-dashoffset: 0; stroke-linejoin: miter; stroke-miterlimit: 4; is-custom-font: none; font-file-url: none; fill: rgb(238,93,32); fill-rule: nonzero; opacity: 1;" transform=" translate(-1075.0558, -713.2075)" d="M 1077.93 728.1 c -8.27 -2.93 -26.94 -26.4 -26.94 -26.4 s 29.29 -6.47 37.55 -3.54 a 15.88 15.88 0 1 1 -10.61 29.94 Z" stroke-linecap="round"/>
</g>
		<g transform="matrix(1 0 0 1 422.9169 317.9943)" id="b759170a-51c3-4e2f-999d-77dec9fd6d11">
<path style="stroke: none; stroke-width: 1; stroke-dasharray: none; stroke-linecap: butt; stroke-dashoffset: 0; stroke-linejoin: miter; stroke-miterlimit: 4; is-custom-font: none; font-file-url: none; fill: rgb(238,93,32); fill-rule: nonzero; opacity: 1;" transform=" translate(-1022.9169, -767.9893)" d="M 1029.12 783.59 c -8.64 -1.49 -31 -21.47 -31 -21.47 s 27.77 -11.32 36.41 -9.83 a 15.88 15.88 0 1 1 -5.4 31.3 Z" stroke-linecap="round"/>
</g>
		<g transform="matrix(1 0 0 1 252.3912 137.1398)" id="b759170a-51c3-4e2f-999d-77dec9fd6d11">
<linearGradient id="SVGID_47" gradientUnits="userSpaceOnUse" gradientTransform="matrix(1 0 0 1 0 0)" x1="852.39" y1="835.88" x2="852.39" y2="338.33">
<stop offset="0%" style="stop-color:rgb(128,128,128);stop-opacity: 0.25"/>
<stop offset="54%" style="stop-color:rgb(128,128,128);stop-opacity: 0.12"/>
<stop offset="100%" style="stop-color:rgb(128,128,128);stop-opacity: 0.1"/>
</linearGradient>
<path style="stroke: none; stroke-width: 1; stroke-dasharray: none; stroke-linecap: butt; stroke-dashoffset: 0; stroke-linejoin: miter; stroke-miterlimit: 4; is-custom-font: none; font-file-url: none; fill: url(#SVGID_47); fill-rule: nonzero; opacity: 1;" transform=" translate(-852.3913, -587.1347)" d="M 1061.39 750.72 L 1010 676.19 s -1 -18.45 -4.32 -22.76 s -0.72 -13.9 -0.72 -13.9 s 3.6 -5.27 0.48 -5.75 s -0.48 -12.23 -0.48 -12.23 l -0.24 -18.69 s 2.88 -18 0.48 -22.28 a 7.07 7.07 0 0 1 0.24 -7.67 s 2.88 -10.31 0 -12.94 s -2.16 -18.7 -1.44 -31.4 s -5.05 -19.89 -5.05 -21.81 s -19 -20.61 -19 -22.28 s -12 -8.63 -19.21 -10.55 s -10.81 -3.35 -10.57 -4.31 s -11.29 -4.79 -11.29 -4.79 s -10.09 -0.72 -13.94 -5.76 s -15.59 -6.48 -15.93 -6.53 c -0.07 -0.33 -0.15 -0.67 -0.22 -1 s -0.15 -0.72 -0.22 -1.08 c 0.91 -1.53 1.75 -3.09 2.51 -4.7 c 0.23 -0.49 0.45 -1 0.66 -1.46 c 4.21 -0.19 8.53 -1.09 11.83 -3.67 a 16.11 16.11 0 0 0 5.75 -11.49 a 25.19 25.19 0 0 0 -2.81 -12.77 c -2.1 -4.32 -5.19 -8.79 -4.13 -13.47 c 0.47 -2 1.68 -3.8 2.3 -5.78 c 1.17 -3.75 0.09 -7.87 -1.73 -11.35 s -4.35 -6.54 -6.37 -9.91 a 38.7 38.7 0 0 1 -5.07 -14 c -0.41 -2.6 -0.57 -5.34 -1.88 -7.63 a 14.21 14.21 0 0 0 -4.21 -4.25 a 42.07 42.07 0 0 0 -25.82 -7.83 c -6.54 0.23 -13.06 2 -19.55 1.19 c -3.91 -0.48 -7.64 -1.87 -11.42 -3 c -8.06 -2.38 -17.35 -3.36 -24.37 1.25 s -9.81 13.68 -14.56 20.77 c -4.2 6.28 -10.36 11.54 -13.56 18.18 c 0 -0.12 0.06 -0.25 0.1 -0.38 a 21.75 21.75 0 0 0 -1.79 4.84 c -1.22 5.22 -0.2 10.68 1.07 15.89 c 0.65 2.69 1.55 5.61 3.88 7.1 s 5.63 1.16 8.39 1.65 c -0.1 0.45 -0.22 0.91 -0.32 1.37 a 54.9 54.9 0 0 0 38.09 64 c 0 0.49 0 1 0 1.46 a 36.33 36.33 0 0 1 -0.25 4.12 h 0 s -24.15 -5 -30.64 -1.6 s -19.22 6 -21.14 7.9 s -6.72 0.48 -11 11.75 s -4.8 22.76 -10.33 28 s -8.4 8.87 -8.64 12.71 s 0.72 4.79 -1.45 6 s -5.28 6.23 -4.32 8.15 c 0 0 1.2 4.79 -2.64 7.18 s -3.37 7.19 -3.37 7.19 s -1.44 5.28 -4.8 6.47 s -5.53 9.11 -5.53 9.11 L 730.52 596 L 708.93 572.1 a 9.1 9.1 0 0 0 -12.85 -0.66 L 685.48 581 a 20.94 20.94 0 0 0 -10.61 6.32 a 27.35 27.35 0 0 0 -5.49 8.18 l -5.81 5.22 A 14.75 14.75 0 0 0 662.08 617 l 13.83 15.29 l 0.09 0.13 c -5.23 0.66 -9.85 2.34 -13.38 5.45 c -20.65 18.21 -20.9 35 -17.77 42.65 s 29.3 37.15 29.3 37.15 s 15.21 19.77 37.17 30.29 l 0 0 l -0.17 0.17 c -0.43 0.46 -0.86 1 -1.28 1.5 l -0.36 0.46 l -0.33 0.46 l -0.39 0.58 c -0.11 0.15 -0.21 0.31 -0.31 0.47 s -0.28 0.45 -0.41 0.69 l -0.27 0.46 c -0.16 0.3 -0.33 0.61 -0.49 0.93 l -0.16 0.31 c -0.2 0.42 -0.4 0.85 -0.59 1.3 c -0.07 0.16 -0.13 0.33 -0.2 0.49 c -0.12 0.31 -0.25 0.63 -0.37 1 s -0.15 0.41 -0.22 0.62 s -0.21 0.62 -0.31 0.94 s -0.14 0.45 -0.2 0.67 s -0.2 0.7 -0.29 1.06 s -0.11 0.42 -0.17 0.65 c -0.13 0.55 -0.26 1.12 -0.37 1.72 c 0 0.22 -0.08 0.45 -0.12 0.68 q -0.12 0.6 -0.21 1.23 c -0.05 0.29 -0.08 0.58 -0.12 0.87 s -0.1 0.79 -0.15 1.19 l -0.09 0.92 c 0 0.44 -0.08 0.9 -0.11 1.36 c 0 0.28 0 0.56 -0.05 0.84 c 0 0.76 -0.08 1.52 -0.09 2.32 c -0.48 28 1.16 32.11 1.16 32.11 s 3.39 8.93 12.75 9.57 a 16.3 16.3 0 0 0 4.11 -0.22 c 12.49 -2.16 41.79 -7.19 52.12 -5.27 c 6.21 1.15 17.71 -0.55 25.9 -2.1 l 2.15 -0.41 l 1.5 4.76 l 4.75 -1.3 l 4 2.33 l 2.55 1.46 c 4.74 16.08 24 10.6 24 10.6 L 843 826 l 46.36 1.2 s 10 6 16.41 7.88 a 15.24 15.24 0 0 0 2.33 0.51 a 105.21 105.21 0 0 0 12.92 0.24 c 3.55 -0.09 6.3 -0.24 6.3 -0.24 s -0.47 -12.59 -1.15 -26.68 c 17.72 -0.74 33.43 -1.85 42.94 -3.52 c 24.76 -4.35 35.09 -26.86 38.89 -38.89 a 113.19 113.19 0 0 1 2.43 14.93 a 106.74 106.74 0 0 0 3.85 12.94 a 43.73 43.73 0 0 0 5.28 9.58 c 18.26 -6.23 7.21 -15.57 3.36 -19.65 s 2.65 -7.43 2.65 -7.43 s 5 -3.35 4.56 -6.47 s -0.72 -6.47 15.61 -6.23 S 1061.39 750.72 1061.39 750.72 Z m -253.66 -153 c 0.21 1.37 2.49 16.14 4.55 20 c 0.43 0.82 0.6 3.73 0.54 7.89 c -9.68 -0.77 -19.76 -1.18 -19.76 -1.18 a 2.32 2.32 0 0 1 0.52 1.23 l -1.52 -0.34 l -2.21 -0.54 l 17.83 -27.12 Z m -35.32 56.2 l 16.75 2.66 l 1.41 0.22 a 55.11 55.11 0 0 0 -0.87 7.91 c 0 0.25 0.38 0.55 0.92 0.9 a 21.57 21.57 0 0 0 -0.33 4 c 0.27 1.33 8.1 4.19 17.08 6.57 c -0.12 0.48 -0.24 0.94 -0.36 1.37 h 0 c -7.93 -4.17 -20.43 -6.12 -21.87 -9.22 s -44 -18 -44 -18 s -1.55 -0.82 -4.23 -2.12 l 11.2 2.12 l 3.08 -0.31 A 167.91 167.91 0 0 0 772.41 653.9 Z" stroke-linecap="round"/>
</g>
		<g transform="matrix(1 0 0 1 255.4739 291.6647)" id="b759170a-51c3-4e2f-999d-77dec9fd6d11">
<path style="stroke: none; stroke-width: 1; stroke-dasharray: none; stroke-linecap: butt; stroke-dashoffset: 0; stroke-linejoin: miter; stroke-miterlimit: 4; is-custom-font: none; font-file-url: none; fill: rgb(117,65,65); fill-rule: nonzero; opacity: 1;" transform=" translate(-855.4739, -741.6597)" d="M 1006.71 761.15 s -6.66 40.23 -40.47 46.18 s -146.66 4.76 -146.66 4.76 s -64.52 -9.28 -87.85 -63.8 S 693.4 672.1 713.4 671.15 s 127.85 36.43 134 36.9 S 1012.66 625.2 1006.71 761.15 Z" stroke-linecap="round"/>
</g>
		<g transform="matrix(1 0 0 1 255.4739 291.6647)" id="b759170a-51c3-4e2f-999d-77dec9fd6d11">
<path style="stroke: none; stroke-width: 1; stroke-dasharray: none; stroke-linecap: butt; stroke-dashoffset: 0; stroke-linejoin: miter; stroke-miterlimit: 4; is-custom-font: none; font-file-url: none; fill: rgb(0,0,0); fill-rule: nonzero; opacity: 0.05;" transform=" translate(-855.4739, -741.6597)" d="M 1006.71 761.15 s -6.66 40.23 -40.47 46.18 s -146.66 4.76 -146.66 4.76 s -64.52 -9.28 -87.85 -63.8 S 693.4 672.1 713.4 671.15 s 127.85 36.43 134 36.9 S 1012.66 625.2 1006.71 761.15 Z" stroke-linecap="round"/>
</g>
		<g transform="matrix(1 0 0 1 155.1339 330.2003)" id="b759170a-51c3-4e2f-999d-77dec9fd6d11">
<path style="stroke: none; stroke-width: 1; stroke-dasharray: none; stroke-linecap: butt; stroke-dashoffset: 0; stroke-linejoin: miter; stroke-miterlimit: 4; is-custom-font: none; font-file-url: none; fill: rgb(135,102,83); fill-rule: nonzero; opacity: 1;" transform=" translate(-755.1339, -780.1953)" d="M 704.07 805.9 s 3.37 8.88 12.64 9.51 a 16.43 16.43 0 0 0 4.07 -0.22 c 12.38 -2.14 41.43 -7.14 51.66 -5.24 c 6.16 1.15 17.55 -0.55 25.66 -2.08 c 5.4 -1 9.34 -2 9.34 -2 s -9.52 -31.66 -10.72 -32.61 s -42.85 -25.95 -42.85 -25.95 l -33 -2.37 h -0.1 s -6.11 0.41 -11.18 6.57 c -3.49 4.21 -6.48 11.13 -6.68 22.47 C 702.45 801.85 704.07 805.9 704.07 805.9 Z" stroke-linecap="round"/>
</g>
		<g transform="matrix(1 0 0 1 111.8557 330.195)" id="b759170a-51c3-4e2f-999d-77dec9fd6d11">
<path style="stroke: none; stroke-width: 1; stroke-dasharray: none; stroke-linecap: butt; stroke-dashoffset: 0; stroke-linejoin: miter; stroke-miterlimit: 4; is-custom-font: none; font-file-url: none; fill: rgb(0,0,0); fill-rule: nonzero; opacity: 0.05;" transform=" translate(-711.8558, -780.19)" d="M 704.07 805.9 s 3.37 8.88 12.64 9.51 a 135.54 135.54 0 0 1 -9 -13.08 l 0.17 -23.09 c -1.47 -17.29 6.62 -28.36 13 -34.27 h -0.1 s -17.38 1.18 -17.86 29 S 704.07 805.9 704.07 805.9 Z" stroke-linecap="round"/>
</g>
		<g transform="matrix(1 0 0 1 277.11 269.33)" id="b759170a-51c3-4e2f-999d-77dec9fd6d11">
<path style="stroke: none; stroke-width: 1; stroke-dasharray: none; stroke-linecap: butt; stroke-dashoffset: 0; stroke-linejoin: miter; stroke-miterlimit: 4; is-custom-font: none; font-file-url: none; fill: rgb(0,0,0); fill-rule: nonzero; opacity: 0.1;" transform=" translate(-877.11, -719.325)" d="M 847.2 755.43 l 30.71 -24 l 48.33 -47.62 s -5.22 -0.25 -13.09 -0.59 c -2 1.25 -7.45 5.18 -7.65 10 c -0.24 5.82 -13.07 0.4 -19.73 3.73 s -39.28 45.08 -45 44.81 s -10.23 -2.9 -12.62 1.15 c 0 0.09 -0.11 0.17 -0.17 0.26 Z" stroke-linecap="round"/>
</g>
		<g transform="matrix(1 0 0 1 158.52 326.41)" id="b759170a-51c3-4e2f-999d-77dec9fd6d11">
<path style="stroke: none; stroke-width: 1; stroke-dasharray: none; stroke-linecap: butt; stroke-dashoffset: 0; stroke-linejoin: miter; stroke-miterlimit: 4; is-custom-font: none; font-file-url: none; fill: rgb(0,0,0); fill-rule: nonzero; opacity: 0.1;" transform=" translate(-758.52, -776.405)" d="M 709.6 751.53 c 1.09 0.53 2.19 1 3.32 1.52 c 23.34 10 52.14 31 54.29 34.76 c 1.3 2.32 18 12.46 30.89 20.06 c 5.4 -1 9.34 -2 9.34 -2 s -9.52 -31.66 -10.72 -32.61 s -42.85 -25.95 -42.85 -25.95 l -33 -2.37 h -0.1 S 714.67 745.37 709.6 751.53 Z" stroke-linecap="round"/>
</g>
		<g transform="matrix(1 0 0 1 184.0825 275.2387)" id="b759170a-51c3-4e2f-999d-77dec9fd6d11">
<path style="stroke: none; stroke-width: 1; stroke-dasharray: none; stroke-linecap: butt; stroke-dashoffset: 0; stroke-linejoin: miter; stroke-miterlimit: 4; is-custom-font: none; font-file-url: none; fill: rgb(117,65,65); fill-rule: nonzero; opacity: 1;" transform=" translate(-784.0825, -725.2336)" d="M 644.84 683.29 c 3.09 7.62 29 36.91 29 36.91 s 16.42 21.42 39.76 31.42 s 52.14 31 54.28 34.76 c 1.38 2.45 20 13.65 33.08 21.35 l 2.93 1.71 l 6.5 3.77 l 3.44 2 s 8 -6.4 15.91 -12.84 s 15.63 -12.75 15.76 -13.11 c 0.23 -0.71 3.32 -8.81 2.61 -9.28 c -0.37 -0.25 -2 -3.55 -5 -7.37 a 33.82 33.82 0 0 0 -12.13 -10 c -11 -5 -15.71 -16.38 -15.71 -16.38 s -1 -0.76 -2.63 -1.76 c -2.82 -1.78 -7.35 -4.34 -10.7 -4.77 c -5.25 -0.66 -15 -11.37 -15 -11.37 s -6.67 -4.29 -9.29 -9.76 c -2.5 -5.22 -39.42 -30.58 -42.84 -32.92 l 89.51 57.48 l 21.42 13.77 l 30.71 -24 l 48.34 -47.62 s -6.5 -0.32 -16 -0.72 c -23.49 -1 -65.21 -2.61 -70.48 -1.42 a 40.17 40.17 0 0 1 -13.1 0.85 s -11.88 0.54 -19.74 -3.61 s -20.25 -6.09 -21.68 -9.16 s -43.57 -17.85 -43.57 -17.85 s -57.37 -30.47 -77.85 -12.37 S 641.74 675.68 644.84 683.29 Z" stroke-linecap="round"/>
</g>
		<g transform="matrix(1 0 0 1 273.5834 64.3033)" id="b759170a-51c3-4e2f-999d-77dec9fd6d11">
<path style="stroke: none; stroke-width: 1; stroke-dasharray: none; stroke-linecap: butt; stroke-dashoffset: 0; stroke-linejoin: miter; stroke-miterlimit: 4; is-custom-font: none; font-file-url: none; fill: rgb(235,224,206); fill-rule: nonzero; opacity: 1;" transform=" translate(-873.5834, -514.2983)" d="M 829.82 508.55 l 7.38 24.52 l 9.52 55.23 l 35 2.38 l 10.13 -16.8 L 902 557.11 s 6.3 -22.32 10.83 -43.91 c 4 -19.1 6.62 -37.64 2.26 -39.65 c -3.86 -1.79 -6.4 -8.22 -8 -15.14 c -0.21 -0.85 -0.4 -1.72 -0.58 -2.59 a 134.62 134.62 0 0 1 -2.32 -17.75 s -73.33 -3.8 -63.09 26.43 a 48.18 48.18 0 0 1 2.76 16.08 a 38.23 38.23 0 0 1 -0.25 4.09 A 34.3 34.3 0 0 1 829.82 508.55 Z" stroke-linecap="round"/>
</g>
		<g transform="matrix(1 0 0 1 271.005 137.7329)" id="b759170a-51c3-4e2f-999d-77dec9fd6d11">
<path style="stroke: none; stroke-width: 1; stroke-dasharray: none; stroke-linecap: butt; stroke-dashoffset: 0; stroke-linejoin: miter; stroke-miterlimit: 4; is-custom-font: none; font-file-url: none; fill: rgb(227,232,244); fill-rule: nonzero; opacity: 1;" transform=" translate(-871.005, -587.7279)" d="M 814.58 504.5 l 2.62 41.66 l 5.95 35.47 l 6.67 16.43 l 5.95 89.88 s 57.41 6.64 71.37 -0.12 a 6.14 6.14 0 0 0 2.53 -2 C 926.53 660.39 921 586.63 921 586.63 L 927.43 539 l -4.29 -24.72 l -10.35 -1.1 l -8 -0.85 s -1.8 2.22 -4.4 5.65 c -7.06 9.32 -20 27.65 -19.17 35.3 c 1.18 10.48 -1.43 21.19 -5.48 22.86 s -7.38 4.52 -8.09 1.67 s -1.43 -3.57 -0.72 -7.62 s -3.1 -16.43 -3.1 -16.43 s -6.42 -14.52 -6 -20.71 s -0.71 -13.34 -2.62 -15 s -4.52 -3.34 -2.38 -11 s -9.39 -22.45 -9.39 -22.45 Z" stroke-linecap="round"/>
</g>
		<g transform="matrix(1 0 0 1 308.5742 122.645)" id="b759170a-51c3-4e2f-999d-77dec9fd6d11">
<path style="stroke: none; stroke-width: 1; stroke-dasharray: none; stroke-linecap: butt; stroke-dashoffset: 0; stroke-linejoin: miter; stroke-miterlimit: 4; is-custom-font: none; font-file-url: none; fill: rgb(0,0,0); fill-rule: nonzero; opacity: 0.1;" transform=" translate(-908.5742, -572.64)" d="M 890.41 608.55 l 2.38 71.19 l 13.75 7.62 a 6.15 6.15 0 0 0 2.53 -2 c 16.87 -25.47 11.34 -99.22 11.34 -99.22 l 6.43 -47.62 l -4.29 -24.71 l -10.36 -1.1 c 4 -19.1 6.62 -37.64 2.27 -39.65 c -3.87 -1.79 -6.41 -8.22 -8.06 -15.14 h 0 L 899 508.32 s 0.62 4.54 0.84 9.22 c 0.17 3.48 0.11 7 -0.6 8.87 c -1.67 4.29 -0.48 11.91 -0.48 11.91 c -4.29 7.56 -6.43 21.57 -7.48 35.1 C 889.87 591.41 890.41 608.55 890.41 608.55 Z" stroke-linecap="round"/>
</g>
		<g transform="matrix(1 0 0 1 374.69 181.34)" id="b759170a-51c3-4e2f-999d-77dec9fd6d11">
<path style="stroke: none; stroke-width: 1; stroke-dasharray: none; stroke-linecap: butt; stroke-dashoffset: 0; stroke-linejoin: miter; stroke-miterlimit: 4; is-custom-font: none; font-file-url: none; fill: rgb(135,102,83); fill-rule: nonzero; opacity: 1;" transform=" translate(-974.6901, -631.335)" d="M 906.63 456.82 s 12 1.49 15.8 6.49 S 936.24 469 936.24 469 s 11.43 3.81 11.19 4.76 s 3.33 2.39 10.48 4.29 s 19 8.81 19 10.48 s 18.81 20.23 18.81 22.14 s 5.72 9 5 21.66 s -1.43 28.57 1.43 31.19 s 0 12.86 0 12.86 A 7 7 0 0 0 1002 584 c 2.38 4.29 -0.47 22.15 -0.47 22.15 l 0.23 18.57 s -2.62 11.66 0.48 12.14 s -0.48 5.71 -0.48 5.71 s -2.62 9.53 0.72 13.81 s 4.28 22.62 4.28 22.62 l 51 74 s 0.72 13.57 -15.47 13.33 s -16 3.1 -15.48 6.19 s -4.52 6.43 -4.52 6.43 s -6.43 3.33 -2.62 7.38 s 14.76 13.33 -3.33 19.52 a 43.16 43.16 0 0 1 -5.24 -9.52 a 107.72 107.72 0 0 1 -3.81 -12.85 s -1.67 -18.1 -5 -20.48 s -2.86 -13.81 -2.86 -13.81 s 4.76 -9.28 -1.9 -13.09 S 894.1 678.77 894.1 678.77 l -2.38 -71.19 s -1.67 -52.61 8.33 -70.23 c 0 0 -1.19 -7.62 0.48 -11.9 s -0.24 -18.1 -0.24 -18.1 Z" stroke-linecap="round"/>
</g>
		<g transform="matrix(1 0 0 1 204.1139 135.6518)" id="b759170a-51c3-4e2f-999d-77dec9fd6d11">
<path style="stroke: none; stroke-width: 1; stroke-dasharray: none; stroke-linecap: butt; stroke-dashoffset: 0; stroke-linejoin: miter; stroke-miterlimit: 4; is-custom-font: none; font-file-url: none; fill: rgb(0,0,0); fill-rule: nonzero; opacity: 0.1;" transform=" translate(-804.1138, -585.6467)" d="M 844.23 485.38 s -23.93 -4.93 -30.36 -1.6 s -19 6 -21 7.86 s -6.67 0.48 -10.95 11.67 s -4.77 22.61 -10.24 27.85 s -8.33 8.81 -8.57 12.62 s 0.71 4.76 -1.43 6 s -5.24 6.19 -4.29 8.1 S 807 601.63 807 601.63 s 2.39 16 4.53 20 s -2.38 59.76 -7.14 63.57 s 32.14 3.46 32.14 3.46 s 1.66 -36.55 3.09 -38.46 s -1 -41 -1 -41 s -0.24 -33.33 2.86 -42.14 S 844.23 529 844.23 529 s 2.74 -17.57 6.07 -21.67 S 844.23 485.38 844.23 485.38 Z" stroke-linecap="round"/>
</g>
		<g transform="matrix(1 0 0 1 203.3553 134.9368)" id="b759170a-51c3-4e2f-999d-77dec9fd6d11">
<path style="stroke: none; stroke-width: 1; stroke-dasharray: none; stroke-linecap: butt; stroke-dashoffset: 0; stroke-linejoin: miter; stroke-miterlimit: 4; is-custom-font: none; font-file-url: none; fill: rgb(135,102,83); fill-rule: nonzero; opacity: 1;" transform=" translate(-803.3553, -584.9317)" d="M 843.52 484.67 s -23.94 -4.93 -30.37 -1.6 s -19 5.95 -20.95 7.86 s -6.66 0.47 -11 11.66 s -4.76 22.62 -10.24 27.86 s -8.33 8.81 -8.57 12.62 s 0.72 4.76 -1.42 5.95 s -5.24 6.19 -4.29 8.09 s 49.52 43.81 49.52 43.81 s 2.38 16 4.52 20 s -2.38 59.75 -7.14 63.56 s 32.14 3.46 32.14 3.46 s 1.67 -36.55 3.1 -38.45 s -1 -41 -1 -41 s -0.23 -33.33 2.86 -42.14 s 2.75 -38.1 2.75 -38.1 s 2.74 -17.57 6.06 -21.66 S 843.52 484.67 843.52 484.67 Z" stroke-linecap="round"/>
</g>
		<g transform="matrix(1 0 0 1 273.2156 10.381)" id="b759170a-51c3-4e2f-999d-77dec9fd6d11">
<path style="stroke: none; stroke-width: 1; stroke-dasharray: none; stroke-linecap: butt; stroke-dashoffset: 0; stroke-linejoin: miter; stroke-miterlimit: 4; is-custom-font: none; font-file-url: none; fill: rgb(0,0,0); fill-rule: nonzero; opacity: 0.1;" transform=" translate(-873.2155, -460.376)" d="M 841 464.5 a 48.18 48.18 0 0 1 2.76 16.08 a 54.63 54.63 0 0 0 62.65 -24.76 a 134.62 134.62 0 0 1 -2.32 -17.75 S 830.77 434.27 841 464.5 Z" stroke-linecap="round"/>
</g>
		<g transform="matrix(1 0 0 1 259.3419 -23.1661)" id="b759170a-51c3-4e2f-999d-77dec9fd6d11">
<path style="stroke: none; stroke-width: 1; stroke-dasharray: none; stroke-linecap: butt; stroke-dashoffset: 0; stroke-linejoin: miter; stroke-miterlimit: 4; is-custom-font: none; font-file-url: none; fill: rgb(235,224,206); fill-rule: nonzero; opacity: 1;" transform=" translate(-859.3419, -426.8289)" d="M 804.82 426.88 A 54.52 54.52 0 1 0 806 415.55 A 54.53 54.53 0 0 0 804.82 426.88 Z" stroke-linecap="round"/>
</g>
		<g transform="matrix(1 0 0 1 164.585 153.18)" id="b759170a-51c3-4e2f-999d-77dec9fd6d11">
<path style="stroke: none; stroke-width: 1; stroke-dasharray: none; stroke-linecap: butt; stroke-dashoffset: 0; stroke-linejoin: miter; stroke-miterlimit: 4; is-custom-font: none; font-file-url: none; fill: rgb(135,102,83); fill-rule: nonzero; opacity: 1;" transform=" translate(-764.585, -603.175)" d="M 769.82 553.06 l -13.09 4.05 s 1.19 4.76 -2.62 7.14 s -3.33 7.15 -3.33 7.15 s -1.43 5.23 -4.76 6.42 s -5.48 9 -5.48 9 l -10.95 12.62 s -4.05 3.33 -3.33 5 s -4.29 2.14 -4.29 2.14 L 724.59 649 l 22.62 4.29 l 14 -1.43 l 11.43 -4.29 l 10 -6 L 787.2 630 l 20 -30.47 Z" stroke-linecap="round"/>
</g>
		<g transform="matrix(1 0 0 1 99.3235 166.4242)" id="b759170a-51c3-4e2f-999d-77dec9fd6d11">
<path style="stroke: none; stroke-width: 1; stroke-dasharray: none; stroke-linecap: butt; stroke-dashoffset: 0; stroke-linejoin: miter; stroke-miterlimit: 4; is-custom-font: none; font-file-url: none; fill: rgb(235,224,206); fill-rule: nonzero; opacity: 1;" transform=" translate(-699.3234, -616.4192)" d="M 725.3 610 s -29 -41.91 -50.71 -19.29 s 8.81 59.28 15.95 58.09 s 41.19 -3.09 41.19 -3.09 Z" stroke-linecap="round"/>
</g>
		<g transform="matrix(0.7426 -0.6698 0.6698 0.7426 102.0539 168.8355)" id="b759170a-51c3-4e2f-999d-77dec9fd6d11">
<rect style="stroke: none; stroke-width: 1; stroke-dasharray: none; stroke-linecap: butt; stroke-dashoffset: 0; stroke-linejoin: miter; stroke-miterlimit: 4; is-custom-font: none; font-file-url: none; fill: rgb(78,48,76); fill-rule: nonzero; opacity: 1;" x="-30.71" y="-34.9" rx="12.62" ry="12.62" width="61.42" height="69.8"/>
</g>
		<g transform="matrix(0.7426 -0.6698 0.6698 0.7426 102.0539 168.8355)" id="b759170a-51c3-4e2f-999d-77dec9fd6d11">
<rect style="stroke: none; stroke-width: 1; stroke-dasharray: none; stroke-linecap: butt; stroke-dashoffset: 0; stroke-linejoin: miter; stroke-miterlimit: 4; is-custom-font: none; font-file-url: none; fill: rgb(0,0,0); fill-rule: nonzero; opacity: 0.1;" x="-30.71" y="-34.9" rx="12.62" ry="12.62" width="61.42" height="69.8"/>
</g>
		<g transform="matrix(0.7426 -0.6698 0.6698 0.7426 102.8721 165.3844)" id="b759170a-51c3-4e2f-999d-77dec9fd6d11">
<rect style="stroke: none; stroke-width: 1; stroke-dasharray: none; stroke-linecap: butt; stroke-dashoffset: 0; stroke-linejoin: miter; stroke-miterlimit: 4; is-custom-font: none; font-file-url: none; fill: rgb(78,48,76); fill-rule: nonzero; opacity: 1;" x="-30.71" y="-34.9" rx="12.62" ry="12.62" width="61.42" height="69.8"/>
</g>
		<g transform="matrix(1 0 0 1 102.11 167.105)" id="b759170a-51c3-4e2f-999d-77dec9fd6d11">
<circle style="stroke: none; stroke-width: 1; stroke-dasharray: none; stroke-linecap: butt; stroke-dashoffset: 0; stroke-linejoin: miter; stroke-miterlimit: 4; is-custom-font: none; font-file-url: none; fill: rgb(238,93,32); fill-rule: nonzero; opacity: 1;" cx="0" cy="0" r="13.57"/>
</g>
		<g transform="matrix(1 0 0 1 102.11 167.105)" id="b759170a-51c3-4e2f-999d-77dec9fd6d11">
<circle style="stroke: none; stroke-width: 1; stroke-dasharray: none; stroke-linecap: butt; stroke-dashoffset: 0; stroke-linejoin: miter; stroke-miterlimit: 4; is-custom-font: none; font-file-url: none; fill: rgb(0,0,0); fill-rule: nonzero; opacity: 0.1;" cx="0" cy="0" r="13.57"/>
</g>
		<g transform="matrix(1 0 0 1 102.87 165.385)" id="b759170a-51c3-4e2f-999d-77dec9fd6d11">
<circle style="stroke: none; stroke-width: 1; stroke-dasharray: none; stroke-linecap: butt; stroke-dashoffset: 0; stroke-linejoin: miter; stroke-miterlimit: 4; is-custom-font: none; font-file-url: none; fill: rgb(238,93,32); fill-rule: nonzero; opacity: 1;" cx="0" cy="0" r="13.57"/>
</g>
		<g transform="matrix(1 0 0 1 152.4496 182.3571)" id="b759170a-51c3-4e2f-999d-77dec9fd6d11">
<path style="stroke: none; stroke-width: 1; stroke-dasharray: none; stroke-linecap: butt; stroke-dashoffset: 0; stroke-linejoin: miter; stroke-miterlimit: 4; is-custom-font: none; font-file-url: none; fill: rgb(235,224,206); fill-rule: nonzero; opacity: 1;" transform=" translate(-752.4497, -632.3521)" d="M 706.5 618.77 c -0.24 31.43 64.76 38.09 64.76 38.09 l 16.6 2.64 l 7.44 1.18 L 798.4 630 s -3.41 -0.51 -7.67 -1.5 c -6.29 -1.47 -14.44 -4 -16.15 -7.55 C 771.73 615 706.73 587.35 706.5 618.77 Z" stroke-linecap="round"/>
</g>
		<g transform="matrix(1 0 0 1 259.9158 -37.0485)" id="b759170a-51c3-4e2f-999d-77dec9fd6d11">
<path style="stroke: none; stroke-width: 1; stroke-dasharray: none; stroke-linecap: butt; stroke-dashoffset: 0; stroke-linejoin: miter; stroke-miterlimit: 4; is-custom-font: none; font-file-url: none; fill: rgb(0,0,0); fill-rule: nonzero; opacity: 0.1;" transform=" translate(-859.9158, -412.9465)" d="M 806 415.55 a 6.47 6.47 0 0 1 4 1.78 c 1.84 1.95 1.94 5.41 4.33 6.61 a 4.92 4.92 0 0 0 2.84 0.33 c 6.33 -0.9 10 -8 16.07 -10 c 3.46 -1.12 7.27 -0.39 10.65 0.91 a 7.93 7.93 0 0 1 3.53 2.27 c 2 2.63 0.61 6.5 1.55 9.69 c 1.31 4.42 6.59 6.18 11.16 6.76 s 9.72 0.9 12.77 4.35 c 2.16 2.45 2.71 6 2.27 9.21 a 7.29 7.29 0 0 0 0 3.41 c 1.26 3.57 7.44 3 9.05 0.22 c 1.18 -2.05 0.82 -3.75 3.6 -4.32 c 1.88 -0.39 4.09 0.4 5.83 1 a 42.71 42.71 0 0 0 15.08 2.32 A 54.53 54.53 0 1 0 806 415.55 Z" stroke-linecap="round"/>
</g>
		<g transform="matrix(1 0 0 1 259.6512 -52.3646)" id="b759170a-51c3-4e2f-999d-77dec9fd6d11">
<path style="stroke: none; stroke-width: 1; stroke-dasharray: none; stroke-linecap: butt; stroke-dashoffset: 0; stroke-linejoin: miter; stroke-miterlimit: 4; is-custom-font: none; font-file-url: none; fill: rgb(117,65,65); fill-rule: nonzero; opacity: 1;" transform=" translate(-859.6512, -397.6303)" d="M 875.14 449.43 a 7.29 7.29 0 0 1 0 -3.41 c 0.43 -3.23 -0.11 -6.77 -2.27 -9.21 c -3 -3.45 -8.2 -3.78 -12.77 -4.35 s -9.85 -2.33 -11.16 -6.75 c -0.94 -3.19 0.48 -7.07 -1.55 -9.7 a 7.8 7.8 0 0 0 -3.52 -2.26 c -3.39 -1.31 -7.2 -2 -10.66 -0.92 c -6.07 2 -9.74 9.12 -16.07 10 a 4.92 4.92 0 0 1 -2.84 -0.33 c -2.39 -1.2 -2.49 -4.66 -4.33 -6.6 c -2.89 -3.06 -8.38 -1.09 -11.92 -3.36 c -2.31 -1.49 -3.2 -4.38 -3.84 -7.05 c -1.26 -5.18 -2.27 -10.61 -1.06 -15.79 c 2.07 -8.86 10 -14.93 15 -22.49 c 4.71 -7.05 7.35 -16 14.43 -20.64 s 16.17 -3.61 24.15 -1.24 c 3.74 1.11 7.44 2.49 11.31 3 c 6.44 0.79 12.9 -1 19.38 -1.18 a 41.62 41.62 0 0 1 25.59 7.77 a 14.16 14.16 0 0 1 4.18 4.23 c 1.29 2.28 1.46 5 1.85 7.58 a 38.75 38.75 0 0 0 5 13.93 c 2 3.35 4.51 6.39 6.32 9.85 s 2.87 7.55 1.71 11.27 c -0.61 2 -1.82 3.73 -2.27 5.74 c -1.06 4.65 2 9.09 4.09 13.38 a 25.1 25.1 0 0 1 2.78 12.69 a 16 16 0 0 1 -5.7 11.41 c -3.37 2.64 -7.8 3.52 -12.07 3.66 a 42.78 42.78 0 0 1 -15.38 -2.31 c -1.75 -0.6 -4 -1.39 -5.83 -1 c -2.78 0.57 -2.42 2.27 -3.6 4.32 C 882.57 452.47 876.4 453 875.14 449.43 Z" stroke-linecap="round"/>
</g>
		<g transform="matrix(1 0 0 1 274.56 270.695)" id="b759170a-51c3-4e2f-999d-77dec9fd6d11">
<path style="stroke: none; stroke-width: 1; stroke-dasharray: none; stroke-linecap: butt; stroke-dashoffset: 0; stroke-linejoin: miter; stroke-miterlimit: 4; is-custom-font: none; font-file-url: none; fill: rgb(0,0,0); fill-rule: nonzero; opacity: 0.1;" transform=" translate(-874.56, -720.69)" d="M 845.77 756.86 l 30.71 -24 l 48.34 -47.62 s -6.5 -0.32 -16 -0.72 c -1.73 1.76 -3.27 4 -3.37 6.5 c -0.24 5.82 -13.07 0.41 -19.73 3.74 s -39.28 45.07 -45 44.8 s -10.23 -2.9 -12.62 1.15 a 2.46 2.46 0 0 1 -0.17 0.27 a 6.77 6.77 0 0 1 -3.63 2.15 Z" stroke-linecap="round"/>
</g>
		<g transform="matrix(1 0 0 1 292.5244 290.0817)" id="b759170a-51c3-4e2f-999d-77dec9fd6d11">
<path style="stroke: none; stroke-width: 1; stroke-dasharray: none; stroke-linecap: butt; stroke-dashoffset: 0; stroke-linejoin: miter; stroke-miterlimit: 4; is-custom-font: none; font-file-url: none; fill: rgb(117,65,65); fill-rule: nonzero; opacity: 1;" transform=" translate(-892.5244, -740.0767)" d="M 783.87 755.19 l 15.43 49.26 l 2.42 7.74 l 7.35 -2 l 16.2 -4.45 l 72.16 -19.82 s 13.56 -0.18 26 -6.93 c 13.75 -7.48 29.26 -11.24 44.84 -9.78 c 9.54 0.89 20.15 -3.22 29 -19.48 c 0 0 20 -59 -30.48 -76 s -52.88 9 -52.88 9 s -0.26 0.14 -0.68 0.42 c -2 1.25 -7.45 5.18 -7.65 10 c -0.24 5.82 -13.07 0.4 -19.73 3.73 s -39.28 45.08 -45 44.81 s -10.23 -2.9 -12.62 1.15 c 0 0.09 -0.11 0.17 -0.17 0.26 c -1.76 2.43 -7.06 3 -10.57 3.09 c -1.91 0.06 -3.3 0 -3.3 0 l -0.45 0.14 L 810 747.37 Z" stroke-linecap="round"/>
</g>
		<g transform="matrix(1 0 0 1 193.13 194.595)" id="b759170a-51c3-4e2f-999d-77dec9fd6d11">
<path style="stroke: none; stroke-width: 1; stroke-dasharray: none; stroke-linecap: butt; stroke-dashoffset: 0; stroke-linejoin: miter; stroke-miterlimit: 4; is-custom-font: none; font-file-url: none; fill: rgb(0,0,0); fill-rule: nonzero; opacity: 0.1;" transform=" translate(-793.13, -644.59)" d="M 787.86 659.5 l 7.44 1.18 L 798.4 630 s -3.41 -0.51 -7.67 -1.5 C 791.86 632.75 789.3 649.32 787.86 659.5 Z" stroke-linecap="round"/>
</g>
		<g transform="matrix(1 0 0 1 294.5136 154.009)" id="b759170a-51c3-4e2f-999d-77dec9fd6d11">
<path style="stroke: none; stroke-width: 1; stroke-dasharray: none; stroke-linecap: butt; stroke-dashoffset: 0; stroke-linejoin: miter; stroke-miterlimit: 4; is-custom-font: none; font-file-url: none; fill: rgb(0,0,0); fill-rule: nonzero; opacity: 0.1;" transform=" translate(-894.5136, -604.004)" d="M 982.54 516 s 22.14 -6.43 16.66 56.43 S 952.78 675 952.78 675 s -47.14 20.71 -68.33 17.38 s -36.66 -4 -36.66 -4 a 53.79 53.79 0 0 0 -21.43 -5.71 c -11.91 -0.48 -36.9 -7.86 -37.38 -10.24 s 6.19 -37.38 3.33 -40 c 0 0 33.33 1.37 36.67 3.78 s 8.09 0.68 11.66 0 s 14.53 -10.21 36.19 -1.87 c 0 0 7.38 0.71 10.24 -1.19 s 7.44 -0.48 7.44 -0.48 S 899 631 899.69 630 s 6.42 0 6.42 0 a 2.54 2.54 0 0 0 3.58 -1.67 a 15.56 15.56 0 0 1 3.33 -5.23 s 6.43 -36.19 18.57 -49.76 c 0 0 3.57 -3.1 2.62 -6.91 S 954 508.37 982.54 516 Z" stroke-linecap="round"/>
</g>
		<g transform="matrix(1 0 0 1 293.9522 149.1902)" id="b759170a-51c3-4e2f-999d-77dec9fd6d11">
<path style="stroke: none; stroke-width: 1; stroke-dasharray: none; stroke-linecap: butt; stroke-dashoffset: 0; stroke-linejoin: miter; stroke-miterlimit: 4; is-custom-font: none; font-file-url: none; fill: rgb(135,102,83); fill-rule: nonzero; opacity: 1;" transform=" translate(-893.9521, -599.1853)" d="M 982 511.16 s 22.14 -6.43 16.67 56.43 S 952.19 670.2 952.19 670.2 s -47.14 20.71 -68.33 17.38 s -36.66 -4.05 -36.66 -4.05 a 53.72 53.72 0 0 0 -21.43 -5.71 c -11.9 -0.48 -36.9 -7.86 -37.38 -10.24 s 6.19 -37.38 3.34 -40 c 0 0 33.33 1.37 36.66 3.78 s 8.1 0.68 11.67 0 s 14.52 -10.2 36.19 -1.87 c 0 0 7.38 0.71 10.23 -1.19 s 7.45 -0.48 7.45 -0.48 s 4.46 -1.67 5.17 -2.62 s 6.43 0 6.43 0 a 2.53 2.53 0 0 0 3.57 -1.66 a 15.54 15.54 0 0 1 3.33 -5.24 s 6.43 -36.19 18.57 -49.76 c 0 0 3.57 -3.1 2.62 -6.9 S 953.38 503.54 982 511.16 Z" stroke-linecap="round"/>
</g>
		<g transform="matrix(1 0 0 1 227.1829 315.805)" id="b759170a-51c3-4e2f-999d-77dec9fd6d11">
<path style="stroke: none; stroke-width: 1; stroke-dasharray: none; stroke-linecap: butt; stroke-dashoffset: 0; stroke-linejoin: miter; stroke-miterlimit: 4; is-custom-font: none; font-file-url: none; fill: rgb(0,0,0); fill-rule: nonzero; opacity: 0.1;" transform=" translate(-827.1829, -765.8)" d="M 810 747.37 l 31.44 38 c 0.12 -0.11 0.2 -0.19 0.2 -0.22 c 0.24 -0.72 3.33 -8.81 2.62 -9.29 s -6.19 -12.38 -17.14 -17.38 c -6.69 -3 -11.07 -8.49 -13.46 -12.25 Z" stroke-linecap="round"/>
</g>
		<g transform="matrix(1 0 0 1 229.0087 343.2019)" id="b759170a-51c3-4e2f-999d-77dec9fd6d11">
<path style="stroke: none; stroke-width: 1; stroke-dasharray: none; stroke-linecap: butt; stroke-dashoffset: 0; stroke-linejoin: miter; stroke-miterlimit: 4; is-custom-font: none; font-file-url: none; fill: rgb(0,0,0); fill-rule: nonzero; opacity: 0.1;" transform=" translate(-829.0087, -793.1969)" d="M 810.43 813.21 l 3.44 2 s 8 -6.4 15.91 -12.84 s 15.63 -12.75 15.76 -13.11 c 0.23 -0.71 3.32 -8.81 2.61 -9.28 c -0.37 -0.25 -2 -3.55 -5 -7.37 c -21.32 -6 -7.75 8.83 -5.94 9.51 c 0 0 -26 -6 -27.38 22.31 A 33.36 33.36 0 0 0 810.43 813.21 Z" stroke-linecap="round"/>
</g>
		<g transform="matrix(1 0 0 1 268.4167 354.4451)" id="b759170a-51c3-4e2f-999d-77dec9fd6d11">
<path style="stroke: none; stroke-width: 1; stroke-dasharray: none; stroke-linecap: butt; stroke-dashoffset: 0; stroke-linejoin: miter; stroke-miterlimit: 4; is-custom-font: none; font-file-url: none; fill: rgb(135,102,83); fill-rule: nonzero; opacity: 1;" transform=" translate(-868.4167, -804.4402)" d="M 836.72 825.19 l 4.53 2.62 l 46 1.19 s 9.86 6 16.26 7.82 a 13.93 13.93 0 0 0 2.31 0.51 a 103.27 103.27 0 0 0 12.8 0.24 c 3.52 -0.09 6.25 -0.24 6.25 -0.24 s -2.18 -58 -3.82 -64 c -0.78 -2.92 -4.63 -2.28 -8.43 -0.82 a 55.19 55.19 0 0 0 -8.23 4.17 s -19.52 1.89 -22.62 3.57 s -11.9 -1 -17.38 0 s -15.23 -6.45 -15.23 -6.45 c -26.67 -8.8 -11.67 7.62 -9.77 8.34 c 0 0 -25.94 -6 -27.37 22.31 S 836.72 825.19 836.72 825.19 Z" stroke-linecap="round"/>
</g>
		<g transform="matrix(1 0 0 1 313.9743 354.4284)" id="b759170a-51c3-4e2f-999d-77dec9fd6d11">
<path style="stroke: none; stroke-width: 1; stroke-dasharray: none; stroke-linecap: butt; stroke-dashoffset: 0; stroke-linejoin: miter; stroke-miterlimit: 4; is-custom-font: none; font-file-url: none; fill: rgb(135,102,83); fill-rule: nonzero; opacity: 1;" transform=" translate(-913.9742, -804.4234)" d="M 903.15 802.81 c 0.5 12 9.85 26.89 15.42 34.76 c 3.52 -0.09 6.25 -0.24 6.25 -0.24 s -2.18 -58 -3.82 -64 c -0.78 -2.92 -4.63 -2.28 -8.43 -0.82 C 908 781.11 902.75 793.14 903.15 802.81 Z" stroke-linecap="round"/>
</g>
		<g transform="matrix(1 0 0 1 313.9743 354.4284)" id="b759170a-51c3-4e2f-999d-77dec9fd6d11">
<path style="stroke: none; stroke-width: 1; stroke-dasharray: none; stroke-linecap: butt; stroke-dashoffset: 0; stroke-linejoin: miter; stroke-miterlimit: 4; is-custom-font: none; font-file-url: none; fill: rgb(0,0,0); fill-rule: nonzero; opacity: 0.1;" transform=" translate(-913.9742, -804.4234)" d="M 903.15 802.81 c 0.5 12 9.85 26.89 15.42 34.76 c 3.52 -0.09 6.25 -0.24 6.25 -0.24 s -2.18 -58 -3.82 -64 c -0.78 -2.92 -4.63 -2.28 -8.43 -0.82 C 908 781.11 902.75 793.14 903.15 802.81 Z" stroke-linecap="round"/>
</g>
		<g transform="matrix(1 0 0 1 309.668 354.4767)" id="b759170a-51c3-4e2f-999d-77dec9fd6d11">
<path style="stroke: none; stroke-width: 1; stroke-dasharray: none; stroke-linecap: butt; stroke-dashoffset: 0; stroke-linejoin: miter; stroke-miterlimit: 4; is-custom-font: none; font-file-url: none; fill: rgb(0,0,0); fill-rule: nonzero; opacity: 0.05;" transform=" translate(-909.668, -804.4717)" d="M 895.29 804.4 c 3.16 11.58 3.13 24.57 8.17 32.42 a 13.93 13.93 0 0 0 2.31 0.51 a 103.27 103.27 0 0 0 12.8 0.24 c 3.52 -0.09 6.25 -0.24 6.25 -0.24 s -2.18 -58 -3.82 -64 c -0.78 -2.92 -4.63 -2.28 -8.43 -0.82 a 55.19 55.19 0 0 0 -8.23 4.17 S 891.25 789.58 895.29 804.4 Z" stroke-linecap="round"/>
</g>
		<g transform="matrix(1 0 0 1 157.85 253.81)" id="b759170a-51c3-4e2f-999d-77dec9fd6d11">
<path style="stroke: none; stroke-width: 1; stroke-dasharray: none; stroke-linecap: butt; stroke-dashoffset: 0; stroke-linejoin: miter; stroke-miterlimit: 4; is-custom-font: none; font-file-url: none; fill: rgb(0,0,0); fill-rule: nonzero; opacity: 0.1;" transform=" translate(-757.85, -703.805)" d="M 736.77 686.94 s 22.82 7.41 42.16 33.73 Z" stroke-linecap="round"/>
</g>
		<g transform="matrix(1 0 0 1 321.765 -47.485)" id="b759170a-51c3-4e2f-999d-77dec9fd6d11">
<path style="stroke: none; stroke-width: 1; stroke-dasharray: none; stroke-linecap: butt; stroke-dashoffset: 0; stroke-linejoin: miter; stroke-miterlimit: 4; is-custom-font: none; font-file-url: none; fill: rgb(0,0,0); fill-rule: nonzero; opacity: 0.1;" transform=" translate(-921.765, -402.51)" d="M 922.23 401.26 a 4.67 4.67 0 0 1 -0.14 0.5 a 16.15 16.15 0 0 1 -0.79 2 A 14.93 14.93 0 0 1 922.23 401.26 Z" stroke-linecap="round"/>
</g>
		<g transform="matrix(1 0 0 1 259.3291 -31.5662)" id="b759170a-51c3-4e2f-999d-77dec9fd6d11">
<path style="stroke: none; stroke-width: 1; stroke-dasharray: none; stroke-linecap: butt; stroke-dashoffset: 0; stroke-linejoin: miter; stroke-miterlimit: 4; is-custom-font: none; font-file-url: none; fill: rgb(0,0,0); fill-rule: nonzero; opacity: 0.1;" transform=" translate(-859.3292, -418.4288)" d="M 793.11 389.71 a 21.46 21.46 0 0 1 1.77 -4.81 c -0.12 0.41 -0.25 0.82 -0.35 1.24 c -1.21 5.18 -0.2 10.61 1.06 15.79 c 0.65 2.67 1.53 5.56 3.84 7.05 c 3.55 2.27 9 0.29 11.92 3.35 c 1.84 1.95 1.94 5.41 4.34 6.61 a 4.91 4.91 0 0 0 2.84 0.33 c 6.32 -0.9 10 -8 16.07 -10 c 3.46 -1.12 7.26 -0.39 10.65 0.92 a 7.8 7.8 0 0 1 3.52 2.26 c 2 2.63 0.61 6.51 1.55 9.69 c 1.31 4.42 6.59 6.18 11.16 6.75 s 9.72 0.9 12.77 4.36 c 2.16 2.44 2.71 6 2.27 9.21 a 7.42 7.42 0 0 0 0 3.41 c 1.26 3.57 7.44 3 9 0.22 c 1.18 -2.05 0.83 -3.75 3.61 -4.32 c 1.87 -0.39 4.08 0.4 5.82 1 a 42.78 42.78 0 0 0 15.38 2.31 c 4.27 -0.15 8.71 -1 12.07 -3.66 a 14 14 0 0 0 3.7 -4.5 A 15.14 15.14 0 0 1 921 445 c -3.36 2.64 -7.79 3.52 -12.07 3.66 a 42.69 42.69 0 0 1 -15.37 -2.31 c -1.75 -0.6 -4 -1.39 -5.83 -1 c -2.78 0.57 -2.43 2.27 -3.6 4.32 c -1.62 2.82 -7.79 3.35 -9.06 -0.22 a 7.42 7.42 0 0 1 0 -3.41 c 0.44 -3.23 -0.1 -6.77 -2.26 -9.21 c -3.06 -3.45 -8.21 -3.78 -12.78 -4.35 s -9.85 -2.33 -11.15 -6.75 c -0.95 -3.19 0.48 -7.07 -1.55 -9.7 a 7.88 7.88 0 0 0 -3.53 -2.26 c -3.39 -1.31 -7.19 -2 -10.65 -0.92 c -6.08 2 -9.75 9.12 -16.07 10 a 4.91 4.91 0 0 1 -2.84 -0.33 c -2.4 -1.2 -2.5 -4.66 -4.34 -6.6 c -2.89 -3.06 -8.37 -1.09 -11.91 -3.36 c -2.32 -1.49 -3.2 -4.38 -3.85 -7.05 C 792.9 400.32 791.89 394.89 793.11 389.71 Z" stroke-linecap="round"/>
</g>
		<g transform="matrix(1 0 0 1 321.6435 143.7354)" id="b759170a-51c3-4e2f-999d-77dec9fd6d11">
<path style="stroke: none; stroke-width: 1; stroke-dasharray: none; stroke-linecap: butt; stroke-dashoffset: 0; stroke-linejoin: miter; stroke-miterlimit: 4; is-custom-font: none; font-file-url: none; fill: rgb(0,0,0); fill-rule: nonzero; opacity: 0.1;" transform=" translate(-921.6434, -593.7304)" d="M 925.92 580.26 c -4.36 5.89 -9.34 11.34 -13.2 17.57 s -6.59 13.5 -5.78 20.78 c 4 -4.1 5.82 -9.76 8.34 -14.9 c 4.26 -8.7 10.64 -16.08 16 -24.08 c 1 -1.53 7.61 -10.35 4.28 -10.77 C 932.82 568.51 927.41 578.25 925.92 580.26 Z" stroke-linecap="round"/>
</g>
</g>
</g>
</svg>