<svg xmlns="http://www.w3.org/2000/svg" xmlns:xlink="http://www.w3.org/1999/xlink" version="1.1" width="1000" height="1000" viewBox="0 0 1000 1000" xml:space="preserve">
<desc>Created with Fabric.js 3.5.0</desc>
<defs>
</defs>
<rect x="0" y="0" width="100%" height="100%" fill="rgba(255,255,255,0)"/>
<g transform="matrix(1 0 0 1 500 500)" id="519047">
<g style="" vector-effect="non-scaling-stroke">
		<g transform="matrix(1 0 0 1 -4.7912 -100.3583)">
<path style="stroke: none; stroke-width: 1; stroke-dasharray: none; stroke-linecap: butt; stroke-dashoffset: 0; stroke-linejoin: miter; stroke-miterlimit: 4; is-custom-font: none; font-file-url: none; fill: rgb(238,100,32); fill-rule: nonzero; opacity: 0.1;" transform=" translate(-595.2089, -349.6367)" d="M 421.71 82.64 c 30.78 -27.43 79.11 -33 123.09 -30.84 c 138.16 6.87 262.87 73.56 370.74 149 c 39.05 27.31 77.5 56.74 102.85 94.35 c 51.6 76.57 36.3 182.63 -35.46 245.7 c -24.41 21.46 -54 37.91 -84.39 52.5 c -54 25.93 -112.31 46.74 -173.62 52.67 c -43.73 4.22 -88 0.79 -131.46 -5.11 C 472 624.45 352.81 588 252.9 525.72 c -43.82 -27.33 -85.13 -61.3 -103.19 -105.52 S 143.21 320 188 293.8 c 18.51 -10.82 40.64 -15.71 62.3 -20.3 c 31.89 -6.76 64.29 -13.42 93.06 -27.15 c 29.72 -14.19 64.92 -41.63 59 -73 C 396 139.63 391 110 421.71 82.64 Z" stroke-linecap="round"/>
</g>
		<g transform="matrix(1 0 0 1 -325.42 -269.225)">
<circle style="stroke: none; stroke-width: 1; stroke-dasharray: none; stroke-linecap: butt; stroke-dashoffset: 0; stroke-linejoin: miter; stroke-miterlimit: 4; is-custom-font: none; font-file-url: none; fill: rgb(238,100,32); fill-rule: nonzero; opacity: 0.1;" cx="0" cy="0" r="31.5"/>
</g>
		<g transform="matrix(1 0 0 1 -391.41 -344.225)">
<circle style="stroke: none; stroke-width: 1; stroke-dasharray: none; stroke-linecap: butt; stroke-dashoffset: 0; stroke-linejoin: miter; stroke-miterlimit: 4; is-custom-font: none; font-file-url: none; fill: rgb(238,100,32); fill-rule: nonzero; opacity: 0.1;" cx="0" cy="0" r="19.5"/>
</g>
		<g transform="matrix(1 0 0 1 426.07 -284.225)">
<circle style="stroke: none; stroke-width: 1; stroke-dasharray: none; stroke-linecap: butt; stroke-dashoffset: 0; stroke-linejoin: miter; stroke-miterlimit: 4; is-custom-font: none; font-file-url: none; fill: rgb(238,100,32); fill-rule: nonzero; opacity: 0.1;" cx="0" cy="0" r="12"/>
</g>
		<g transform="matrix(1 0 0 1 190.42 390.225)">
<ellipse style="stroke: none; stroke-width: 1; stroke-dasharray: none; stroke-linecap: butt; stroke-dashoffset: 0; stroke-linejoin: miter; stroke-miterlimit: 4; is-custom-font: none; font-file-url: none; fill: rgb(238,100,32); fill-rule: nonzero; opacity: 0.1;" cx="0" cy="0" rx="84.24" ry="8.4"/>
</g>
		<g transform="matrix(1 0 0 1 -343.5 209.685)">
<polygon style="stroke: none; stroke-width: 1; stroke-dasharray: none; stroke-linecap: butt; stroke-dashoffset: 0; stroke-linejoin: miter; stroke-miterlimit: 4; is-custom-font: none; font-file-url: none; fill: rgb(126,93,111); fill-rule: nonzero; opacity: 1;" points="58,-121 57.63,-101.05 54.67,60.66 29.33,120 -58,121 -58,-111.81 33.14,-119.03 58,-121 "/>
</g>
		<g transform="matrix(1 0 0 1 -343.5 209.685)">
<polygon style="stroke: none; stroke-width: 1; stroke-dasharray: none; stroke-linecap: butt; stroke-dashoffset: 0; stroke-linejoin: miter; stroke-miterlimit: 4; is-custom-font: none; font-file-url: none; fill: rgb(0,0,0); fill-rule: nonzero; opacity: 0.1;" points="58,-121 57.63,-101.05 54.67,60.66 29.33,120 -58,121 -58,-111.81 33.14,-119.03 58,-121 "/>
</g>
		<g transform="matrix(1 0 0 1 -299.835 209.185)">
<polygon style="stroke: none; stroke-width: 1; stroke-dasharray: none; stroke-linecap: butt; stroke-dashoffset: 0; stroke-linejoin: miter; stroke-miterlimit: 4; is-custom-font: none; font-file-url: none; fill: rgb(126,93,111); fill-rule: nonzero; opacity: 1;" points="14.335,-120.5 13.965,-100.55 11.005,61.16 -14.335,120.5 -7.665,-100.17 -7.685,-100.31 -10.525,-118.53 14.335,-120.5 "/>
</g>
		<g transform="matrix(1 0 0 1 -343.5 99.305)">
<polygon style="stroke: none; stroke-width: 1; stroke-dasharray: none; stroke-linecap: butt; stroke-dashoffset: 0; stroke-linejoin: miter; stroke-miterlimit: 4; is-custom-font: none; font-file-url: none; fill: rgb(0,0,0); fill-rule: nonzero; opacity: 0.1;" points="33.14,-8.65 58,-10.62 57.63,9.33 35.98,9.57 -58,10.62 -58,-1.43 33.14,-8.65 "/>
</g>
		<g transform="matrix(1 0 0 1 448.665 206.93)">
<polygon style="stroke: none; stroke-width: 1; stroke-dasharray: none; stroke-linecap: butt; stroke-dashoffset: 0; stroke-linejoin: miter; stroke-miterlimit: 4; is-custom-font: none; font-file-url: none; fill: rgb(126,93,111); fill-rule: nonzero; opacity: 1;" points="50.835,-109.055 50.835,122.415 30.505,122.415 -50.835,63.085 -50.835,-115.585 21.835,-122.415 26.295,-120.365 30.505,-118.425 50.835,-109.055 "/>
</g>
		<g transform="matrix(1 0 0 1 489.335 207.955)">
<rect style="stroke: none; stroke-width: 1; stroke-dasharray: none; stroke-linecap: butt; stroke-dashoffset: 0; stroke-linejoin: miter; stroke-miterlimit: 4; is-custom-font: none; font-file-url: none; fill: rgb(0,0,0); fill-rule: nonzero; opacity: 0.1;" x="-10.165" y="-121.39" rx="0" ry="0" width="20.33" height="242.78"/>
</g>
		<g transform="matrix(1 0 0 1 448.665 92.76)">
<polygon style="stroke: none; stroke-width: 1; stroke-dasharray: none; stroke-linecap: butt; stroke-dashoffset: 0; stroke-linejoin: miter; stroke-miterlimit: 4; is-custom-font: none; font-file-url: none; fill: rgb(0,0,0); fill-rule: nonzero; opacity: 0.1;" points="50.835,-6.195 50.835,7.115 30.505,7.345 -50.835,8.245 -50.835,-1.415 21.835,-8.245 26.295,-6.195 30.505,-4.255 30.505,-6.195 50.835,-6.195 "/>
</g>
		<g transform="matrix(1 0 0 1 0 84.515)">
<polygon style="stroke: none; stroke-width: 1; stroke-dasharray: none; stroke-linecap: butt; stroke-dashoffset: 0; stroke-linejoin: miter; stroke-miterlimit: 4; is-custom-font: none; font-file-url: none; fill: rgb(126,93,111); fill-rule: nonzero; opacity: 1;" points="499.5,-5.5 499.5,13.36 -499.5,24.5 -499.5,0.5 -405.5,-18.5 412.5,-24.5 499.5,-5.5 "/>
</g>
		<g transform="matrix(1 0 0 1 0 94.015)">
<polygon style="stroke: none; stroke-width: 1; stroke-dasharray: none; stroke-linecap: butt; stroke-dashoffset: 0; stroke-linejoin: miter; stroke-miterlimit: 4; is-custom-font: none; font-file-url: none; fill: rgb(0,0,0); fill-rule: nonzero; opacity: 0.1;" points="499.5,-15 499.5,3.86 -499.5,15 -499.5,-9 499.5,-15 "/>
</g>
		<g transform="matrix(1 0 0 1 40.96 -67.81)">
<rect style="stroke: none; stroke-width: 1; stroke-dasharray: none; stroke-linecap: butt; stroke-dashoffset: 0; stroke-linejoin: miter; stroke-miterlimit: 4; is-custom-font: none; font-file-url: none; fill: rgb(87,65,65); fill-rule: nonzero; opacity: 1;" x="-174.96" y="-135.845" rx="22.82" ry="22.82" width="349.92" height="271.69"/>
</g>
		<g transform="matrix(1 0 0 1 41.22 -68.33)">
<rect style="stroke: none; stroke-width: 1; stroke-dasharray: none; stroke-linecap: butt; stroke-dashoffset: 0; stroke-linejoin: miter; stroke-miterlimit: 4; is-custom-font: none; font-file-url: none; fill: rgb(237,237,244); fill-rule: nonzero; opacity: 1;" x="-147.06" y="-110.815" rx="0" ry="0" width="294.12" height="221.63"/>
</g>
		<g transform="matrix(1 0 0 1 -117.32 -68.335)">
<circle style="stroke: none; stroke-width: 1; stroke-dasharray: none; stroke-linecap: butt; stroke-dashoffset: 0; stroke-linejoin: miter; stroke-miterlimit: 4; is-custom-font: none; font-file-url: none; fill: rgb(230,232,236); fill-rule: nonzero; opacity: 1;" cx="0" cy="0" r="4.82"/>
</g>
		<g transform="matrix(1 0 0 1 201.31 -67.815)">
<circle style="stroke: none; stroke-width: 1; stroke-dasharray: none; stroke-linecap: butt; stroke-dashoffset: 0; stroke-linejoin: miter; stroke-miterlimit: 4; is-custom-font: none; font-file-url: none; fill: rgb(230,232,236); fill-rule: nonzero; opacity: 1;" cx="0" cy="0" r="7.95"/>
</g>
		<g transform="matrix(1 0 0 1 48.21 -63.625)">
<path style="stroke: none; stroke-width: 1; stroke-dasharray: none; stroke-linecap: butt; stroke-dashoffset: 0; stroke-linejoin: miter; stroke-miterlimit: 4; is-custom-font: none; font-file-url: none; fill: rgb(238,100,32); fill-rule: nonzero; opacity: 1;" transform=" translate(-648.21, -386.37)" d="M 672.93 382.52 l -37.61 -22.86 a 5.14 5.14 0 0 0 -7.63 4.48 V 408.6 a 5.14 5.14 0 0 0 7.63 4.48 l 37.61 -21.58 A 5.15 5.15 0 0 0 672.93 382.52 Z m 28.28 3.85 a 53 53 0 1 0 -53 53 A 53 53 0 0 0 701.21 386.37 Z m -95.74 0 a 42.74 42.74 0 1 1 42.74 42.74 A 42.73 42.73 0 0 1 605.47 386.37 Z" stroke-linecap="round"/>
</g>
		<g transform="matrix(1 0 0 1 178.7083 137.3217)">
<linearGradient id="SVGID_38" gradientUnits="userSpaceOnUse" gradientTransform="matrix(1 0 0 1 0 0)" x1="778.67" y1="845.35" x2="778.67" y2="329.26">
<stop offset="0%" style="stop-color:rgb(128,128,128);stop-opacity: 0.25"/>
<stop offset="54%" style="stop-color:rgb(128,128,128);stop-opacity: 0.12"/>
<stop offset="100%" style="stop-color:rgb(128,128,128);stop-opacity: 0.1"/>
</linearGradient>
<path style="stroke: none; stroke-width: 1; stroke-dasharray: none; stroke-linecap: butt; stroke-dashoffset: 0; stroke-linejoin: miter; stroke-miterlimit: 4; is-custom-font: none; font-file-url: none; fill: url(#SVGID_38); fill-rule: nonzero; opacity: 1;" transform=" translate(-778.7083, -587.3167)" d="M 904.38 560.51 a 12.5 12.5 0 0 0 -1.13 -3.52 c 0.76 -2.59 1.25 -4.18 1.25 -4.18 s 0 -0.38 -0.12 -1 a 15.35 15.35 0 0 0 -15.55 -12.88 c -6 0.11 -17.38 0.51 -30 1.93 c 0.72 -5.05 1.58 -11.09 2.48 -17.31 l 1.65 0.18 c 0.38 0 0.78 0 1.18 0.06 h 0.53 a 5.44 5.44 0 0 0 3.66 -1.12 a 2.16 2.16 0 0 0 -0.67 -3.54 a 8.92 8.92 0 0 0 7.83 -3.28 a 7 7 0 0 0 0 -8.14 c -2.11 -3 -6.58 -5 -6.82 -8.53 c -0.13 -2 1.21 -3.8 2.26 -5.57 a 23.27 23.27 0 0 0 -3.67 -27.95 a 54.76 54.76 0 0 0 -4.44 -3.95 c -2.2 -8.08 -4.5 -15.3 -5.18 -15.53 c -0.88 -0.29 -2.39 -2.19 -3.83 -3.82 a 18.4 18.4 0 0 0 -0.07 -4.13 c -1.06 -7 -8 -12 -11.82 -18.18 s -4.51 -13.75 -3.53 -20.83 s 3.45 -13.93 5.46 -20.84 c 1.5 -5.13 2.75 -10.58 1.07 -15.67 c -1.19 -3.63 -3.78 -6.77 -6.45 -9.72 c -6.41 -7.09 -13.8 -13.73 -22.92 -18 a 45.55 45.55 0 0 0 -20.29 -4.34 h -0.07 l -1.1 0.06 l -0.78 0.05 l -0.78 0.08 l -0.83 0.08 h 0 c -0.85 0.11 -1.69 0.24 -2.53 0.41 a 87.31 87.31 0 0 0 -18.55 -2.08 h -0.81 a 9.5 9.5 0 0 0 -5.3 1.25 c -2.22 1.55 -2.5 4.33 -3.17 6.75 a 18.73 18.73 0 0 1 -7.2 10 c -2.39 1.72 -5.2 3 -7.48 4.8 s -4.06 4.5 -3.45 7.16 c 0.51 2.23 2.59 3.89 5 4.9 c -0.29 0.36 -0.59 0.71 -0.87 1.08 c 0.47 0.19 1 0.36 1.43 0.5 c 3 0.89 6.23 1 9.27 1.81 a 20.31 20.31 0 0 1 2.46 0.83 a 35.12 35.12 0 0 0 -4.11 16.52 a 35.59 35.59 0 0 0 18.62 31.22 c 0 0.34 0 0.67 0 1 c 0.31 10.44 -0.48 23.14 -5.82 25.29 s -10.45 4.58 -13.6 6.15 l -1 0.53 c -0.83 -0.38 -1.66 -0.78 -2.47 -1.2 c 0 0 -4.25 -0.5 -3.51 2.74 c 0 0 -12.85 -2 -19.9 3.49 s -18.62 16.95 -20.89 19.94 S 688 483.54 688 483.54 s 5.53 -7.73 3.14 -17.2 c 0 0 -2.64 -11.42 -1.38 -16 s 4.53 -21.58 4.53 -21.58 s 0.46 -17.94 -9.33 -26.17 s -16.6 -15 -12.82 -7 a 111.46 111.46 0 0 0 5.54 10.71 s -23.41 5.56 -15.1 14.24 s 10.57 8.69 10.57 8.69 s -2.77 21.43 -3.28 25.42 s -5 34.39 -5 34.39 s -0.25 14.46 2.27 16.7 c 0 0 1.65 9.31 12.08 9 c 0 0 19.88 -0.5 25.42 -2.74 s 24.66 -14.21 26.68 -13.46 a 1.15 1.15 0 0 1 0.39 0.26 a 2.83 2.83 0 0 1 0.3 0.3 c -2 4.43 -6.74 19.47 -4.72 26.86 c 0 0 -1.76 20.93 8.81 27.66 c 0 0 15.35 25.92 9.56 39.87 c -0.46 1.13 -0.87 2.17 -1.25 3.18 c -8.79 -7.29 -22.2 -14 -42.68 -17.71 c -2.09 -0.38 -4.17 -0.84 -6.23 -1.34 c -5.82 -1.41 -21.83 -2.7 -29.45 22.61 a 111.36 111.36 0 0 1 -6.76 17.12 c -3 6.07 -6.33 14.77 -6.4 23.4 c -0.17 12.1 6.08 24.09 28.76 28.49 c 0.25 9 1.28 19.72 4.36 27.43 c 6.29 15.7 16.36 41.12 16.36 41.12 s 12.08 25.92 12.84 36.38 c 0.49 6.85 1.21 15.83 0.71 22 c 0 0.38 -0.06 0.74 -0.1 1.1 a 26.52 26.52 0 0 1 -3.38 3.07 c -1.76 1 -7.55 7.23 -7.55 8.72 a 26.64 26.64 0 0 0 0.38 4.26 c -2.74 2.39 -4.24 5 -4.24 7.6 c 0 13.52 38.37 24.48 85.7 24.48 s 85.69 -11 85.69 -24.48 c 0 -12.34 -32 -22.54 -73.58 -24.22 c 8.67 -3.46 16.37 -7.09 19.56 -10 a 4.68 4.68 0 0 0 1.51 -2.06 l -8.05 -18.69 s -0.63 0.14 -1.56 0.41 l -0.56 -0.84 c -3.58 -5.45 -10.47 -16.31 -10.47 -19.26 c 0 -1.09 -1.82 -8.06 -4.46 -17.61 V 698 c 26.26 4 60.1 -1.44 60.1 -1.44 l 0.15 -0.08 h 0.66 v -0.36 c 4.55 -2.52 27.31 -15.85 34.06 -33.53 c 2 -5.16 -0.49 -12.55 -5.44 -20.45 c 3.46 -8.59 12 -30.78 11.15 -39.63 c 0 -0.47 -0.06 -1 -0.06 -1.52 a 26.12 26.12 0 0 0 0.1 -2.72 c 1 -13 9 -36.75 9 -36.75 S 904.48 561.11 904.38 560.51 Z m -170 -57.76 c 1.82 3.2 3.77 7.29 4.54 8.95 h 0 S 736.26 506.8 734.43 502.75 Z m 1.9 280.1 l -0.19 0.07 l 0 -1 a 59.38 59.38 0 0 1 0.19 -7.82 a 9.16 9.16 0 0 0 -0.86 -4.06 a 96 96 0 0 1 -6.13 -24.13 c -1 -8.72 -1.83 -18.23 -1.31 -20.65 c 0.78 -3.71 1.42 -31.81 0.45 -45.66 l 15.48 3.48 l 18 36.7 s 11.58 17.92 15.17 32.06 V 766 a 34.6 34.6 0 0 1 -5.41 11.74 c -2.39 3.27 -4.72 6.58 -6.88 10 c -0.66 1.06 -1.39 2.15 -2.12 3.17 c -0.24 0 -12.07 0.69 -14.08 2.91 c -1.24 1.37 -3.4 3.53 -3.76 5.7 l -0.51 0.08 C 742 792.69 736.33 782.85 736.33 782.85 Z" stroke-linecap="round"/>
</g>
		<g transform="matrix(1 0 0 1 185.1398 335.88)">
<path style="stroke: none; stroke-width: 1; stroke-dasharray: none; stroke-linecap: butt; stroke-dashoffset: 0; stroke-linejoin: miter; stroke-miterlimit: 4; is-custom-font: none; font-file-url: none; fill: rgb(0,0,0); fill-rule: nonzero; opacity: 0.1;" transform=" translate(-785.1398, -785.875)" d="M 812.43 770 l -4 13 l -17 14.75 l -25 7.18 s -11.75 -6.43 -7.75 -7.68 c 1.11 -0.35 2.43 -1.62 3.77 -3.28 c -1.4 5.1 9.73 -1.47 9.73 -1.47 s 28.75 -20.5 31.75 -22.75 a 22.61 22.61 0 0 1 6.4 -2.93 C 811.58 768.77 812.43 770 812.43 770 Z" stroke-linecap="round"/>
</g>
		<g transform="matrix(1 0 0 1 171.555 279.865)">
<path style="stroke: none; stroke-width: 1; stroke-dasharray: none; stroke-linecap: butt; stroke-dashoffset: 0; stroke-linejoin: miter; stroke-miterlimit: 4; is-custom-font: none; font-file-url: none; fill: rgb(253,194,204); fill-rule: nonzero; opacity: 1;" transform=" translate(-771.555, -729.86)" d="M 812.43 770 l -4 13 l -17 14.75 l -25 7.18 s -11.75 -6.43 -7.75 -7.68 c 1.11 -0.35 2.43 -1.62 3.77 -3.28 a 50 50 0 0 0 3.34 -4.82 c 2.14 -3.44 4.46 -6.76 6.83 -10 a 36 36 0 0 0 6.31 -16.61 c 1.75 -13.75 -16 -41.5 -16 -41.5 l -32.25 -66.25 l 45 5.5 s 24.25 83.25 24.25 87.25 c 0 3 6.84 13.85 10.4 19.32 C 811.58 768.77 812.43 770 812.43 770 Z" stroke-linecap="round"/>
</g>
		<g transform="matrix(1 0 0 1 187.47 372.425)">
<ellipse style="stroke: none; stroke-width: 1; stroke-dasharray: none; stroke-linecap: butt; stroke-dashoffset: 0; stroke-linejoin: miter; stroke-miterlimit: 4; is-custom-font: none; font-file-url: none; fill: rgb(126,93,111); fill-rule: nonzero; opacity: 1;" cx="0" cy="0" rx="85.12" ry="24.55"/>
</g>
		<g transform="matrix(1 0 0 1 183.1665 338.6395)">
<path style="stroke: none; stroke-width: 1; stroke-dasharray: none; stroke-linecap: butt; stroke-dashoffset: 0; stroke-linejoin: miter; stroke-miterlimit: 4; is-custom-font: none; font-file-url: none; fill: rgb(238,100,32); fill-rule: nonzero; opacity: 1;" transform=" translate(-783.1665, -788.6345)" d="M 820.43 786 a 4.8 4.8 0 0 1 -1.5 2.07 c -6.18 5.67 -29.29 14.1 -43.57 18.68 A 101.11 101.11 0 0 1 763.93 810 c -3.5 0.25 -10.75 -2 -15.75 -5.07 s -0.5 -7.43 1.52 -9.68 s 14 -2.92 14 -2.92 c -5.75 9.57 8.49 1.17 8.49 1.17 s 28.75 -20.5 31.75 -22.75 s 8.5 -3.5 8.5 -3.5 Z" stroke-linecap="round"/>
</g>
		<g transform="matrix(1 0 0 1 183.1665 338.6395)">
<path style="stroke: none; stroke-width: 1; stroke-dasharray: none; stroke-linecap: butt; stroke-dashoffset: 0; stroke-linejoin: miter; stroke-miterlimit: 4; is-custom-font: none; font-file-url: none; fill: rgb(0,0,0); fill-rule: nonzero; opacity: 0.3;" transform=" translate(-783.1665, -788.6345)" d="M 820.43 786 a 4.8 4.8 0 0 1 -1.5 2.07 c -6.18 5.67 -29.29 14.1 -43.57 18.68 A 101.11 101.11 0 0 1 763.93 810 c -3.5 0.25 -10.75 -2 -15.75 -5.07 s -0.5 -7.43 1.52 -9.68 s 14 -2.92 14 -2.92 c -5.75 9.57 8.49 1.17 8.49 1.17 s 28.75 -20.5 31.75 -22.75 s 8.5 -3.5 8.5 -3.5 Z" stroke-linecap="round"/>
</g>
		<g transform="matrix(1 0 0 1 197.145 347.435)">
<path style="stroke: none; stroke-width: 1; stroke-dasharray: none; stroke-linecap: butt; stroke-dashoffset: 0; stroke-linejoin: miter; stroke-miterlimit: 4; is-custom-font: none; font-file-url: none; fill: rgb(0,0,0); fill-rule: nonzero; opacity: 0.1;" transform=" translate(-797.145, -797.43)" d="M 818.93 788.09 c -6.18 5.67 -29.29 14.1 -43.57 18.68 C 788.3 795.81 810 790.08 818.93 788.09 Z" stroke-linecap="round"/>
</g>
		<g transform="matrix(1 0 0 1 187.47 364.515)">
<ellipse style="stroke: none; stroke-width: 1; stroke-dasharray: none; stroke-linecap: butt; stroke-dashoffset: 0; stroke-linejoin: miter; stroke-miterlimit: 4; is-custom-font: none; font-file-url: none; fill: rgb(0,0,0); fill-rule: nonzero; opacity: 0.1;" cx="0" cy="0" rx="17.03" ry="4.91"/>
</g>
		<g transform="matrix(1 0 0 1 186.75 299.765)">
<rect style="stroke: none; stroke-width: 1; stroke-dasharray: none; stroke-linecap: butt; stroke-dashoffset: 0; stroke-linejoin: miter; stroke-miterlimit: 4; is-custom-font: none; font-file-url: none; fill: rgb(126,93,111); fill-rule: nonzero; opacity: 1;" x="-8.75" y="-64.75" rx="0" ry="0" width="17.5" height="129.5"/>
</g>
		<g transform="matrix(1 0 0 1 186.75 245.72)">
<path style="stroke: none; stroke-width: 1; stroke-dasharray: none; stroke-linecap: butt; stroke-dashoffset: 0; stroke-linejoin: miter; stroke-miterlimit: 4; is-custom-font: none; font-file-url: none; fill: rgb(0,0,0); fill-rule: nonzero; opacity: 0.1;" transform=" translate(-786.75, -695.715)" d="M 795.5 691.43 v 15 c -3.5 -1.08 -11.49 -5.63 -17.5 -9.21 V 685 h 3.65 Z" stroke-linecap="round"/>
</g>
		<g transform="matrix(1 0 0 1 222.3828 200.8663)">
<path style="stroke: none; stroke-width: 1; stroke-dasharray: none; stroke-linecap: butt; stroke-dashoffset: 0; stroke-linejoin: miter; stroke-miterlimit: 4; is-custom-font: none; font-file-url: none; fill: rgb(87,65,65); fill-rule: nonzero; opacity: 1;" transform=" translate(-822.3828, -650.8613)" d="M 754.27 628.63 s 57.78 -14.87 72.16 -26 s 70.85 41.24 63.39 61 s -34.62 34.07 -34.62 34.07 s -75.11 12.22 -87.9 -13.27 S 754.27 628.63 754.27 628.63 Z" stroke-linecap="round"/>
</g>
		<g transform="matrix(1 0 0 1 222.3828 200.8663)">
<path style="stroke: none; stroke-width: 1; stroke-dasharray: none; stroke-linecap: butt; stroke-dashoffset: 0; stroke-linejoin: miter; stroke-miterlimit: 4; is-custom-font: none; font-file-url: none; fill: rgb(0,0,0); fill-rule: nonzero; opacity: 0.1;" transform=" translate(-822.3828, -650.8613)" d="M 754.27 628.63 s 57.78 -14.87 72.16 -26 s 70.85 41.24 63.39 61 s -34.62 34.07 -34.62 34.07 s -75.11 12.22 -87.9 -13.27 S 754.27 628.63 754.27 628.63 Z" stroke-linecap="round"/>
</g>
		<g transform="matrix(1 0 0 1 217.3828 194.8663)">
<path style="stroke: none; stroke-width: 1; stroke-dasharray: none; stroke-linecap: butt; stroke-dashoffset: 0; stroke-linejoin: miter; stroke-miterlimit: 4; is-custom-font: none; font-file-url: none; fill: rgb(87,65,65); fill-rule: nonzero; opacity: 1;" transform=" translate(-817.3828, -644.8613)" d="M 749.27 622.63 s 57.78 -14.87 72.16 -26 s 70.85 41.24 63.39 61 s -34.62 34.07 -34.62 34.07 s -75.11 12.22 -87.9 -13.27 S 749.27 622.63 749.27 622.63 Z" stroke-linecap="round"/>
</g>
		<g transform="matrix(1 0 0 1 79.9422 3.7322)">
<path style="stroke: none; stroke-width: 1; stroke-dasharray: none; stroke-linecap: butt; stroke-dashoffset: 0; stroke-linejoin: miter; stroke-miterlimit: 4; is-custom-font: none; font-file-url: none; fill: rgb(253,194,204); fill-rule: nonzero; opacity: 1;" transform=" translate(-679.9423, -453.7272)" d="M 695.68 486.27 L 689.43 484 s 5.5 -7.75 3.13 -17.25 c 0 0 -2.63 -11.46 -1.38 -16.1 s 4.5 -21.65 4.5 -21.65 s 0.46 -18 -9.27 -26.25 s -16.48 -15 -12.73 -7 a 111.4 111.4 0 0 0 5.5 10.75 s -23.25 5.57 -15 14.29 s 10.5 8.71 10.5 8.71 s -2.75 21.5 -3.25 25.5 s -5 34.5 -5 34.5 s -0.25 14.5 2.25 16.75 a 11.31 11.31 0 0 0 12 9 C 682.46 515.22 703.68 491.77 695.68 486.27 Z" stroke-linecap="round"/>
</g>
		<g transform="matrix(1 0 0 1 199.93 -9.0549)">
<path style="stroke: none; stroke-width: 1; stroke-dasharray: none; stroke-linecap: butt; stroke-dashoffset: 0; stroke-linejoin: miter; stroke-miterlimit: 4; is-custom-font: none; font-file-url: none; fill: rgb(253,194,204); fill-rule: nonzero; opacity: 1;" transform=" translate(-799.93, -440.9401)" d="M 846.68 440.27 v 14 L 832.18 459 l -24.7 18.18 L 800.93 482 l -29.25 -11.75 l -18.5 -19.5 s 0.9 -0.49 2.46 -1.3 l 1 -0.53 c 3.13 -1.57 8.06 -4 13.51 -6.17 s 6.09 -14.89 5.78 -25.37 l 0 -1 c -0.25 -7.35 -1 -13.36 -1 -13.36 s 3.05 -0.58 7.49 -1.24 c 12.31 -1.83 35.28 -4.3 33.26 3.24 a 17.37 17.37 0 0 0 0 7.79 c 0.06 0.28 0.12 0.57 0.19 0.85 c 2.08 9.09 8.52 18.61 8.52 18.61 l 20 7.2 l 0.56 0.2 Z" stroke-linecap="round"/>
</g>
		<g transform="matrix(1 0 0 1 251.093 58.0386)">
<path style="stroke: none; stroke-width: 1; stroke-dasharray: none; stroke-linecap: butt; stroke-dashoffset: 0; stroke-linejoin: miter; stroke-miterlimit: 4; is-custom-font: none; font-file-url: none; fill: rgb(253,194,204); fill-rule: nonzero; opacity: 1;" transform=" translate(-851.093, -508.0335)" d="M 846.68 444.52 v -4.25 a 14 14 0 0 1 4.75 0 c 1.75 0.5 5.07 5.75 6.57 6.25 s 10.68 34.75 9.68 37.75 S 857.23 555 857.23 555 l -19.05 21 l -3.75 -57.75 L 846.68 484 Z" stroke-linecap="round"/>
</g>
		<g transform="matrix(1 0 0 1 140.2331 159.275)">
<path style="stroke: none; stroke-width: 1; stroke-dasharray: none; stroke-linecap: butt; stroke-dashoffset: 0; stroke-linejoin: miter; stroke-miterlimit: 4; is-custom-font: none; font-file-url: none; fill: rgb(253,194,204); fill-rule: nonzero; opacity: 1;" transform=" translate(-740.233, -609.27)" d="M 747.93 601.77 s -17.41 3.75 -15.2 9.25 s 11.95 5.75 11.95 5.75 Z" stroke-linecap="round"/>
</g>
		<g transform="matrix(1 0 0 1 126.43 40.7127)">
<path style="stroke: none; stroke-width: 1; stroke-dasharray: none; stroke-linecap: butt; stroke-dashoffset: 0; stroke-linejoin: miter; stroke-miterlimit: 4; is-custom-font: none; font-file-url: none; fill: rgb(253,194,204); fill-rule: nonzero; opacity: 1;" transform=" translate(-726.43, -490.7077)" d="M 772.18 490.72 l -13.25 28.55 l -15.75 11.5 L 740.43 513 s -5.32 -11.75 -7.61 -13.74 a 1.15 1.15 0 0 0 -0.39 -0.26 c -2 -0.75 -21 11.25 -26.5 13.5 s -25.25 2.75 -25.25 2.75 L 689.43 484 s 17.5 -6.5 19.75 -9.5 s 13.75 -14.5 20.75 -20 S 749.7 451 749.7 451 l 0.2 0.08 l 3.28 1.42 l 9.5 23.25 Z" stroke-linecap="round"/>
</g>
		<g transform="matrix(1 0 0 1 110.2539 260.8642)">
<path style="stroke: none; stroke-width: 1; stroke-dasharray: none; stroke-linecap: butt; stroke-dashoffset: 0; stroke-linejoin: miter; stroke-miterlimit: 4; is-custom-font: none; font-file-url: none; fill: rgb(253,194,204); fill-rule: nonzero; opacity: 1;" transform=" translate(-710.254, -710.8592)" d="M 737.43 775.52 a 59.64 59.64 0 0 0 -0.19 7.84 c 0.07 2.79 0.19 5.16 0.19 5.16 l -5.75 12 s -19.75 6.5 -16.5 3.75 c 1.13 -0.95 1.71 -3.42 2 -6.69 c 0.49 -6.18 -0.22 -15.19 -0.71 -22.06 c -0.75 -10.5 -12.75 -36.5 -12.75 -36.5 s -10 -25.5 -16.25 -41.25 s -4 -44.25 -4 -44.25 s 1 -21.5 5.5 -28 s 22 -8.75 22 -8.75 L 719.18 644 s 6.75 25.5 9.25 29.25 s 1.75 48.5 0.75 53.25 c -0.51 2.43 0.35 12 1.31 20.72 a 97.31 97.31 0 0 0 6.08 24.2 A 9.24 9.24 0 0 1 737.43 775.52 Z" stroke-linecap="round"/>
</g>
		<g transform="matrix(1 0 0 1 126.1244 344.1592)">
<path style="stroke: none; stroke-width: 1; stroke-dasharray: none; stroke-linecap: butt; stroke-dashoffset: 0; stroke-linejoin: miter; stroke-miterlimit: 4; is-custom-font: none; font-file-url: none; fill: rgb(0,0,0); fill-rule: nonzero; opacity: 0.1;" transform=" translate(-726.1244, -794.1542)" d="M 737.43 788.52 l -5.75 12 s -19.75 6.5 -16.5 3.75 c 1.13 -0.95 1.71 -3.42 2 -6.69 c 0.71 -0.71 1.47 -1.49 2.25 -2.29 a 50.49 50.49 0 0 1 17.85 -11.93 h 0 C 737.31 786.15 737.43 788.52 737.43 788.52 Z" stroke-linecap="round"/>
</g>
		<g transform="matrix(1 0 0 1 126.3483 352.7216)">
<path style="stroke: none; stroke-width: 1; stroke-dasharray: none; stroke-linecap: butt; stroke-dashoffset: 0; stroke-linejoin: miter; stroke-miterlimit: 4; is-custom-font: none; font-file-url: none; fill: rgb(238,100,32); fill-rule: nonzero; opacity: 1;" transform=" translate(-726.3483, -802.7166)" d="M 746.45 806.38 a 0.59 0.59 0 0 1 0 0.14 c -1 4.75 -17.5 11.25 -17.5 11.25 s -10.5 1.75 -16.5 3.25 a 4.15 4.15 0 0 1 -1.41 0.13 c -4.63 -0.35 -4.84 -9.26 -4.84 -10.63 s 5.75 -7.75 7.5 -8.75 a 53.63 53.63 0 0 0 5.56 -5.33 a 51.6 51.6 0 0 1 18.22 -12.17 h 0 S 747.25 801.45 746.45 806.38 Z" stroke-linecap="round"/>
</g>
		<g transform="matrix(1 0 0 1 126.3483 352.7116)">
<path style="stroke: none; stroke-width: 1; stroke-dasharray: none; stroke-linecap: butt; stroke-dashoffset: 0; stroke-linejoin: miter; stroke-miterlimit: 4; is-custom-font: none; font-file-url: none; fill: rgb(0,0,0); fill-rule: nonzero; opacity: 0.3;" transform=" translate(-726.3483, -802.7066)" d="M 746.45 806.38 a 0.59 0.59 0 0 1 0 0.14 c -1 4.75 -17.5 11.25 -17.5 11.25 s -10.5 1.75 -16.5 3.25 a 4.15 4.15 0 0 1 -1.41 0.13 c -4.63 -0.35 -4.84 -9.26 -4.84 -10.63 s 5.75 -7.75 7.5 -8.75 a 53 53 0 0 0 5.64 -5.41 a 50.57 50.57 0 0 1 17.86 -12 l 0.28 -0.11 S 747.25 801.45 746.45 806.38 Z" stroke-linecap="round"/>
</g>
		<g transform="matrix(1 0 0 1 128.7471 363.6929)">
<path style="stroke: none; stroke-width: 1; stroke-dasharray: none; stroke-linecap: butt; stroke-dashoffset: 0; stroke-linejoin: miter; stroke-miterlimit: 4; is-custom-font: none; font-file-url: none; fill: rgb(0,0,0); fill-rule: nonzero; opacity: 0.1;" transform=" translate(-728.7471, -813.688)" d="M 746.45 806.38 a 0.59 0.59 0 0 1 0 0.14 c -1 4.75 -17.5 11.25 -17.5 11.25 s -10.5 1.75 -16.5 3.25 a 4.15 4.15 0 0 1 -1.41 0.13 c 5.44 -3.73 18.63 -12.68 20.41 -12.88 S 742 805.55 746.45 806.38 Z" stroke-linecap="round"/>
</g>
		<g transform="matrix(1 0 0 1 195.435 -40.6381)">
<path style="stroke: none; stroke-width: 1; stroke-dasharray: none; stroke-linecap: butt; stroke-dashoffset: 0; stroke-linejoin: miter; stroke-miterlimit: 4; is-custom-font: none; font-file-url: none; fill: rgb(0,0,0); fill-rule: nonzero; opacity: 0.1;" transform=" translate(-795.435, -409.3569)" d="M 815.91 413.66 c -6.18 5.09 -11.86 4.36 -20.49 4.36 c -6.24 0 -14.35 2.19 -19.46 -0.62 c -0.21 -7.81 -1 -14.38 -1 -14.38 s 43.5 -8.25 40.75 2 A 18.18 18.18 0 0 0 815.91 413.66 Z" stroke-linecap="round"/>
</g>
		<g transform="matrix(1 0 0 1 193.1896 -64.9322)">
<path style="stroke: none; stroke-width: 1; stroke-dasharray: none; stroke-linecap: butt; stroke-dashoffset: 0; stroke-linejoin: miter; stroke-miterlimit: 4; is-custom-font: none; font-file-url: none; fill: rgb(253,194,204); fill-rule: nonzero; opacity: 1;" transform=" translate(-793.1896, -385.0629)" d="M 828.93 385.06 a 35.75 35.75 0 0 1 -35.75 35.75 c -0.92 0 -1.84 0 -2.74 -0.1 h 0 a 35.75 35.75 0 1 1 38.5 -35.65 Z" stroke-linecap="round"/>
</g>
		<g transform="matrix(1 0 0 1 152.5 40.955)">
<path style="stroke: none; stroke-width: 1; stroke-dasharray: none; stroke-linecap: butt; stroke-dashoffset: 0; stroke-linejoin: miter; stroke-miterlimit: 4; is-custom-font: none; font-file-url: none; fill: rgb(0,0,0); fill-rule: nonzero; opacity: 0.1;" transform=" translate(-752.5, -490.95)" d="M 762.68 475.77 l 9.5 15 l -13.25 28.55 l -15.75 11.5 L 740.43 513 s -5.32 -11.75 -7.61 -13.74 c 0.66 -1.61 1.11 -2.35 1.11 -1.76 c 0 2.5 6.15 13.75 6.15 13.75 c 19 -6.5 13.1 -31.75 13.1 -31.75 s -2.36 -22.5 -3.28 -28.42 l 3.28 1.42 Z" stroke-linecap="round"/>
</g>
		<g transform="matrix(1 0 0 1 199.93 10.84)">
<path style="stroke: none; stroke-width: 1; stroke-dasharray: none; stroke-linecap: butt; stroke-dashoffset: 0; stroke-linejoin: miter; stroke-miterlimit: 4; is-custom-font: none; font-file-url: none; fill: rgb(0,0,0); fill-rule: nonzero; opacity: 0.1;" transform=" translate(-799.93, -460.835)" d="M 846.68 440.27 v 14 L 832.18 459 l -24.7 18.18 L 800.93 482 l -29.25 -11.75 l -18.5 -19.5 s 0.9 -0.49 2.46 -1.3 l 1 -0.53 c 12.87 5.85 26.8 8 36.75 8.77 a 111 111 0 0 0 13.76 0.31 C 844.82 452 845.94 442.9 845 439.67 Z" stroke-linecap="round"/>
</g>
		<g transform="matrix(1 0 0 1 175.8679 110.5173)">
<path style="stroke: none; stroke-width: 1; stroke-dasharray: none; stroke-linecap: butt; stroke-dashoffset: 0; stroke-linejoin: miter; stroke-miterlimit: 4; is-custom-font: none; font-file-url: none; fill: rgb(238,100,32); fill-rule: nonzero; opacity: 1;" transform=" translate(-775.8679, -560.5123)" d="M 857.43 667 a 280.29 280.29 0 0 1 -29 12.25 c -17.25 6.25 -55.25 -2 -60 -3.25 s -41.25 -15.75 -55.25 -21.25 s -17.5 -1 -20.75 -1.5 s -5.5 -6.75 -6 -8.5 s 9 -17 14.25 -24.75 s 21 -6.25 23.25 -6.75 s 18 0 18 0 s -1 -5 4.75 -19 s -9.5 -40 -9.5 -40 c -10.5 -6.75 -8.75 -27.75 -8.75 -27.75 c -2.5 -9.25 5.5 -30.5 5.5 -28 s 6.15 13.75 6.15 13.75 c 19 -6.5 13.1 -31.75 13.1 -31.75 s -2.75 -26.25 -3.48 -29.5 s 3.48 -2.75 3.48 -2.75 q 1.22 0.63 2.46 1.2 c 13.16 6.2 27.56 8.46 37.78 9.24 a 111 111 0 0 0 13.76 0.31 c 45.67 -7.37 37.58 -19.12 37.28 -19.54 l 2.22 0.79 c 16.5 12 11.5 51.75 11.5 51.75 L 852 521.67 l -4.59 22.1 s 16.25 98.5 17.75 103.5 S 857.43 667 857.43 667 Z" stroke-linecap="round"/>
</g>
		<g transform="matrix(1 0 0 1 132.7251 187.638)">
<path style="stroke: none; stroke-width: 1; stroke-dasharray: none; stroke-linecap: butt; stroke-dashoffset: 0; stroke-linejoin: miter; stroke-miterlimit: 4; is-custom-font: none; font-file-url: none; fill: rgb(0,0,0); fill-rule: nonzero; opacity: 0.1;" transform=" translate(-732.7251, -637.633)" d="M 735.68 622 c -1 0.75 -12.25 24 -4 30.5 S 735.68 622 735.68 622 Z" stroke-linecap="round"/>
</g>
		<g transform="matrix(1 0 0 1 161.805 195.65)">
<path style="stroke: none; stroke-width: 1; stroke-dasharray: none; stroke-linecap: butt; stroke-dashoffset: 0; stroke-linejoin: miter; stroke-miterlimit: 4; is-custom-font: none; font-file-url: none; fill: rgb(0,0,0); fill-rule: nonzero; opacity: 0.1;" transform=" translate(-761.805, -645.645)" d="M 743.68 625.27 c 0.25 0.75 23.5 37.75 36.25 40.75 Z" stroke-linecap="round"/>
</g>
		<g transform="matrix(1 0 0 1 197.83 -117.19)">
<path style="stroke: none; stroke-width: 1; stroke-dasharray: none; stroke-linecap: butt; stroke-dashoffset: 0; stroke-linejoin: miter; stroke-miterlimit: 4; is-custom-font: none; font-file-url: none; fill: rgb(0,0,0); fill-rule: nonzero; opacity: 0.1;" transform=" translate(-797.83, -332.805)" d="M 799.69 332.48 l -3.72 0.79 a 25.07 25.07 0 0 1 3.14 -0.93 Z" stroke-linecap="round"/>
</g>
		<g transform="matrix(1 0 0 1 202.4674 -14.51)">
<path style="stroke: none; stroke-width: 1; stroke-dasharray: none; stroke-linecap: butt; stroke-dashoffset: 0; stroke-linejoin: miter; stroke-miterlimit: 4; is-custom-font: none; font-file-url: none; fill: rgb(0,0,0); fill-rule: nonzero; opacity: 0.1;" transform=" translate(-802.4674, -435.485)" d="M 855.71 492 l -7 29.65 a 36.22 36.22 0 0 1 -9.72 -6.51 c -2.23 -2.12 -4.23 -4.55 -7.1 -5.94 c -3.69 -1.79 -8.14 -1.55 -12.33 -1.7 a 59.32 59.32 0 0 1 -15.42 -2.64 a 10.88 10.88 0 0 1 -4 -1.94 c -2.38 -2.1 -2.22 -5.49 -2 -8.45 a 129.57 129.57 0 0 0 0.15 -17.29 c -0.06 -1.08 -0.14 -2.16 -0.23 -3.24 c -0.4 -4.83 -1.7 -10.43 -6.64 -12.5 c -2.54 -1 -5.57 -0.92 -8 -2.13 a 6.61 6.61 0 0 1 -1 -0.62 c -3.6 -2.52 -3.93 -7.57 -3.79 -11.82 q 0.32 -8.76 0.61 -17.53 a 50.94 50.94 0 0 0 -0.19 -8.65 h 0 a 19.21 19.21 0 0 0 -1.56 -5.52 c -2.17 -4.64 -6.69 -8.51 -7.5 -13.41 a 5.43 5.43 0 0 1 -0.09 -0.69 c -0.42 -4.38 2.34 -8.46 3.31 -12.77 c 1.94 -8.67 -4.58 -18.17 -14.17 -20.66 c -3 -0.78 -6.22 -0.93 -9.21 -1.82 a 14.79 14.79 0 0 1 -1.41 -0.5 c 7.24 -9.66 19.65 -16 33.74 -16 c 22.33 0 40.44 16 40.44 35.75 c 0 11.2 -5.83 21.19 -14.94 27.75 c 0.06 0.28 0.13 0.57 0.21 0.85 c 2.35 9.09 9.64 18.61 9.64 18.61 l 22.64 7.2 l 2.52 0.8 C 861.37 452.27 855.71 492 855.71 492 Z" stroke-linecap="round"/>
</g>
		<g transform="matrix(1 0 0 1 267.68 70.6763)">
<path style="stroke: none; stroke-width: 1; stroke-dasharray: none; stroke-linecap: butt; stroke-dashoffset: 0; stroke-linejoin: miter; stroke-miterlimit: 4; is-custom-font: none; font-file-url: none; fill: rgb(0,0,0); fill-rule: nonzero; opacity: 0.1;" transform=" translate(-867.68, -520.6713)" d="M 868 520.72 c -0.22 0 -0.43 -0.05 -0.64 -0.09 A 1.33 1.33 0 0 1 868 520.72 Z" stroke-linecap="round"/>
</g>
		<g transform="matrix(1 0 0 1 210.6666 -23.1762)">
<path style="stroke: none; stroke-width: 1; stroke-dasharray: none; stroke-linecap: butt; stroke-dashoffset: 0; stroke-linejoin: miter; stroke-miterlimit: 4; is-custom-font: none; font-file-url: none; fill: rgb(87,65,65); fill-rule: nonzero; opacity: 1;" transform=" translate(-810.6667, -426.8188)" d="M 790.68 331.49 a 86 86 0 0 0 -19.08 -2.23 c -2.09 0 -4.33 0.11 -6 1.26 c -2.21 1.55 -2.49 4.35 -3.15 6.77 a 18.78 18.78 0 0 1 -7.15 10 c -2.37 1.73 -5.16 3 -7.43 4.82 s -4 4.52 -3.43 7.18 S 748 364 751 364.85 s 6.19 1 9.21 1.82 c 9.59 2.49 16.1 12 14.16 20.65 c -1 4.31 -3.73 8.39 -3.31 12.77 c 0.49 5.23 5.32 9.26 7.59 14.11 c 2.07 4.42 1.93 9.38 1.77 14.16 l -0.61 17.54 c -0.16 4.62 0.24 10.18 4.8 12.44 c 2.44 1.2 5.48 1.07 8 2.13 c 4.94 2.06 6.24 7.67 6.64 12.49 a 129.1 129.1 0 0 1 0.08 20.53 c -0.23 3 -0.39 6.35 2 8.45 a 10.72 10.72 0 0 0 4 1.94 a 59.32 59.32 0 0 0 15.42 2.64 c 4.2 0.16 8.64 -0.08 12.33 1.7 c 2.87 1.39 4.87 3.83 7.1 5.94 a 39.24 39.24 0 0 0 23.18 10.15 c 1.85 0.16 3.95 0.12 5.24 -1.07 s 0.53 -3.76 -1.31 -3.61 a 8.89 8.89 0 0 0 8.42 -3.22 a 7.1 7.1 0 0 0 0 -8.17 c -2.09 -3 -6.53 -5 -6.77 -8.56 c -0.13 -2 1.2 -3.81 2.24 -5.59 a 23.51 23.51 0 0 0 -3.64 -28 c -4.69 -4.85 -11.72 -8.53 -13.36 -14.75 c -1.09 -4.16 0.56 -8.53 -0.07 -12.76 c -1 -7 -7.93 -12 -11.74 -18.24 s -4.48 -13.79 -3.51 -20.89 s 3.43 -14 5.43 -20.9 c 1.49 -5.15 2.72 -10.62 1.06 -15.73 c -1.19 -3.63 -3.75 -6.78 -6.41 -9.75 c -6.37 -7.11 -13.7 -13.77 -22.76 -18 s -20.1 -5.87 -29.72 -2.74" stroke-linecap="round"/>
</g>
		<g transform="matrix(1 0 0 1 210.6666 -23.1762)">
<path style="stroke: none; stroke-width: 1; stroke-dasharray: none; stroke-linecap: butt; stroke-dashoffset: 0; stroke-linejoin: miter; stroke-miterlimit: 4; is-custom-font: none; font-file-url: none; fill: rgb(0,0,0); fill-rule: nonzero; opacity: 0.1;" transform=" translate(-810.6667, -426.8188)" d="M 790.68 331.49 a 86 86 0 0 0 -19.08 -2.23 c -2.09 0 -4.33 0.11 -6 1.26 c -2.21 1.55 -2.49 4.35 -3.15 6.77 a 18.78 18.78 0 0 1 -7.15 10 c -2.37 1.73 -5.16 3 -7.43 4.82 s -4 4.52 -3.43 7.18 S 748 364 751 364.85 s 6.19 1 9.21 1.82 c 9.59 2.49 16.1 12 14.16 20.65 c -1 4.31 -3.73 8.39 -3.31 12.77 c 0.49 5.23 5.32 9.26 7.59 14.11 c 2.07 4.42 1.93 9.38 1.77 14.16 l -0.61 17.54 c -0.16 4.62 0.24 10.18 4.8 12.44 c 2.44 1.2 5.48 1.07 8 2.13 c 4.94 2.06 6.24 7.67 6.64 12.49 a 129.1 129.1 0 0 1 0.08 20.53 c -0.23 3 -0.39 6.35 2 8.45 a 10.72 10.72 0 0 0 4 1.94 a 59.32 59.32 0 0 0 15.42 2.64 c 4.2 0.16 8.64 -0.08 12.33 1.7 c 2.87 1.39 4.87 3.83 7.1 5.94 a 39.24 39.24 0 0 0 23.18 10.15 c 1.85 0.16 3.95 0.12 5.24 -1.07 s 0.53 -3.76 -1.31 -3.61 a 8.89 8.89 0 0 0 8.42 -3.22 a 7.1 7.1 0 0 0 0 -8.17 c -2.09 -3 -6.53 -5 -6.77 -8.56 c -0.13 -2 1.2 -3.81 2.24 -5.59 a 23.51 23.51 0 0 0 -3.64 -28 c -4.69 -4.85 -11.72 -8.53 -13.36 -14.75 c -1.09 -4.16 0.56 -8.53 -0.07 -12.76 c -1 -7 -7.93 -12 -11.74 -18.24 s -4.48 -13.79 -3.51 -20.89 s 3.43 -14 5.43 -20.9 c 1.49 -5.15 2.72 -10.62 1.06 -15.73 c -1.19 -3.63 -3.75 -6.78 -6.41 -9.75 c -6.37 -7.11 -13.7 -13.77 -22.76 -18 s -20.1 -5.87 -29.72 -2.74" stroke-linecap="round"/>
</g>
		<g transform="matrix(1 0 0 1 146.8624 100.2308)">
<path style="stroke: none; stroke-width: 1; stroke-dasharray: none; stroke-linecap: butt; stroke-dashoffset: 0; stroke-linejoin: miter; stroke-miterlimit: 4; is-custom-font: none; font-file-url: none; fill: rgb(0,0,0); fill-rule: nonzero; opacity: 0.1;" transform=" translate(-746.8624, -550.2258)" d="M 737.18 554.27 s 8.5 3.25 17.5 -5.75 S 737.18 554.27 737.18 554.27 Z" stroke-linecap="round"/>
</g>
		<g transform="matrix(1 0 0 1 195.94 -119.0053)">
<path style="stroke: none; stroke-width: 1; stroke-dasharray: none; stroke-linecap: butt; stroke-dashoffset: 0; stroke-linejoin: miter; stroke-miterlimit: 4; is-custom-font: none; font-file-url: none; fill: rgb(0,0,0); fill-rule: nonzero; opacity: 0.1;" transform=" translate(-795.94, -330.9897)" d="M 794.44 331.34 a 35.56 35.56 0 0 1 5 -0.63 a 37.93 37.93 0 0 0 -7 0.22 Z" stroke-linecap="round"/>
</g>
		<g transform="matrix(1 0 0 1 205.3502 -23.1425)">
<path style="stroke: none; stroke-width: 1; stroke-dasharray: none; stroke-linecap: butt; stroke-dashoffset: 0; stroke-linejoin: miter; stroke-miterlimit: 4; is-custom-font: none; font-file-url: none; fill: rgb(0,0,0); fill-rule: nonzero; opacity: 0.1;" transform=" translate(-805.3502, -426.8525)" d="M 844.58 514.16 c -2.24 -2.11 -4.23 -4.55 -7.11 -5.94 c -3.68 -1.78 -8.13 -1.54 -12.33 -1.7 a 59 59 0 0 1 -15.42 -2.64 a 10.72 10.72 0 0 1 -4 -1.94 c -2.38 -2.1 -2.21 -5.48 -2 -8.45 a 129.1 129.1 0 0 0 -0.08 -20.53 c -0.41 -4.82 -1.7 -10.43 -6.65 -12.49 c -2.53 -1.06 -5.56 -0.93 -8 -2.13 c -4.56 -2.26 -5 -7.82 -4.81 -12.44 q 0.31 -8.77 0.61 -17.53 c 0.17 -4.79 0.3 -9.75 -1.77 -14.17 c -2.27 -4.85 -7.1 -8.87 -7.59 -14.11 c -0.41 -4.37 2.35 -8.46 3.32 -12.77 c 1.94 -8.67 -4.58 -18.16 -14.17 -20.65 c -3 -0.78 -6.22 -0.94 -9.21 -1.82 s -5.89 -2.78 -6.51 -5.5 s 1.15 -5.36 3.42 -7.19 s 5.06 -3.09 7.44 -4.82 a 18.71 18.71 0 0 0 7.14 -10 c 0.67 -2.42 1 -5.21 3.15 -6.77 a 8 8 0 0 1 4.1 -1.2 c -0.89 0 -1.78 -0.05 -2.66 -0.05 c -2.09 0 -4.33 0.11 -6 1.25 c -2.21 1.56 -2.49 4.35 -3.15 6.77 a 18.78 18.78 0 0 1 -7.15 10 c -2.37 1.73 -5.16 3 -7.43 4.82 s -4 4.52 -3.43 7.19 s 3.53 4.61 6.52 5.5 s 6.19 1 9.21 1.82 c 9.59 2.49 16.1 12 14.16 20.65 c -1 4.31 -3.73 8.4 -3.31 12.77 c 0.49 5.24 5.32 9.26 7.59 14.11 c 2.07 4.42 1.94 9.38 1.77 14.17 q -0.31 8.76 -0.61 17.53 c -0.16 4.62 0.24 10.18 4.8 12.44 c 2.44 1.2 5.48 1.07 8 2.13 c 4.94 2.06 6.24 7.67 6.64 12.49 a 129.1 129.1 0 0 1 0.08 20.53 c -0.23 3 -0.39 6.35 2 8.45 a 10.72 10.72 0 0 0 4 1.94 a 58.91 58.91 0 0 0 15.42 2.64 c 4.2 0.16 8.64 -0.08 12.33 1.7 c 2.87 1.39 4.87 3.83 7.11 5.94 a 39.18 39.18 0 0 0 23.17 10.15 a 10.71 10.71 0 0 0 3.35 -0.13 A 39.11 39.11 0 0 1 844.58 514.16 Z" stroke-linecap="round"/>
</g>
		<g transform="matrix(1 0 0 1 85.9565 39.3948)">
<path style="stroke: none; stroke-width: 1; stroke-dasharray: none; stroke-linecap: butt; stroke-dashoffset: 0; stroke-linejoin: miter; stroke-miterlimit: 4; is-custom-font: none; font-file-url: none; fill: rgb(0,0,0); fill-rule: nonzero; opacity: 0.1;" transform=" translate(-685.9566, -489.3898)" d="M 689.43 484 s -8 7.34 -6.83 10.34 S 689.43 484 689.43 484 Z" stroke-linecap="round"/>
</g>
		<g transform="matrix(1 0 0 1 149.2753 187.66)">
<path style="stroke: none; stroke-width: 1; stroke-dasharray: none; stroke-linecap: butt; stroke-dashoffset: 0; stroke-linejoin: miter; stroke-miterlimit: 4; is-custom-font: none; font-file-url: none; fill: rgb(87,65,65); fill-rule: nonzero; opacity: 1;" transform=" translate(-749.2753, -637.655)" d="M 696.85 578.35 c -5.77 -1.41 -21.68 -2.71 -29.25 22.68 a 112.32 112.32 0 0 1 -6.71 17.17 c -7.26 14.91 -16.64 45.57 24.61 52.32 l 99 22.5 s 53 6.5 56.5 4 s 3 -8 3 -8 s -58.5 0 -70 -18 s -12 -42.5 -12 -42.5 s 1.44 -37.83 -59 -48.82 C 701 579.32 698.9 578.85 696.85 578.35 Z" stroke-linecap="round"/>
</g>
		<g transform="matrix(1 0 0 1 149.2753 187.8301)">
<path style="stroke: none; stroke-width: 1; stroke-dasharray: none; stroke-linecap: butt; stroke-dashoffset: 0; stroke-linejoin: miter; stroke-miterlimit: 4; is-custom-font: none; font-file-url: none; fill: rgb(0,0,0); fill-rule: nonzero; opacity: 0.1;" transform=" translate(-749.2753, -637.8251)" d="M 696.85 578.52 c -5.77 -1.41 -21.68 -2.71 -29.25 22.69 a 112.32 112.32 0 0 1 -6.71 17.17 c -7.26 14.9 -16.64 45.56 24.61 52.31 l 99 22.5 s 53 6.5 56.5 4 s 3 -8 3 -8 s -58.5 0 -70 -18 s -12 -42.5 -12 -42.5 s 1.44 -37.83 -59 -48.82 C 701 579.49 698.9 579 696.85 578.52 Z" stroke-linecap="round"/>
</g>
		<g transform="matrix(1 0 0 1 235.3667 153.0031)">
<path style="stroke: none; stroke-width: 1; stroke-dasharray: none; stroke-linecap: butt; stroke-dashoffset: 0; stroke-linejoin: miter; stroke-miterlimit: 4; is-custom-font: none; font-file-url: none; fill: rgb(87,65,65); fill-rule: nonzero; opacity: 1;" transform=" translate(-835.3667, -602.9981)" d="M 904.38 552.48 a 15.29 15.29 0 0 0 -15.45 -12.92 c -14.24 0.26 -58.07 2.16 -78.43 15.46 c 0 0 -15.5 10 -20 10 s -65.5 52 25 98.5 c 0 0 48.5 13.8 67.5 -18.6 c 0 0 13.5 -34.8 12.5 -46.85 s 9 -44.55 9 -44.55 S 904.48 553.13 904.38 552.48 Z" stroke-linecap="round"/>
</g>
		<g transform="matrix(1 0 0 1 235.3667 157.8768)">
<path style="stroke: none; stroke-width: 1; stroke-dasharray: none; stroke-linecap: butt; stroke-dashoffset: 0; stroke-linejoin: miter; stroke-miterlimit: 4; is-custom-font: none; font-file-url: none; fill: rgb(0,0,0); fill-rule: nonzero; opacity: 0.1;" transform=" translate(-835.3667, -607.8717)" d="M 904.38 561.24 c -1.14 -7 -7.8 -12.06 -15.45 -11.93 c -14.24 0.24 -58.07 2 -78.43 14.27 c 0 0 -15.5 9.23 -20 9.23 s -65.5 48 25 90.93 c 0 0 48.5 12.74 67.5 -17.17 c 0 0 13.5 -32.13 12.5 -43.25 s 9 -41.12 9 -41.12 S 904.48 561.84 904.38 561.24 Z" stroke-linecap="round"/>
</g>
		<g transform="matrix(1 0 0 1 248 230.55)">
<rect style="stroke: none; stroke-width: 1; stroke-dasharray: none; stroke-linecap: butt; stroke-dashoffset: 0; stroke-linejoin: miter; stroke-miterlimit: 4; is-custom-font: none; font-file-url: none; fill: rgb(126,93,111); fill-rule: nonzero; opacity: 1;" x="-8" y="-17.035" rx="0" ry="0" width="16" height="34.07"/>
</g>
		<g transform="matrix(1 0 0 1 -329.26 72.085)">
<ellipse style="stroke: none; stroke-width: 1; stroke-dasharray: none; stroke-linecap: butt; stroke-dashoffset: 0; stroke-linejoin: miter; stroke-miterlimit: 4; is-custom-font: none; font-file-url: none; fill: rgb(0,0,0); fill-rule: nonzero; opacity: 0.1;" cx="0" cy="0" rx="45.04" ry="2.89"/>
</g>
		<g transform="matrix(1 0 0 1 -317.4557 -8.9866)">
<path style="stroke: none; stroke-width: 1; stroke-dasharray: none; stroke-linecap: butt; stroke-dashoffset: 0; stroke-linejoin: miter; stroke-miterlimit: 4; is-custom-font: none; font-file-url: none; fill: rgb(238,100,32); fill-rule: nonzero; opacity: 1;" transform=" translate(-282.5443, -441.0085)" d="M 308.54 410.62 a 17.18 17.18 0 0 0 -2.28 4.29 c -0.14 0.38 -0.28 0.8 -0.42 1.21 a 3.69 3.69 0 0 0 -0.79 -0.27 a 11.34 11.34 0 0 0 -3.57 -0.31 c 0 -0.46 0.06 -1 0.07 -1.46 c 0.15 -5.27 -0.47 -12.62 -5.5 -9.51 c -4.82 3 -1.38 8 1.73 11.21 l 0.8 0.78 c -2.84 2 -3.38 6.73 -3.85 11.64 s -4.64 10.29 -7.41 13.34 c -0.28 0.31 -0.53 0.59 -0.78 0.85 a 10.11 10.11 0 0 0 -8.05 -2.07 c -0.11 -0.43 -0.24 -0.88 -0.37 -1.36 c -2.24 -8.08 -6.89 -22.09 -12.82 -25.16 l 0.78 -1 c 2.52 -3.3 5.36 -8.19 1.17 -9.45 s -4.57 4.25 -4.34 8.37 c 0 0.52 0.08 1 0.12 1.46 a 6.17 6.17 0 0 0 -4.38 2.14 l -0.65 -0.76 c -3.4 -4 -9.63 -10.37 -11.52 -5.56 c -1.76 4.48 3.73 10.29 7.59 13.66 l 0.24 0.21 C 251.72 433.4 263 442 269.12 445.72 l 0.79 0.48 c -8.4 9.9 -13.59 28.45 -13.59 28.45 l 23.52 4.2 s 15.6 -13.45 13.6 -26.09 l 0.16 0 c 15.59 -3.12 19.13 -19.74 16.7 -29.61 l 0.28 -0.11 a 17.74 17.74 0 0 0 7.22 -5.46 C 322.16 411.51 313 404.67 308.54 410.62 Z" stroke-linecap="round"/>
</g>
		<g transform="matrix(1 0 0 1 -317.4557 -8.9866)">
<path style="stroke: none; stroke-width: 1; stroke-dasharray: none; stroke-linecap: butt; stroke-dashoffset: 0; stroke-linejoin: miter; stroke-miterlimit: 4; is-custom-font: none; font-file-url: none; fill: rgb(0,0,0); fill-rule: nonzero; opacity: 0.1;" transform=" translate(-282.5443, -441.0085)" d="M 308.54 410.62 a 17.18 17.18 0 0 0 -2.28 4.29 c -0.14 0.38 -0.28 0.8 -0.42 1.21 a 3.69 3.69 0 0 0 -0.79 -0.27 a 11.34 11.34 0 0 0 -3.57 -0.31 c 0 -0.46 0.06 -1 0.07 -1.46 c 0.15 -5.27 -0.47 -12.62 -5.5 -9.51 c -4.82 3 -1.38 8 1.73 11.21 l 0.8 0.78 c -2.84 2 -3.38 6.73 -3.85 11.64 s -4.64 10.29 -7.41 13.34 c -0.28 0.31 -0.53 0.59 -0.78 0.85 a 10.11 10.11 0 0 0 -8.05 -2.07 c -0.11 -0.43 -0.24 -0.88 -0.37 -1.36 c -2.24 -8.08 -6.89 -22.09 -12.82 -25.16 l 0.78 -1 c 2.52 -3.3 5.36 -8.19 1.17 -9.45 s -4.57 4.25 -4.34 8.37 c 0 0.52 0.08 1 0.12 1.46 a 6.17 6.17 0 0 0 -4.38 2.14 l -0.65 -0.76 c -3.4 -4 -9.63 -10.37 -11.52 -5.56 c -1.76 4.48 3.73 10.29 7.59 13.66 l 0.24 0.21 C 251.72 433.4 263 442 269.12 445.72 l 0.79 0.48 c -8.4 9.9 -13.59 28.45 -13.59 28.45 l 23.52 4.2 s 15.6 -13.45 13.6 -26.09 l 0.16 0 c 15.59 -3.12 19.13 -19.74 16.7 -29.61 l 0.28 -0.11 a 17.74 17.74 0 0 0 7.22 -5.46 C 322.16 411.51 313 404.67 308.54 410.62 Z" stroke-linecap="round"/>
</g>
		<g transform="matrix(1 0 0 1 -345.3342 -33.6282)">
<path style="stroke: none; stroke-width: 1; stroke-dasharray: none; stroke-linecap: butt; stroke-dashoffset: 0; stroke-linejoin: miter; stroke-miterlimit: 4; is-custom-font: none; font-file-url: none; fill: rgb(238,100,32); fill-rule: nonzero; opacity: 1;" transform=" translate(-254.6658, -416.3669)" d="M 261.72 417.4 L 259 425.45 s -1.53 -1.08 -3.46 -2.78 c -3.86 -3.37 -9.35 -9.18 -7.59 -13.66 c 1.89 -4.81 8.12 1.54 11.52 5.56 C 260.81 416.16 261.72 417.4 261.72 417.4 Z" stroke-linecap="round"/>
</g>
		<g transform="matrix(1 0 0 1 -332.4549 -40.4217)">
<path style="stroke: none; stroke-width: 1; stroke-dasharray: none; stroke-linecap: butt; stroke-dashoffset: 0; stroke-linejoin: miter; stroke-miterlimit: 4; is-custom-font: none; font-file-url: none; fill: rgb(238,100,32); fill-rule: nonzero; opacity: 1;" transform=" translate(-267.5451, -409.5732)" d="M 267.52 412.81 a 38.89 38.89 0 0 1 -2.68 3.15 a 42.22 42.22 0 0 1 -0.49 -4.23 c -0.23 -4.12 0.21 -9.59 4.34 -8.37 S 270 409.51 267.52 412.81 Z" stroke-linecap="round"/>
</g>
		<g transform="matrix(1 0 0 1 -300.9389 -38.6608)">
<path style="stroke: none; stroke-width: 1; stroke-dasharray: none; stroke-linecap: butt; stroke-dashoffset: 0; stroke-linejoin: miter; stroke-miterlimit: 4; is-custom-font: none; font-file-url: none; fill: rgb(238,100,32); fill-rule: nonzero; opacity: 1;" transform=" translate(-299.0611, -411.3343)" d="M 303 414.08 c -0.08 2.65 -0.34 4.76 -0.34 4.76 a 34 34 0 0 1 -3.43 -3.06 c -3.11 -3.23 -6.55 -8.21 -1.73 -11.21 C 302.52 401.46 303.14 408.81 303 414.08 Z" stroke-linecap="round"/>
</g>
		<g transform="matrix(1 0 0 1 -286.6357 -33.8969)">
<path style="stroke: none; stroke-width: 1; stroke-dasharray: none; stroke-linecap: butt; stroke-dashoffset: 0; stroke-linejoin: miter; stroke-miterlimit: 4; is-custom-font: none; font-file-url: none; fill: rgb(238,100,32); fill-rule: nonzero; opacity: 1;" transform=" translate(-313.3643, -416.0981)" d="M 319.24 417.55 A 17.74 17.74 0 0 1 312 423 a 20.18 20.18 0 0 1 -2.42 0.87 l -3.24 -4.55 a 33.05 33.05 0 0 1 1.34 -4.42 a 17.18 17.18 0 0 1 2.28 -4.29 C 314.46 404.67 323.6 411.51 319.24 417.55 Z" stroke-linecap="round"/>
</g>
		<g transform="matrix(1 0 0 1 -341.37 -29.985)">
<path style="stroke: none; stroke-width: 1; stroke-dasharray: none; stroke-linecap: butt; stroke-dashoffset: 0; stroke-linejoin: miter; stroke-miterlimit: 4; is-custom-font: none; font-file-url: none; fill: rgb(0,0,0); fill-rule: nonzero; opacity: 0.1;" transform=" translate(-258.63, -420.01)" d="M 259.44 414.57 c 1.37 1.59 2.28 2.83 2.28 2.83 L 259 425.45 s -1.53 -1.08 -3.46 -2.78 a 15.75 15.75 0 0 1 3.1 -7.07 C 258.88 415.23 259.17 414.88 259.44 414.57 Z" stroke-linecap="round"/>
</g>
		<g transform="matrix(1 0 0 1 -334.065 -36.15)">
<path style="stroke: none; stroke-width: 1; stroke-dasharray: none; stroke-linecap: butt; stroke-dashoffset: 0; stroke-linejoin: miter; stroke-miterlimit: 4; is-custom-font: none; font-file-url: none; fill: rgb(0,0,0); fill-rule: nonzero; opacity: 0.1;" transform=" translate(-265.935, -413.845)" d="M 267.52 412.81 a 38.89 38.89 0 0 1 -2.68 3.15 a 42.22 42.22 0 0 1 -0.49 -4.23 A 5.46 5.46 0 0 1 267.52 412.81 Z" stroke-linecap="round"/>
</g>
		<g transform="matrix(1 0 0 1 -331.8349 -19.5285)">
<path style="stroke: none; stroke-width: 1; stroke-dasharray: none; stroke-linecap: butt; stroke-dashoffset: 0; stroke-linejoin: miter; stroke-miterlimit: 4; is-custom-font: none; font-file-url: none; fill: rgb(238,100,32); fill-rule: nonzero; opacity: 1;" transform=" translate(-268.1651, -430.4665)" d="M 281 444.77 l -6.84 3 s -1.49 -0.72 -3.64 -2.06 c -7.19 -4.43 -21.64 -15.56 -11.95 -28.68 s 17.77 10.42 20.95 21.92 C 280.53 442.4 281 444.77 281 444.77 Z" stroke-linecap="round"/>
</g>
		<g transform="matrix(1 0 0 1 -298.895 -33.535)">
<path style="stroke: none; stroke-width: 1; stroke-dasharray: none; stroke-linecap: butt; stroke-dashoffset: 0; stroke-linejoin: miter; stroke-miterlimit: 4; is-custom-font: none; font-file-url: none; fill: rgb(0,0,0); fill-rule: nonzero; opacity: 0.1;" transform=" translate(-301.105, -416.46)" d="M 299.22 415.78 a 5.57 5.57 0 0 1 3.77 -1.7 c -0.08 2.65 -0.34 4.76 -0.34 4.76 A 34 34 0 0 1 299.22 415.78 Z" stroke-linecap="round"/>
</g>
		<g transform="matrix(1 0 0 1 -290.83 -30.61)">
<path style="stroke: none; stroke-width: 1; stroke-dasharray: none; stroke-linecap: butt; stroke-dashoffset: 0; stroke-linejoin: miter; stroke-miterlimit: 4; is-custom-font: none; font-file-url: none; fill: rgb(0,0,0); fill-rule: nonzero; opacity: 0.1;" transform=" translate(-309.17, -419.385)" d="M 312 423 a 20.18 20.18 0 0 1 -2.42 0.87 l -3.24 -4.55 a 33.05 33.05 0 0 1 1.34 -4.42 C 309.79 416.14 311.33 419.17 312 423 Z" stroke-linecap="round"/>
</g>
		<g transform="matrix(1 0 0 1 -303.1609 -15.4763)">
<path style="stroke: none; stroke-width: 1; stroke-dasharray: none; stroke-linecap: butt; stroke-dashoffset: 0; stroke-linejoin: miter; stroke-miterlimit: 4; is-custom-font: none; font-file-url: none; fill: rgb(238,100,32); fill-rule: nonzero; opacity: 1;" transform=" translate(-296.8391, -434.5187)" d="M 295 452.73 l -1.15 0.2 c -22.93 3.49 -7.56 -8.88 -7.56 -8.88 s 1 -0.95 2.43 -2.51 c 2.77 -3.05 6.93 -8.4 7.41 -13.34 c 0.72 -7.43 1.55 -14.4 10.32 -12.35 C 315.1 417.86 316.75 448.38 295 452.73 Z" stroke-linecap="round"/>
</g>
		<g transform="matrix(1 0 0 1 -327.295 65.575)">
<rect style="stroke: none; stroke-width: 1; stroke-dasharray: none; stroke-linecap: butt; stroke-dashoffset: 0; stroke-linejoin: miter; stroke-miterlimit: 4; is-custom-font: none; font-file-url: none; fill: rgb(87,65,65); fill-rule: nonzero; opacity: 1;" x="-21.905" y="-5.76" rx="0" ry="0" width="43.81" height="11.52"/>
</g>
		<g transform="matrix(1 0 0 1 -327.54 42.475)">
<rect style="stroke: none; stroke-width: 1; stroke-dasharray: none; stroke-linecap: butt; stroke-dashoffset: 0; stroke-linejoin: miter; stroke-miterlimit: 4; is-custom-font: none; font-file-url: none; fill: rgb(87,65,65); fill-rule: nonzero; opacity: 1;" x="-28.62" y="-20.1" rx="0" ry="0" width="57.24" height="40.2"/>
</g>
		<g transform="matrix(1 0 0 1 -327.715 65.575)">
<rect style="stroke: none; stroke-width: 1; stroke-dasharray: none; stroke-linecap: butt; stroke-dashoffset: 0; stroke-linejoin: miter; stroke-miterlimit: 4; is-custom-font: none; font-file-url: none; fill: rgb(0,0,0); fill-rule: nonzero; opacity: 0.1;" x="-21.905" y="-5.76" rx="0" ry="0" width="43.81" height="11.52"/>
</g>
		<g transform="matrix(1 0 0 1 -327.72 42.485)">
<rect style="stroke: none; stroke-width: 1; stroke-dasharray: none; stroke-linecap: butt; stroke-dashoffset: 0; stroke-linejoin: miter; stroke-miterlimit: 4; is-custom-font: none; font-file-url: none; fill: rgb(0,0,0); fill-rule: nonzero; opacity: 0.1;" x="-28.62" y="-20.1" rx="0" ry="0" width="57.24" height="40.2"/>
</g>
		<g transform="matrix(1 0 0 1 -324.415 65.575)">
<rect style="stroke: none; stroke-width: 1; stroke-dasharray: none; stroke-linecap: butt; stroke-dashoffset: 0; stroke-linejoin: miter; stroke-miterlimit: 4; is-custom-font: none; font-file-url: none; fill: rgb(87,65,65); fill-rule: nonzero; opacity: 1;" x="-21.905" y="-5.76" rx="0" ry="0" width="43.81" height="11.52"/>
</g>
		<g transform="matrix(1 0 0 1 -324.2 -6.59)">
<path style="stroke: none; stroke-width: 1; stroke-dasharray: none; stroke-linecap: butt; stroke-dashoffset: 0; stroke-linejoin: miter; stroke-miterlimit: 4; is-custom-font: none; font-file-url: none; fill: rgb(0,0,0); fill-rule: nonzero; opacity: 0.1;" transform=" translate(-275.8, -443.405)" d="M 279.56 439 c 1 3.44 1.48 5.81 1.48 5.81 l -6.84 3 s -1.49 -0.72 -3.64 -2.06 C 273.24 442.32 276.26 439.75 279.56 439 Z" stroke-linecap="round"/>
</g>
		<g transform="matrix(1 0 0 1 -311.8761 -2.4497)">
<path style="stroke: none; stroke-width: 1; stroke-dasharray: none; stroke-linecap: butt; stroke-dashoffset: 0; stroke-linejoin: miter; stroke-miterlimit: 4; is-custom-font: none; font-file-url: none; fill: rgb(0,0,0); fill-rule: nonzero; opacity: 0.1;" transform=" translate(-288.1239, -447.5453)" d="M 295 452.73 l -1.15 0.2 c -22.93 3.49 -7.56 -8.88 -7.56 -8.88 s 1 -0.95 2.43 -2.51 C 293 445 294.81 448.83 295 452.73 Z" stroke-linecap="round"/>
</g>
		<g transform="matrix(1 0 0 1 -323.583 9.4944)">
<path style="stroke: none; stroke-width: 1; stroke-dasharray: none; stroke-linecap: butt; stroke-dashoffset: 0; stroke-linejoin: miter; stroke-miterlimit: 4; is-custom-font: none; font-file-url: none; fill: rgb(238,100,32); fill-rule: nonzero; opacity: 1;" transform=" translate(-276.417, -459.4895)" d="M 257.76 474.65 s 12.84 -46 30.85 -31.8 s -7.33 36 -7.33 36 Z" stroke-linecap="round"/>
</g>
		<g transform="matrix(1 0 0 1 -335.76 -25.755)">
<circle style="stroke: none; stroke-width: 1; stroke-dasharray: none; stroke-linecap: butt; stroke-dashoffset: 0; stroke-linejoin: miter; stroke-miterlimit: 4; is-custom-font: none; font-file-url: none; fill: rgb(0,0,0); fill-rule: nonzero; opacity: 0.1;" cx="0" cy="0" r="1.44"/>
</g>
		<g transform="matrix(1 0 0 1 -335.88 -19.025)">
<circle style="stroke: none; stroke-width: 1; stroke-dasharray: none; stroke-linecap: butt; stroke-dashoffset: 0; stroke-linejoin: miter; stroke-miterlimit: 4; is-custom-font: none; font-file-url: none; fill: rgb(0,0,0); fill-rule: nonzero; opacity: 0.1;" cx="0" cy="0" r="1.44"/>
</g>
		<g transform="matrix(1 0 0 1 -294.11 -24.435)">
<circle style="stroke: none; stroke-width: 1; stroke-dasharray: none; stroke-linecap: butt; stroke-dashoffset: 0; stroke-linejoin: miter; stroke-miterlimit: 4; is-custom-font: none; font-file-url: none; fill: rgb(0,0,0); fill-rule: nonzero; opacity: 0.1;" cx="0" cy="0" r="1.44"/>
</g>
		<g transform="matrix(1 0 0 1 -327.72 10.015)">
<circle style="stroke: none; stroke-width: 1; stroke-dasharray: none; stroke-linecap: butt; stroke-dashoffset: 0; stroke-linejoin: miter; stroke-miterlimit: 4; is-custom-font: none; font-file-url: none; fill: rgb(0,0,0); fill-rule: nonzero; opacity: 0.1;" cx="0" cy="0" r="1.44"/>
</g>
		<g transform="matrix(1 0 0 1 -297.11 -13.265)">
<circle style="stroke: none; stroke-width: 1; stroke-dasharray: none; stroke-linecap: butt; stroke-dashoffset: 0; stroke-linejoin: miter; stroke-miterlimit: 4; is-custom-font: none; font-file-url: none; fill: rgb(0,0,0); fill-rule: nonzero; opacity: 0.1;" cx="0" cy="0" r="1.44"/>
</g>
		<g transform="matrix(1 0 0 1 -311.99 1.615)">
<circle style="stroke: none; stroke-width: 1; stroke-dasharray: none; stroke-linecap: butt; stroke-dashoffset: 0; stroke-linejoin: miter; stroke-miterlimit: 4; is-custom-font: none; font-file-url: none; fill: rgb(0,0,0); fill-rule: nonzero; opacity: 0.1;" cx="0" cy="0" r="1.44"/>
</g>
		<g transform="matrix(1 0 0 1 -330.84 -22.875)">
<circle style="stroke: none; stroke-width: 1; stroke-dasharray: none; stroke-linecap: butt; stroke-dashoffset: 0; stroke-linejoin: miter; stroke-miterlimit: 4; is-custom-font: none; font-file-url: none; fill: rgb(0,0,0); fill-rule: nonzero; opacity: 0.1;" cx="0" cy="0" r="1.44"/>
</g>
		<g transform="matrix(1 0 0 1 -298.07 -20.105)">
<circle style="stroke: none; stroke-width: 1; stroke-dasharray: none; stroke-linecap: butt; stroke-dashoffset: 0; stroke-linejoin: miter; stroke-miterlimit: 4; is-custom-font: none; font-file-url: none; fill: rgb(0,0,0); fill-rule: nonzero; opacity: 0.1;" cx="0" cy="0" r="1.44"/>
</g>
		<g transform="matrix(1 0 0 1 -302.99 -8.945)">
<circle style="stroke: none; stroke-width: 1; stroke-dasharray: none; stroke-linecap: butt; stroke-dashoffset: 0; stroke-linejoin: miter; stroke-miterlimit: 4; is-custom-font: none; font-file-url: none; fill: rgb(0,0,0); fill-rule: nonzero; opacity: 0.1;" cx="0" cy="0" r="1.44"/>
</g>
		<g transform="matrix(1 0 0 1 -318.12 8.935)">
<circle style="stroke: none; stroke-width: 1; stroke-dasharray: none; stroke-linecap: butt; stroke-dashoffset: 0; stroke-linejoin: miter; stroke-miterlimit: 4; is-custom-font: none; font-file-url: none; fill: rgb(0,0,0); fill-rule: nonzero; opacity: 0.1;" cx="0" cy="0" r="1.44"/>
</g>
		<g transform="matrix(1 0 0 1 -321.24 1.855)">
<circle style="stroke: none; stroke-width: 1; stroke-dasharray: none; stroke-linecap: butt; stroke-dashoffset: 0; stroke-linejoin: miter; stroke-miterlimit: 4; is-custom-font: none; font-file-url: none; fill: rgb(0,0,0); fill-rule: nonzero; opacity: 0.1;" cx="0" cy="0" r="1.44"/>
</g>
		<g transform="matrix(1 0 0 1 -328.68 -14.105)">
<circle style="stroke: none; stroke-width: 1; stroke-dasharray: none; stroke-linecap: butt; stroke-dashoffset: 0; stroke-linejoin: miter; stroke-miterlimit: 4; is-custom-font: none; font-file-url: none; fill: rgb(0,0,0); fill-rule: nonzero; opacity: 0.1;" cx="0" cy="0" r="1.44"/>
</g>
		<g transform="matrix(1 0 0 1 -324.415 61.92)">
<rect style="stroke: none; stroke-width: 1; stroke-dasharray: none; stroke-linecap: butt; stroke-dashoffset: 0; stroke-linejoin: miter; stroke-miterlimit: 4; is-custom-font: none; font-file-url: none; fill: rgb(0,0,0); fill-rule: nonzero; opacity: 0.1;" x="-21.905" y="-2.105" rx="0" ry="0" width="43.81" height="4.21"/>
</g>
		<g transform="matrix(1 0 0 1 -324.66 42.475)">
<rect style="stroke: none; stroke-width: 1; stroke-dasharray: none; stroke-linecap: butt; stroke-dashoffset: 0; stroke-linejoin: miter; stroke-miterlimit: 4; is-custom-font: none; font-file-url: none; fill: rgb(87,65,65); fill-rule: nonzero; opacity: 1;" x="-28.62" y="-20.1" rx="0" ry="0" width="57.24" height="40.2"/>
</g>
		<g transform="matrix(1 0 0 1 -316.2 15.415)">
<circle style="stroke: none; stroke-width: 1; stroke-dasharray: none; stroke-linecap: butt; stroke-dashoffset: 0; stroke-linejoin: miter; stroke-miterlimit: 4; is-custom-font: none; font-file-url: none; fill: rgb(0,0,0); fill-rule: nonzero; opacity: 0.1;" cx="0" cy="0" r="1.44"/>
</g>
		<g transform="matrix(1 0 0 1 -324.84 17.215)">
<circle style="stroke: none; stroke-width: 1; stroke-dasharray: none; stroke-linecap: butt; stroke-dashoffset: 0; stroke-linejoin: miter; stroke-miterlimit: 4; is-custom-font: none; font-file-url: none; fill: rgb(0,0,0); fill-rule: nonzero; opacity: 0.1;" cx="0" cy="0" r="1.44"/>
</g>
		<g transform="matrix(1 0 0 1 -189.4124 205.09)">
<path style="stroke: none; stroke-width: 1; stroke-dasharray: none; stroke-linecap: butt; stroke-dashoffset: 0; stroke-linejoin: miter; stroke-miterlimit: 4; is-custom-font: none; font-file-url: none; fill: rgb(238,100,32); fill-rule: nonzero; opacity: 1;" transform=" translate(-410.5877, -655.085)" d="M 412.39 626 s 7.13 9.33 -3.29 23.41 s -19 26 -15.56 34.76 c 0 0 15.74 -26.16 28.55 -26.52 S 426.48 641.74 412.39 626 Z" stroke-linecap="round"/>
</g>
		<g transform="matrix(1 0 0 1 -189.2167 205.08)">
<path style="stroke: none; stroke-width: 1; stroke-dasharray: none; stroke-linecap: butt; stroke-dashoffset: 0; stroke-linejoin: miter; stroke-miterlimit: 4; is-custom-font: none; font-file-url: none; fill: rgb(0,0,0); fill-rule: nonzero; opacity: 0.1;" transform=" translate(-410.7833, -655.075)" d="M 412.39 626 a 11.49 11.49 0 0 1 1.46 2.92 c 12.49 14.68 19.15 28.38 7.14 28.73 C 409.8 658 396.38 678 393.16 683 c 0.11 0.39 0.24 0.78 0.38 1.15 c 0 0 15.74 -26.16 28.55 -26.52 S 426.48 641.74 412.39 626 Z" stroke-linecap="round"/>
</g>
		<g transform="matrix(1 0 0 1 -175.17 189.8226)">
<path style="stroke: none; stroke-width: 1; stroke-dasharray: none; stroke-linecap: butt; stroke-dashoffset: 0; stroke-linejoin: miter; stroke-miterlimit: 4; is-custom-font: none; font-file-url: none; fill: rgb(235,224,192); fill-rule: nonzero; opacity: 1;" transform=" translate(-424.83, -639.8176)" d="M 425.65 637.9 c 0 3.28 -0.37 5.94 -0.82 5.94 s -0.82 -2.66 -0.82 -5.94 s 0.46 -1.74 0.91 -1.74 S 425.65 634.61 425.65 637.9 Z" stroke-linecap="round"/>
</g>
		<g transform="matrix(1 0 0 1 -171.7165 191.804)">
<path style="stroke: none; stroke-width: 1; stroke-dasharray: none; stroke-linecap: butt; stroke-dashoffset: 0; stroke-linejoin: miter; stroke-miterlimit: 4; is-custom-font: none; font-file-url: none; fill: rgb(235,224,192); fill-rule: nonzero; opacity: 1;" transform=" translate(-428.2834, -641.799)" d="M 430.2 641.82 c -2.88 1.57 -5.39 2.52 -5.61 2.12 s 1.94 -2 4.83 -3.57 s 1.74 -0.43 2 0 S 433.09 640.25 430.2 641.82 Z" stroke-linecap="round"/>
</g>
		<g transform="matrix(1 0 0 1 -223.5007 205.09)">
<path style="stroke: none; stroke-width: 1; stroke-dasharray: none; stroke-linecap: butt; stroke-dashoffset: 0; stroke-linejoin: miter; stroke-miterlimit: 4; is-custom-font: none; font-file-url: none; fill: rgb(238,100,32); fill-rule: nonzero; opacity: 1;" transform=" translate(-376.4993, -655.085)" d="M 374.7 626 s -7.13 9.33 3.29 23.41 s 19 26 15.55 34.76 c 0 0 -15.73 -26.16 -28.54 -26.52 S 360.61 641.74 374.7 626 Z" stroke-linecap="round"/>
</g>
		<g transform="matrix(1 0 0 1 -223.6933 205.08)">
<path style="stroke: none; stroke-width: 1; stroke-dasharray: none; stroke-linecap: butt; stroke-dashoffset: 0; stroke-linejoin: miter; stroke-miterlimit: 4; is-custom-font: none; font-file-url: none; fill: rgb(0,0,0); fill-rule: nonzero; opacity: 0.1;" transform=" translate(-376.3067, -655.075)" d="M 374.7 626 a 11.49 11.49 0 0 0 -1.46 2.92 c -12.49 14.68 -19.15 28.38 -7.14 28.73 C 377.29 658 390.71 678 393.93 683 a 11.1 11.1 0 0 1 -0.39 1.15 S 377.81 658 365 657.66 S 360.61 641.74 374.7 626 Z" stroke-linecap="round"/>
</g>
		<g transform="matrix(1 0 0 1 -237.74 189.8226)">
<path style="stroke: none; stroke-width: 1; stroke-dasharray: none; stroke-linecap: butt; stroke-dashoffset: 0; stroke-linejoin: miter; stroke-miterlimit: 4; is-custom-font: none; font-file-url: none; fill: rgb(235,224,192); fill-rule: nonzero; opacity: 1;" transform=" translate(-362.26, -639.8176)" d="M 361.44 637.9 c 0 3.28 0.37 5.94 0.82 5.94 s 0.82 -2.66 0.82 -5.94 s -0.46 -1.74 -0.91 -1.74 S 361.44 634.61 361.44 637.9 Z" stroke-linecap="round"/>
</g>
		<g transform="matrix(1 0 0 1 -241.1934 191.804)">
<path style="stroke: none; stroke-width: 1; stroke-dasharray: none; stroke-linecap: butt; stroke-dashoffset: 0; stroke-linejoin: miter; stroke-miterlimit: 4; is-custom-font: none; font-file-url: none; fill: rgb(235,224,192); fill-rule: nonzero; opacity: 1;" transform=" translate(-358.8066, -641.799)" d="M 356.89 641.82 c 2.88 1.57 5.39 2.52 5.61 2.12 s -1.94 -2 -4.83 -3.57 s -1.74 -0.43 -2 0 S 354 640.25 356.89 641.82 Z" stroke-linecap="round"/>
</g>
		<g transform="matrix(1 0 0 1 -206.46 294.115)">
<ellipse style="stroke: none; stroke-width: 1; stroke-dasharray: none; stroke-linecap: butt; stroke-dashoffset: 0; stroke-linejoin: miter; stroke-miterlimit: 4; is-custom-font: none; font-file-url: none; fill: rgb(238,100,32); fill-rule: nonzero; opacity: 0.1;" cx="0" cy="0" rx="74.6" ry="11.45"/>
</g>
		<g transform="matrix(1 0 0 1 -206.455 255.895)">
<path style="stroke: none; stroke-width: 1; stroke-dasharray: none; stroke-linecap: butt; stroke-dashoffset: 0; stroke-linejoin: miter; stroke-miterlimit: 4; is-custom-font: none; font-file-url: none; fill: rgb(125,97,97); fill-rule: nonzero; opacity: 1;" transform=" translate(-393.545, -705.89)" d="M 431.94 671.61 l -0.36 2.91 l -0.5 4.12 l -0.2 1.71 l -0.51 4.12 l -0.21 1.72 l -0.5 4.11 L 424 737.1 c -0.51 4.18 -7.34 7.43 -15.57 7.43 H 378.71 c -8.24 0 -15 -3.25 -15.56 -7.43 l -5.72 -46.8 l -0.5 -4.11 l -0.21 -1.72 l -0.51 -4.12 l -0.2 -1.71 l -0.5 -4.12 l -0.36 -2.91 c -0.29 -2.36 3.4 -4.36 8.07 -4.36 h 60.66 C 428.53 667.25 432.23 669.25 431.94 671.61 Z" stroke-linecap="round"/>
</g>
		<g transform="matrix(1 0 0 1 -206.455 226.58)">
<polygon style="stroke: none; stroke-width: 1; stroke-dasharray: none; stroke-linecap: butt; stroke-dashoffset: 0; stroke-linejoin: miter; stroke-miterlimit: 4; is-custom-font: none; font-file-url: none; fill: rgb(157,156,181); fill-rule: nonzero; opacity: 1;" points="38.035,-2.055 37.535,2.055 -37.535,2.055 -38.035,-2.055 38.035,-2.055 "/>
</g>
		<g transform="matrix(1 0 0 1 -206.455 232.415)">
<polygon style="stroke: none; stroke-width: 1; stroke-dasharray: none; stroke-linecap: butt; stroke-dashoffset: 0; stroke-linejoin: miter; stroke-miterlimit: 4; is-custom-font: none; font-file-url: none; fill: rgb(157,156,181); fill-rule: nonzero; opacity: 1;" points="37.335,-2.06 36.835,2.06 -36.825,2.06 -37.335,-2.06 37.335,-2.06 "/>
</g>
		<g transform="matrix(1 0 0 1 -206.455 238.245)">
<polygon style="stroke: none; stroke-width: 1; stroke-dasharray: none; stroke-linecap: butt; stroke-dashoffset: 0; stroke-linejoin: miter; stroke-miterlimit: 4; is-custom-font: none; font-file-url: none; fill: rgb(157,156,181); fill-rule: nonzero; opacity: 1;" points="36.615,-2.06 36.115,2.06 -36.115,2.06 -36.615,-2.06 36.615,-2.06 "/>
</g>
</g>
</g>
</svg>